%TF.GenerationSoftware,KiCad,Pcbnew,10.0.4*%
%TF.CreationDate,2026-08-18T21:53:51-04:00*%
%TF.ProjectId,Keyboard,4b657962-6f61-4726-942e-6b696361645f,rev?*%
%TF.SameCoordinates,Original*%
%TF.FileFunction,Paste,Bot*%
%TF.FilePolarity,Positive*%
%FSLAX46Y46*%
G04 Gerber Fmt 4.6, Leading zero omitted, Abs format (unit mm)*
G04 Created by KiCad (PCBNEW 10.0.4) date 2026-08-18 21:53:51*
%MOMM*%
%LPD*%
G01*
G04 APERTURE LIST*
G04 Aperture macros list*
%AMRoundRect*
0 Rectangle with rounded corners*
0 $1 Rounding radius*
0 $2 $3 $4 $5 $6 $7 $8 $9 X,Y pos of 4 corners*
0 Add a 4 corners polygon primitive as box body*
4,1,4,$2,$3,$4,$5,$6,$7,$8,$9,$2,$3,0*
0 Add four circle primitives for the rounded corners*
1,1,$1+$1,$2,$3*
1,1,$1+$1,$4,$5*
1,1,$1+$1,$6,$7*
1,1,$1+$1,$8,$9*
0 Add four rect primitives between the rounded corners*
20,1,$1+$1,$2,$3,$4,$5,0*
20,1,$1+$1,$4,$5,$6,$7,0*
20,1,$1+$1,$6,$7,$8,$9,0*
20,1,$1+$1,$8,$9,$2,$3,0*%
G04 Aperture macros list end*
%ADD10RoundRect,0.250000X1.025000X1.000000X-1.025000X1.000000X-1.025000X-1.000000X1.025000X-1.000000X0*%
%ADD11RoundRect,0.225000X0.375000X-0.225000X0.375000X0.225000X-0.375000X0.225000X-0.375000X-0.225000X0*%
%ADD12RoundRect,0.225000X0.225000X0.375000X-0.225000X0.375000X-0.225000X-0.375000X0.225000X-0.375000X0*%
G04 APERTURE END LIST*
D10*
%TO.C,MX73*%
X66458750Y-130810000D03*
X79908750Y-128270000D03*
%TD*%
%TO.C,MX11*%
X240290000Y-35560000D03*
X253740000Y-33020000D03*
%TD*%
%TO.C,MX51*%
X164090000Y-92710000D03*
X177540000Y-90170000D03*
%TD*%
D11*
%TO.C,D6*%
X161121100Y-39016500D03*
X161121100Y-35716500D03*
%TD*%
D10*
%TO.C,MX58*%
X326015000Y-92710000D03*
X339465000Y-90170000D03*
%TD*%
%TO.C,MX61*%
X87890000Y-111760000D03*
X101340000Y-109220000D03*
%TD*%
D11*
%TO.C,D1*%
X65877100Y-39016500D03*
X65877100Y-35716500D03*
%TD*%
D10*
%TO.C,MX77*%
X249815000Y-130810000D03*
X263265000Y-128270000D03*
%TD*%
D11*
%TO.C,D35*%
X161121100Y-77845200D03*
X161121100Y-74545200D03*
%TD*%
%TO.C,D45*%
X60321200Y-93719200D03*
X60321200Y-90419200D03*
%TD*%
D10*
%TO.C,MX44*%
X325994000Y-73655200D03*
X339444000Y-71115200D03*
%TD*%
%TO.C,MX15*%
X316490000Y-35560000D03*
X329940000Y-33020000D03*
%TD*%
D11*
%TO.C,D10*%
X237316300Y-38953900D03*
X237316300Y-35653900D03*
%TD*%
D10*
%TO.C,MX60*%
X68840000Y-111760000D03*
X82290000Y-109220000D03*
%TD*%
D11*
%TO.C,D14*%
X313511500Y-38953900D03*
X313511500Y-35653900D03*
%TD*%
D10*
%TO.C,MX16*%
X49790000Y-54610000D03*
X63240000Y-52070000D03*
%TD*%
%TO.C,MX57*%
X290296250Y-92710000D03*
X303746250Y-90170000D03*
%TD*%
%TO.C,MX81*%
X326015000Y-130810000D03*
X339465000Y-128270000D03*
%TD*%
D11*
%TO.C,D65*%
X180169900Y-115942800D03*
X180169900Y-112642800D03*
%TD*%
D10*
%TO.C,MX74*%
X90271250Y-130810000D03*
X103721250Y-128270000D03*
%TD*%
D11*
%TO.C,D66*%
X199218700Y-115942800D03*
X199218700Y-112642800D03*
%TD*%
%TO.C,D61*%
X103974700Y-115942800D03*
X103974700Y-112642800D03*
%TD*%
%TO.C,D78*%
X284938300Y-134991600D03*
X284938300Y-131691600D03*
%TD*%
%TO.C,D42*%
X296050100Y-77845200D03*
X296050100Y-74545200D03*
%TD*%
%TO.C,D32*%
X103974700Y-77845200D03*
X103974700Y-74545200D03*
%TD*%
D10*
%TO.C,MX45*%
X42646250Y-92710000D03*
X56096250Y-90170000D03*
%TD*%
D11*
%TO.C,D26*%
X256365100Y-58796400D03*
X256365100Y-55496400D03*
%TD*%
%TO.C,D5*%
X142072300Y-38953900D03*
X142072300Y-35653900D03*
%TD*%
%TO.C,D16*%
X65877100Y-58796400D03*
X65877100Y-55496400D03*
%TD*%
D10*
%TO.C,MX13*%
X278390000Y-35560000D03*
X291840000Y-33020000D03*
%TD*%
D11*
%TO.C,D3*%
X103974700Y-38953900D03*
X103974700Y-35653900D03*
%TD*%
%TO.C,D33*%
X123023500Y-77845200D03*
X123023500Y-74545200D03*
%TD*%
D10*
%TO.C,MX54*%
X221240000Y-92710000D03*
X234690000Y-90170000D03*
%TD*%
%TO.C,MX6*%
X145040000Y-35560000D03*
X158490000Y-33020000D03*
%TD*%
D11*
%TO.C,D79*%
X303987100Y-134991600D03*
X303987100Y-131691600D03*
%TD*%
D10*
%TO.C,MX48*%
X106940000Y-92710000D03*
X120390000Y-90170000D03*
%TD*%
%TO.C,MX65*%
X164090000Y-111760000D03*
X177540000Y-109220000D03*
%TD*%
D11*
%TO.C,D24*%
X218267500Y-58796400D03*
X218267500Y-55496400D03*
%TD*%
D10*
%TO.C,MX69*%
X240290000Y-111760000D03*
X253740000Y-109220000D03*
%TD*%
%TO.C,MX66*%
X183140000Y-111760000D03*
X196590000Y-109220000D03*
%TD*%
D11*
%TO.C,D25*%
X237316300Y-58859000D03*
X237316300Y-55559000D03*
%TD*%
D10*
%TO.C,MX28*%
X278390000Y-54610000D03*
X291840000Y-52070000D03*
%TD*%
D11*
%TO.C,D20*%
X142072300Y-58796400D03*
X142072300Y-55496400D03*
%TD*%
D10*
%TO.C,MX10*%
X221240000Y-35560000D03*
X234690000Y-33020000D03*
%TD*%
%TO.C,MX22*%
X164090000Y-54610000D03*
X177540000Y-52070000D03*
%TD*%
D11*
%TO.C,D68*%
X237316300Y-115942800D03*
X237316300Y-112642800D03*
%TD*%
D10*
%TO.C,MX23*%
X183140000Y-54610000D03*
X196590000Y-52070000D03*
%TD*%
%TO.C,MX79*%
X287915000Y-130810000D03*
X301365000Y-128270000D03*
%TD*%
D11*
%TO.C,D57*%
X316686300Y-93719200D03*
X316686300Y-90419200D03*
%TD*%
D10*
%TO.C,MX41*%
X259340000Y-73660000D03*
X272790000Y-71120000D03*
%TD*%
D11*
%TO.C,D37*%
X199218700Y-77845200D03*
X199218700Y-74545200D03*
%TD*%
D10*
%TO.C,MX46*%
X68840000Y-92710000D03*
X82290000Y-90170000D03*
%TD*%
D11*
%TO.C,D38*%
X218267500Y-77845200D03*
X218267500Y-74545200D03*
%TD*%
%TO.C,D15*%
X334147700Y-39016500D03*
X334147700Y-35716500D03*
%TD*%
%TO.C,D12*%
X275413900Y-39016500D03*
X275413900Y-35716500D03*
%TD*%
D10*
%TO.C,MX76*%
X230765000Y-130810000D03*
X244215000Y-128270000D03*
%TD*%
%TO.C,MX18*%
X87890000Y-54610000D03*
X101340000Y-52070000D03*
%TD*%
%TO.C,MX64*%
X145040000Y-111760000D03*
X158490000Y-109220000D03*
%TD*%
D11*
%TO.C,D34*%
X142072300Y-77845200D03*
X142072300Y-74545200D03*
%TD*%
D10*
%TO.C,MX36*%
X164090000Y-73660000D03*
X177540000Y-71120000D03*
%TD*%
D11*
%TO.C,D67*%
X218267500Y-115942800D03*
X218267500Y-112642800D03*
%TD*%
%TO.C,D48*%
X123023500Y-96894000D03*
X123023500Y-93594000D03*
%TD*%
D10*
%TO.C,MX75*%
X161708750Y-130810000D03*
X175158750Y-128270000D03*
%TD*%
%TO.C,MX24*%
X202190000Y-54610000D03*
X215640000Y-52070000D03*
%TD*%
D11*
%TO.C,D50*%
X161121100Y-96894000D03*
X161121100Y-93594000D03*
%TD*%
D10*
%TO.C,MX71*%
X306965000Y-111760000D03*
X320415000Y-109220000D03*
%TD*%
D11*
%TO.C,D73*%
X84132200Y-134197900D03*
X84132200Y-130897900D03*
%TD*%
%TO.C,D55*%
X256365100Y-96894000D03*
X256365100Y-93594000D03*
%TD*%
%TO.C,D40*%
X256365100Y-77845200D03*
X256365100Y-74545200D03*
%TD*%
D10*
%TO.C,MX27*%
X259340000Y-54610000D03*
X272790000Y-52070000D03*
%TD*%
%TO.C,MX80*%
X306965000Y-130810000D03*
X320415000Y-128270000D03*
%TD*%
%TO.C,MX70*%
X271246250Y-111760000D03*
X284696250Y-109220000D03*
%TD*%
%TO.C,MX5*%
X125990000Y-35560000D03*
X139440000Y-33020000D03*
%TD*%
D11*
%TO.C,D18*%
X103974700Y-58859000D03*
X103974700Y-55559000D03*
%TD*%
%TO.C,D41*%
X275413900Y-77845200D03*
X275413900Y-74545200D03*
%TD*%
D10*
%TO.C,MX19*%
X106940000Y-54610000D03*
X120390000Y-52070000D03*
%TD*%
D11*
%TO.C,D21*%
X161121100Y-58796400D03*
X161121100Y-55496400D03*
%TD*%
%TO.C,D23*%
X199218700Y-58796400D03*
X199218700Y-55496400D03*
%TD*%
D10*
%TO.C,MX59*%
X42646250Y-111760000D03*
X56096250Y-109220000D03*
%TD*%
%TO.C,MX7*%
X164090000Y-35560000D03*
X177540000Y-33020000D03*
%TD*%
D11*
%TO.C,D72*%
X60321200Y-134991600D03*
X60321200Y-131691600D03*
%TD*%
%TO.C,D4*%
X123023500Y-38953900D03*
X123023500Y-35653900D03*
%TD*%
D10*
%TO.C,MX43*%
X302202500Y-73660000D03*
X315652500Y-71120000D03*
%TD*%
%TO.C,MX32*%
X87890000Y-73660000D03*
X101340000Y-71120000D03*
%TD*%
%TO.C,MX78*%
X268865000Y-130810000D03*
X282315000Y-128270000D03*
%TD*%
D11*
%TO.C,D36*%
X180169900Y-77845200D03*
X180169900Y-74545200D03*
%TD*%
%TO.C,D64*%
X161121100Y-115942800D03*
X161121100Y-112642800D03*
%TD*%
D10*
%TO.C,MX17*%
X68840000Y-54610000D03*
X82290000Y-52070000D03*
%TD*%
%TO.C,MX4*%
X106940000Y-35560000D03*
X120390000Y-33020000D03*
%TD*%
D11*
%TO.C,D31*%
X84925900Y-77845200D03*
X84925900Y-74545200D03*
%TD*%
D12*
%TO.C,D58*%
X342941000Y-86513300D03*
X339641000Y-86513300D03*
%TD*%
D10*
%TO.C,MX39*%
X221240000Y-73660000D03*
X234690000Y-71120000D03*
%TD*%
D11*
%TO.C,D80*%
X323035900Y-134991600D03*
X323035900Y-131691600D03*
%TD*%
D10*
%TO.C,MX3*%
X87890000Y-35560000D03*
X101340000Y-33020000D03*
%TD*%
D11*
%TO.C,D49*%
X142072300Y-96894000D03*
X142072300Y-93594000D03*
%TD*%
%TO.C,D9*%
X218267500Y-39016500D03*
X218267500Y-35716500D03*
%TD*%
%TO.C,D56*%
X277001300Y-93719200D03*
X277001300Y-90419200D03*
%TD*%
D10*
%TO.C,MX42*%
X278390000Y-73660000D03*
X291840000Y-71120000D03*
%TD*%
%TO.C,MX63*%
X125990000Y-111760000D03*
X139440000Y-109220000D03*
%TD*%
D11*
%TO.C,D69*%
X257952500Y-115942800D03*
X257952500Y-112642800D03*
%TD*%
%TO.C,D74*%
X108736900Y-132610500D03*
X108736900Y-129310500D03*
%TD*%
D10*
%TO.C,MX26*%
X240290000Y-54610000D03*
X253740000Y-52070000D03*
%TD*%
D11*
%TO.C,D22*%
X180169900Y-58796400D03*
X180169900Y-55496400D03*
%TD*%
D10*
%TO.C,MX8*%
X183140000Y-35560000D03*
X196590000Y-33020000D03*
%TD*%
%TO.C,MX33*%
X106940000Y-73660000D03*
X120390000Y-71120000D03*
%TD*%
%TO.C,MX55*%
X240290000Y-92710000D03*
X253740000Y-90170000D03*
%TD*%
D12*
%TO.C,D44*%
X342147300Y-80957400D03*
X338847300Y-80957400D03*
%TD*%
D10*
%TO.C,MX40*%
X240290000Y-73660000D03*
X253740000Y-71120000D03*
%TD*%
%TO.C,MX72*%
X42646250Y-130810000D03*
X56096250Y-128270000D03*
%TD*%
%TO.C,MX35*%
X145040000Y-73660000D03*
X158490000Y-71120000D03*
%TD*%
D11*
%TO.C,D19*%
X123023500Y-58796400D03*
X123023500Y-55496400D03*
%TD*%
D10*
%TO.C,MX53*%
X202190000Y-92710000D03*
X215640000Y-90170000D03*
%TD*%
D11*
%TO.C,D28*%
X296050100Y-58796400D03*
X296050100Y-55496400D03*
%TD*%
%TO.C,D53*%
X218267500Y-96894000D03*
X218267500Y-93594000D03*
%TD*%
D10*
%TO.C,MX20*%
X125990000Y-54610000D03*
X139440000Y-52070000D03*
%TD*%
%TO.C,MX12*%
X259340000Y-35560000D03*
X272790000Y-33020000D03*
%TD*%
D11*
%TO.C,D71*%
X324623300Y-114355400D03*
X324623300Y-111055400D03*
%TD*%
%TO.C,D81*%
X343672100Y-132610500D03*
X343672100Y-129310500D03*
%TD*%
%TO.C,D62*%
X123023500Y-115942800D03*
X123023500Y-112642800D03*
%TD*%
D10*
%TO.C,MX67*%
X202190000Y-111760000D03*
X215640000Y-109220000D03*
%TD*%
%TO.C,MX29*%
X306965000Y-54610000D03*
X320415000Y-52070000D03*
%TD*%
%TO.C,MX50*%
X145040000Y-92710000D03*
X158490000Y-90170000D03*
%TD*%
%TO.C,MX30*%
X45027500Y-73660000D03*
X58477500Y-71120000D03*
%TD*%
D11*
%TO.C,D46*%
X84925900Y-96894000D03*
X84925900Y-93594000D03*
%TD*%
%TO.C,D43*%
X319861100Y-77845200D03*
X319861100Y-74545200D03*
%TD*%
%TO.C,D39*%
X237316300Y-77845200D03*
X237316300Y-74545200D03*
%TD*%
%TO.C,D29*%
X330972900Y-55621600D03*
X330972900Y-52321600D03*
%TD*%
D10*
%TO.C,MX34*%
X125990000Y-73660000D03*
X139440000Y-71120000D03*
%TD*%
D11*
%TO.C,D47*%
X103974700Y-96894000D03*
X103974700Y-93594000D03*
%TD*%
D10*
%TO.C,MX38*%
X202190000Y-73660000D03*
X215640000Y-71120000D03*
%TD*%
D11*
%TO.C,D17*%
X84925900Y-58796400D03*
X84925900Y-55496400D03*
%TD*%
D10*
%TO.C,MX49*%
X125990000Y-92710000D03*
X139440000Y-90170000D03*
%TD*%
D11*
%TO.C,D51*%
X180169900Y-96894000D03*
X180169900Y-93594000D03*
%TD*%
%TO.C,D52*%
X199218700Y-96894000D03*
X199218700Y-93594000D03*
%TD*%
%TO.C,D75*%
X179376200Y-134991600D03*
X179376200Y-131691600D03*
%TD*%
D10*
%TO.C,MX62*%
X106940000Y-111760000D03*
X120390000Y-109220000D03*
%TD*%
D11*
%TO.C,D70*%
X298431200Y-112768000D03*
X298431200Y-109468000D03*
%TD*%
%TO.C,D54*%
X237316300Y-96894000D03*
X237316300Y-93594000D03*
%TD*%
D10*
%TO.C,MX47*%
X87890000Y-92710000D03*
X101340000Y-90170000D03*
%TD*%
D11*
%TO.C,D2*%
X84925900Y-39016500D03*
X84925900Y-35716500D03*
%TD*%
D10*
%TO.C,MX14*%
X297440000Y-35560000D03*
X310890000Y-33020000D03*
%TD*%
D11*
%TO.C,D60*%
X84925900Y-115942800D03*
X84925900Y-112642800D03*
%TD*%
D10*
%TO.C,MX56*%
X259340000Y-92710000D03*
X272790000Y-90170000D03*
%TD*%
%TO.C,MX25*%
X221240000Y-54610000D03*
X234690000Y-52070000D03*
%TD*%
%TO.C,MX21*%
X145040000Y-54610000D03*
X158490000Y-52070000D03*
%TD*%
%TO.C,MX31*%
X68840000Y-73660000D03*
X82290000Y-71120000D03*
%TD*%
%TO.C,MX1*%
X49790000Y-35560000D03*
X63240000Y-33020000D03*
%TD*%
D11*
%TO.C,D7*%
X180169900Y-39016500D03*
X180169900Y-35716500D03*
%TD*%
D10*
%TO.C,MX37*%
X183140000Y-73660000D03*
X196590000Y-71120000D03*
%TD*%
%TO.C,MX52*%
X183140000Y-92710000D03*
X196590000Y-90170000D03*
%TD*%
%TO.C,MX68*%
X221240000Y-111760000D03*
X234690000Y-109220000D03*
%TD*%
%TO.C,MX2*%
X68840000Y-35560000D03*
X82290000Y-33020000D03*
%TD*%
D11*
%TO.C,D30*%
X62702300Y-77845200D03*
X62702300Y-74545200D03*
%TD*%
%TO.C,D77*%
X265889500Y-134991600D03*
X265889500Y-131691600D03*
%TD*%
%TO.C,D27*%
X275413900Y-58796400D03*
X275413900Y-55496400D03*
%TD*%
%TO.C,D13*%
X294462700Y-38953900D03*
X294462700Y-35653900D03*
%TD*%
%TO.C,D8*%
X199218700Y-39016500D03*
X199218700Y-35716500D03*
%TD*%
%TO.C,D11*%
X256365100Y-38953900D03*
X256365100Y-35653900D03*
%TD*%
D10*
%TO.C,MX9*%
X202190000Y-35560000D03*
X215640000Y-33020000D03*
%TD*%
D11*
%TO.C,D76*%
X246840700Y-134991600D03*
X246840700Y-131691600D03*
%TD*%
%TO.C,D59*%
X60321200Y-112768000D03*
X60321200Y-109468000D03*
%TD*%
%TO.C,D63*%
X142072300Y-115942800D03*
X142072300Y-112642800D03*
%TD*%
M02*
