%TF.GenerationSoftware,KiCad,Pcbnew,10.0.4*%
%TF.CreationDate,2026-08-18T21:53:51-04:00*%
%TF.ProjectId,Keyboard,4b657962-6f61-4726-942e-6b696361645f,rev?*%
%TF.SameCoordinates,Original*%
%TF.FileFunction,Copper,L2,Bot*%
%TF.FilePolarity,Positive*%
%FSLAX46Y46*%
G04 Gerber Fmt 4.6, Leading zero omitted, Abs format (unit mm)*
G04 Created by KiCad (PCBNEW 10.0.4) date 2026-08-18 21:53:51*
%MOMM*%
%LPD*%
G01*
G04 APERTURE LIST*
G04 Aperture macros list*
%AMRoundRect*
0 Rectangle with rounded corners*
0 $1 Rounding radius*
0 $2 $3 $4 $5 $6 $7 $8 $9 X,Y pos of 4 corners*
0 Add a 4 corners polygon primitive as box body*
4,1,4,$2,$3,$4,$5,$6,$7,$8,$9,$2,$3,0*
0 Add four circle primitives for the rounded corners*
1,1,$1+$1,$2,$3*
1,1,$1+$1,$4,$5*
1,1,$1+$1,$6,$7*
1,1,$1+$1,$8,$9*
0 Add four rect primitives between the rounded corners*
20,1,$1+$1,$2,$3,$4,$5,0*
20,1,$1+$1,$4,$5,$6,$7,0*
20,1,$1+$1,$6,$7,$8,$9,0*
20,1,$1+$1,$8,$9,$2,$3,0*%
%AMFreePoly0*
4,1,37,0.603843,0.796157,0.639018,0.796157,0.711114,0.766294,0.766294,0.711114,0.796157,0.639018,0.796157,0.603843,0.800000,0.600000,0.800000,-0.600000,0.796157,-0.603843,0.796157,-0.639018,0.766294,-0.711114,0.711114,-0.766294,0.639018,-0.796157,0.603843,-0.796157,0.600000,-0.800000,0.000000,-0.800000,0.000000,-0.796148,-0.078414,-0.796148,-0.232228,-0.765552,-0.377117,-0.705537,
-0.507515,-0.618408,-0.618408,-0.507515,-0.705537,-0.377117,-0.765552,-0.232228,-0.796148,-0.078414,-0.796148,0.078414,-0.765552,0.232228,-0.705537,0.377117,-0.618408,0.507515,-0.507515,0.618408,-0.377117,0.705537,-0.232228,0.765552,-0.078414,0.796148,0.000000,0.796148,0.000000,0.800000,0.600000,0.800000,0.603843,0.796157,0.603843,0.796157,$1*%
%AMFreePoly1*
4,1,37,0.000000,0.796148,0.078414,0.796148,0.232228,0.765552,0.377117,0.705537,0.507515,0.618408,0.618408,0.507515,0.705537,0.377117,0.765552,0.232228,0.796148,0.078414,0.796148,-0.078414,0.765552,-0.232228,0.705537,-0.377117,0.618408,-0.507515,0.507515,-0.618408,0.377117,-0.705537,0.232228,-0.765552,0.078414,-0.796148,0.000000,-0.796148,0.000000,-0.800000,-0.600000,-0.800000,
-0.603843,-0.796157,-0.639018,-0.796157,-0.711114,-0.766294,-0.766294,-0.711114,-0.796157,-0.639018,-0.796157,-0.603843,-0.800000,-0.600000,-0.800000,0.600000,-0.796157,0.603843,-0.796157,0.639018,-0.766294,0.711114,-0.711114,0.766294,-0.639018,0.796157,-0.603843,0.796157,-0.600000,0.800000,0.000000,0.800000,0.000000,0.796148,0.000000,0.796148,$1*%
G04 Aperture macros list end*
%TA.AperFunction,ComponentPad*%
%ADD10C,4.000000*%
%TD*%
%TA.AperFunction,ComponentPad*%
%ADD11RoundRect,0.200000X-0.600000X-0.600000X0.600000X-0.600000X0.600000X0.600000X-0.600000X0.600000X0*%
%TD*%
%TA.AperFunction,ComponentPad*%
%ADD12C,1.600000*%
%TD*%
%TA.AperFunction,ComponentPad*%
%ADD13FreePoly0,0.000000*%
%TD*%
%TA.AperFunction,ComponentPad*%
%ADD14FreePoly1,0.000000*%
%TD*%
%TA.AperFunction,ComponentPad*%
%ADD15C,3.300000*%
%TD*%
%TA.AperFunction,SMDPad,CuDef*%
%ADD16R,1.650000X2.500000*%
%TD*%
%TA.AperFunction,SMDPad,CuDef*%
%ADD17RoundRect,0.250000X1.025000X1.000000X-1.025000X1.000000X-1.025000X-1.000000X1.025000X-1.000000X0*%
%TD*%
%TA.AperFunction,SMDPad,CuDef*%
%ADD18RoundRect,0.225000X0.375000X-0.225000X0.375000X0.225000X-0.375000X0.225000X-0.375000X-0.225000X0*%
%TD*%
%TA.AperFunction,SMDPad,CuDef*%
%ADD19RoundRect,0.225000X0.225000X0.375000X-0.225000X0.375000X-0.225000X-0.375000X0.225000X-0.375000X0*%
%TD*%
%TA.AperFunction,ViaPad*%
%ADD20C,0.600000*%
%TD*%
%TA.AperFunction,Conductor*%
%ADD21C,0.200000*%
%TD*%
G04 APERTURE END LIST*
D10*
%TO.P,S3,*%
%TO.N,*%
X309562500Y-102235000D03*
X285750000Y-102235000D03*
%TD*%
%TO.P,S2,*%
%TO.N,*%
X326231250Y-64135000D03*
X302418750Y-64135000D03*
%TD*%
%TO.P,S1,*%
%TO.N,*%
X219075000Y-140335000D03*
X119062500Y-140335000D03*
%TD*%
D11*
%TO.P,A1,1,GPIO0_1*%
%TO.N,Row0*%
X355418300Y-29047900D03*
D12*
%TO.P,A1,2,GPIO1_2*%
%TO.N,Row1*%
X355418300Y-31587900D03*
D13*
%TO.P,A1,3,GND_3*%
%TO.N,Net-(A1-GND-Pad13)*%
X355418300Y-34127900D03*
D12*
%TO.P,A1,4,GPIO2_4*%
%TO.N,Row2*%
X355418300Y-36667900D03*
%TO.P,A1,5,GPIO3_5*%
%TO.N,Row3*%
X355418300Y-39207900D03*
%TO.P,A1,6,GPIO4_6*%
%TO.N,Row4*%
X355418300Y-41747900D03*
%TO.P,A1,7,GPIO5_7*%
%TO.N,Row5*%
X355418300Y-44287900D03*
D13*
%TO.P,A1,8,GND_8*%
%TO.N,Net-(A1-GND-Pad13)*%
X355418300Y-46827900D03*
D12*
%TO.P,A1,9,GPIO6_9*%
%TO.N,Col14*%
X355418300Y-49367900D03*
%TO.P,A1,10,GPIO7_10*%
%TO.N,Col13*%
X355418300Y-51907900D03*
%TO.P,A1,11,GPIO8_11*%
%TO.N,Col12*%
X355418300Y-54447900D03*
%TO.P,A1,12,GPIO9_12*%
%TO.N,Col11*%
X355418300Y-56987900D03*
D13*
%TO.P,A1,13,GND_13*%
%TO.N,Net-(A1-GND-Pad13)*%
X355418300Y-59527900D03*
D12*
%TO.P,A1,14,GPIO10_14*%
%TO.N,Col10*%
X355418300Y-62067900D03*
%TO.P,A1,15,GPIO11_15*%
%TO.N,Col9*%
X355418300Y-64607900D03*
%TO.P,A1,16,GPIO12_16*%
%TO.N,Col8*%
X355418300Y-67147900D03*
%TO.P,A1,17,GPIO13_17*%
%TO.N,Col7*%
X355418300Y-69687900D03*
D13*
%TO.P,A1,18,GND_18*%
%TO.N,Net-(A1-GND-Pad13)*%
X355418300Y-72227900D03*
D12*
%TO.P,A1,19,GPIO14_19*%
%TO.N,Col6*%
X355418300Y-74767900D03*
%TO.P,A1,20,GPIO15_20*%
%TO.N,Col5*%
X355418300Y-77307900D03*
%TO.P,A1,21,GPIO16_21*%
%TO.N,unconnected-(A1-GPIO16-Pad21)*%
X373198300Y-77307900D03*
%TO.P,A1,22,GPIO17_22*%
%TO.N,unconnected-(A1-GPIO17-Pad22)*%
X373198300Y-74767900D03*
D14*
%TO.P,A1,23,GND_23*%
%TO.N,Net-(A1-GND-Pad13)*%
X373198300Y-72227900D03*
D12*
%TO.P,A1,24,GPIO18_24*%
%TO.N,Col4*%
X373198300Y-69687900D03*
%TO.P,A1,25,GPIO19_25*%
%TO.N,Col3*%
X373198300Y-67147900D03*
%TO.P,A1,26,GPIO20_26*%
%TO.N,Col2*%
X373198300Y-64607900D03*
%TO.P,A1,27,GPIO21_27*%
%TO.N,Col1*%
X373198300Y-62067900D03*
D14*
%TO.P,A1,28,GND_28*%
%TO.N,Net-(A1-GND-Pad13)*%
X373198300Y-59527900D03*
D12*
%TO.P,A1,29,GPIO22_29*%
%TO.N,Col0*%
X373198300Y-56987900D03*
%TO.P,A1,30,RUN_30*%
%TO.N,unconnected-(A1-RUN-Pad30)*%
X373198300Y-54447900D03*
%TO.P,A1,31,GPIO26_ADC0_31*%
%TO.N,unconnected-(A1-GPIO26_ADC0-Pad31)*%
X373198300Y-51907900D03*
%TO.P,A1,32,GPIO27_ADC1_32*%
%TO.N,unconnected-(A1-GPIO27_ADC1-Pad32)*%
X373198300Y-49367900D03*
D14*
%TO.P,A1,33,AGND_33*%
%TO.N,unconnected-(A1-AGND-Pad33)*%
X373198300Y-46827900D03*
D12*
%TO.P,A1,34,GPIO28_ADC2_34*%
%TO.N,unconnected-(A1-GPIO28_ADC2-Pad34)*%
X373198300Y-44287900D03*
%TO.P,A1,35,ADC_VREF_35*%
%TO.N,unconnected-(A1-ADC_VREF-Pad35)*%
X373198300Y-41747900D03*
%TO.P,A1,36,3V3_36*%
%TO.N,unconnected-(A1-3V3-Pad36)*%
X373198300Y-39207900D03*
%TO.P,A1,37,3V3_EN_37*%
%TO.N,unconnected-(A1-3V3_EN-Pad37)*%
X373198300Y-36667900D03*
D14*
%TO.P,A1,38,GND_38*%
%TO.N,Net-(A1-GND-Pad13)*%
X373198300Y-34127900D03*
D12*
%TO.P,A1,39,VSYS_39*%
%TO.N,unconnected-(A1-VSYS-Pad39)*%
X373198300Y-31587900D03*
%TO.P,A1,40,VBUS_40*%
%TO.N,unconnected-(A1-VBUS-Pad40)*%
X373198300Y-29047900D03*
%TD*%
D10*
%TO.P,S4,*%
%TO.N,*%
X290494200Y-121436100D03*
X266681700Y-121436100D03*
%TD*%
D15*
%TO.P,MX73,1,1_1*%
%TO.N,Col1*%
X70008750Y-130810000D03*
D16*
X68183750Y-130810000D03*
D17*
X66458750Y-130810000D03*
%TO.P,MX73,2,2_2*%
%TO.N,Net-(D73-A)*%
X79908750Y-128270000D03*
D16*
X78158750Y-128270000D03*
D15*
X76358750Y-128270000D03*
%TD*%
%TO.P,MX11,1,1_1*%
%TO.N,Col10*%
X243840000Y-35560000D03*
D16*
X242015000Y-35560000D03*
D17*
X240290000Y-35560000D03*
%TO.P,MX11,2,2_2*%
%TO.N,Net-(D11-A)*%
X253740000Y-33020000D03*
D16*
X251990000Y-33020000D03*
D15*
X250190000Y-33020000D03*
%TD*%
%TO.P,MX51,1,1_1*%
%TO.N,Col6*%
X167640000Y-92710000D03*
D16*
X165815000Y-92710000D03*
D17*
X164090000Y-92710000D03*
%TO.P,MX51,2,2_2*%
%TO.N,Net-(D51-A)*%
X177540000Y-90170000D03*
D16*
X175790000Y-90170000D03*
D15*
X173990000Y-90170000D03*
%TD*%
D18*
%TO.P,D6,1,K_1*%
%TO.N,Row0*%
X161121100Y-39016500D03*
%TO.P,D6,2,A_2*%
%TO.N,Net-(D6-A)*%
X161121100Y-35716500D03*
%TD*%
D15*
%TO.P,MX58,1,1_1*%
%TO.N,Col14*%
X329565000Y-92710000D03*
D16*
X327740000Y-92710000D03*
D17*
X326015000Y-92710000D03*
%TO.P,MX58,2,2_2*%
%TO.N,Net-(D58-A)*%
X339465000Y-90170000D03*
D16*
X337715000Y-90170000D03*
D15*
X335915000Y-90170000D03*
%TD*%
%TO.P,MX61,1,1_1*%
%TO.N,Col2*%
X91440000Y-111760000D03*
D16*
X89615000Y-111760000D03*
D17*
X87890000Y-111760000D03*
%TO.P,MX61,2,2_2*%
%TO.N,Net-(D61-A)*%
X101340000Y-109220000D03*
D16*
X99590000Y-109220000D03*
D15*
X97790000Y-109220000D03*
%TD*%
D18*
%TO.P,D1,1,K_1*%
%TO.N,Row0*%
X65877100Y-39016500D03*
%TO.P,D1,2,A_2*%
%TO.N,Net-(D1-A)*%
X65877100Y-35716500D03*
%TD*%
D15*
%TO.P,MX77,1,1_1*%
%TO.N,Col10*%
X253365000Y-130810000D03*
D16*
X251540000Y-130810000D03*
D17*
X249815000Y-130810000D03*
%TO.P,MX77,2,2_2*%
%TO.N,Net-(D77-A)*%
X263265000Y-128270000D03*
D16*
X261515000Y-128270000D03*
D15*
X259715000Y-128270000D03*
%TD*%
D18*
%TO.P,D35,1,K_1*%
%TO.N,Row2*%
X161121100Y-77845200D03*
%TO.P,D35,2,A_2*%
%TO.N,Net-(D35-A)*%
X161121100Y-74545200D03*
%TD*%
%TO.P,D45,1,K_1*%
%TO.N,Row3*%
X60321200Y-93719200D03*
%TO.P,D45,2,A_2*%
%TO.N,Net-(D45-A)*%
X60321200Y-90419200D03*
%TD*%
D15*
%TO.P,MX44,1,1_1*%
%TO.N,Col14*%
X329544000Y-73655200D03*
D16*
X327719000Y-73655200D03*
D17*
X325994000Y-73655200D03*
%TO.P,MX44,2,2_2*%
%TO.N,Net-(D44-A)*%
X339444000Y-71115200D03*
D16*
X337694000Y-71115200D03*
D15*
X335894000Y-71115200D03*
%TD*%
%TO.P,MX15,1,1_1*%
%TO.N,Col14*%
X320040000Y-35560000D03*
D16*
X318215000Y-35560000D03*
D17*
X316490000Y-35560000D03*
%TO.P,MX15,2,2_2*%
%TO.N,Net-(D15-A)*%
X329940000Y-33020000D03*
D16*
X328190000Y-33020000D03*
D15*
X326390000Y-33020000D03*
%TD*%
D18*
%TO.P,D10,1,K_1*%
%TO.N,Row0*%
X237316300Y-38953900D03*
%TO.P,D10,2,A_2*%
%TO.N,Net-(D10-A)*%
X237316300Y-35653900D03*
%TD*%
D15*
%TO.P,MX60,1,1_1*%
%TO.N,Col1*%
X72390000Y-111760000D03*
D16*
X70565000Y-111760000D03*
D17*
X68840000Y-111760000D03*
%TO.P,MX60,2,2_2*%
%TO.N,Net-(D60-A)*%
X82290000Y-109220000D03*
D16*
X80540000Y-109220000D03*
D15*
X78740000Y-109220000D03*
%TD*%
D18*
%TO.P,D14,1,K_1*%
%TO.N,Row0*%
X313511500Y-38953900D03*
%TO.P,D14,2,A_2*%
%TO.N,Net-(D14-A)*%
X313511500Y-35653900D03*
%TD*%
D15*
%TO.P,MX16,1,1_1*%
%TO.N,Col0*%
X53340000Y-54610000D03*
D16*
X51515000Y-54610000D03*
D17*
X49790000Y-54610000D03*
%TO.P,MX16,2,2_2*%
%TO.N,Net-(D16-A)*%
X63240000Y-52070000D03*
D16*
X61490000Y-52070000D03*
D15*
X59690000Y-52070000D03*
%TD*%
%TO.P,MX57,1,1_1*%
%TO.N,Col13*%
X293846250Y-92710000D03*
D16*
X292021250Y-92710000D03*
D17*
X290296250Y-92710000D03*
%TO.P,MX57,2,2_2*%
%TO.N,Net-(D57-A)*%
X303746250Y-90170000D03*
D16*
X301996250Y-90170000D03*
D15*
X300196250Y-90170000D03*
%TD*%
%TO.P,MX81,1,1_1*%
%TO.N,Col14*%
X329565000Y-130810000D03*
D16*
X327740000Y-130810000D03*
D17*
X326015000Y-130810000D03*
%TO.P,MX81,2,2_2*%
%TO.N,Net-(D81-A)*%
X339465000Y-128270000D03*
D16*
X337715000Y-128270000D03*
D15*
X335915000Y-128270000D03*
%TD*%
D18*
%TO.P,D65,1,K_1*%
%TO.N,Row4*%
X180169900Y-115942800D03*
%TO.P,D65,2,A_2*%
%TO.N,Net-(D65-A)*%
X180169900Y-112642800D03*
%TD*%
D15*
%TO.P,MX74,1,1_1*%
%TO.N,Col3*%
X93821250Y-130810000D03*
D16*
X91996250Y-130810000D03*
D17*
X90271250Y-130810000D03*
%TO.P,MX74,2,2_2*%
%TO.N,Net-(D74-A)*%
X103721250Y-128270000D03*
D16*
X101971250Y-128270000D03*
D15*
X100171250Y-128270000D03*
%TD*%
D18*
%TO.P,D66,1,K_1*%
%TO.N,Row4*%
X199218700Y-115942800D03*
%TO.P,D66,2,A_2*%
%TO.N,Net-(D66-A)*%
X199218700Y-112642800D03*
%TD*%
%TO.P,D61,1,K_1*%
%TO.N,Row4*%
X103974700Y-115942800D03*
%TO.P,D61,2,A_2*%
%TO.N,Net-(D61-A)*%
X103974700Y-112642800D03*
%TD*%
%TO.P,D78,1,K_1*%
%TO.N,Row5*%
X284938300Y-134991600D03*
%TO.P,D78,2,A_2*%
%TO.N,Net-(D78-A)*%
X284938300Y-131691600D03*
%TD*%
%TO.P,D42,1,K_1*%
%TO.N,Row2*%
X296050100Y-77845200D03*
%TO.P,D42,2,A_2*%
%TO.N,Net-(D42-A)*%
X296050100Y-74545200D03*
%TD*%
%TO.P,D32,1,K_1*%
%TO.N,Row2*%
X103974700Y-77845200D03*
%TO.P,D32,2,A_2*%
%TO.N,Net-(D32-A)*%
X103974700Y-74545200D03*
%TD*%
D15*
%TO.P,MX45,1,1_1*%
%TO.N,Col0*%
X46196250Y-92710000D03*
D16*
X44371250Y-92710000D03*
D17*
X42646250Y-92710000D03*
%TO.P,MX45,2,2_2*%
%TO.N,Net-(D45-A)*%
X56096250Y-90170000D03*
D16*
X54346250Y-90170000D03*
D15*
X52546250Y-90170000D03*
%TD*%
D18*
%TO.P,D26,1,K_1*%
%TO.N,Row1*%
X256365100Y-58796400D03*
%TO.P,D26,2,A_2*%
%TO.N,Net-(D26-A)*%
X256365100Y-55496400D03*
%TD*%
%TO.P,D5,1,K_1*%
%TO.N,Row0*%
X142072300Y-38953900D03*
%TO.P,D5,2,A_2*%
%TO.N,Net-(D5-A)*%
X142072300Y-35653900D03*
%TD*%
%TO.P,D16,1,K_1*%
%TO.N,Row1*%
X65877100Y-58796400D03*
%TO.P,D16,2,A_2*%
%TO.N,Net-(D16-A)*%
X65877100Y-55496400D03*
%TD*%
D15*
%TO.P,MX13,1,1_1*%
%TO.N,Col12*%
X281940000Y-35560000D03*
D16*
X280115000Y-35560000D03*
D17*
X278390000Y-35560000D03*
%TO.P,MX13,2,2_2*%
%TO.N,Net-(D13-A)*%
X291840000Y-33020000D03*
D16*
X290090000Y-33020000D03*
D15*
X288290000Y-33020000D03*
%TD*%
D18*
%TO.P,D3,1,K_1*%
%TO.N,Row0*%
X103974700Y-38953900D03*
%TO.P,D3,2,A_2*%
%TO.N,Net-(D3-A)*%
X103974700Y-35653900D03*
%TD*%
%TO.P,D33,1,K_1*%
%TO.N,Row2*%
X123023500Y-77845200D03*
%TO.P,D33,2,A_2*%
%TO.N,Net-(D33-A)*%
X123023500Y-74545200D03*
%TD*%
D15*
%TO.P,MX54,1,1_1*%
%TO.N,Col9*%
X224790000Y-92710000D03*
D16*
X222965000Y-92710000D03*
D17*
X221240000Y-92710000D03*
%TO.P,MX54,2,2_2*%
%TO.N,Net-(D54-A)*%
X234690000Y-90170000D03*
D16*
X232940000Y-90170000D03*
D15*
X231140000Y-90170000D03*
%TD*%
%TO.P,MX6,1,1_1*%
%TO.N,Col5*%
X148590000Y-35560000D03*
D16*
X146765000Y-35560000D03*
D17*
X145040000Y-35560000D03*
%TO.P,MX6,2,2_2*%
%TO.N,Net-(D6-A)*%
X158490000Y-33020000D03*
D16*
X156740000Y-33020000D03*
D15*
X154940000Y-33020000D03*
%TD*%
D18*
%TO.P,D79,1,K_1*%
%TO.N,Row5*%
X303987100Y-134991600D03*
%TO.P,D79,2,A_2*%
%TO.N,Net-(D79-A)*%
X303987100Y-131691600D03*
%TD*%
D15*
%TO.P,MX48,1,1_1*%
%TO.N,Col3*%
X110490000Y-92710000D03*
D16*
X108665000Y-92710000D03*
D17*
X106940000Y-92710000D03*
%TO.P,MX48,2,2_2*%
%TO.N,Net-(D48-A)*%
X120390000Y-90170000D03*
D16*
X118640000Y-90170000D03*
D15*
X116840000Y-90170000D03*
%TD*%
%TO.P,MX65,1,1_1*%
%TO.N,Col6*%
X167640000Y-111760000D03*
D16*
X165815000Y-111760000D03*
D17*
X164090000Y-111760000D03*
%TO.P,MX65,2,2_2*%
%TO.N,Net-(D65-A)*%
X177540000Y-109220000D03*
D16*
X175790000Y-109220000D03*
D15*
X173990000Y-109220000D03*
%TD*%
D18*
%TO.P,D24,1,K_1*%
%TO.N,Row1*%
X218267500Y-58796400D03*
%TO.P,D24,2,A_2*%
%TO.N,Net-(D24-A)*%
X218267500Y-55496400D03*
%TD*%
D15*
%TO.P,MX69,1,1_1*%
%TO.N,Col10*%
X243840000Y-111760000D03*
D16*
X242015000Y-111760000D03*
D17*
X240290000Y-111760000D03*
%TO.P,MX69,2,2_2*%
%TO.N,Net-(D69-A)*%
X253740000Y-109220000D03*
D16*
X251990000Y-109220000D03*
D15*
X250190000Y-109220000D03*
%TD*%
%TO.P,MX66,1,1_1*%
%TO.N,Col7*%
X186690000Y-111760000D03*
D16*
X184865000Y-111760000D03*
D17*
X183140000Y-111760000D03*
%TO.P,MX66,2,2_2*%
%TO.N,Net-(D66-A)*%
X196590000Y-109220000D03*
D16*
X194840000Y-109220000D03*
D15*
X193040000Y-109220000D03*
%TD*%
D18*
%TO.P,D25,1,K_1*%
%TO.N,Row1*%
X237316300Y-58859000D03*
%TO.P,D25,2,A_2*%
%TO.N,Net-(D25-A)*%
X237316300Y-55559000D03*
%TD*%
D15*
%TO.P,MX28,1,1_1*%
%TO.N,Col12*%
X281940000Y-54610000D03*
D16*
X280115000Y-54610000D03*
D17*
X278390000Y-54610000D03*
%TO.P,MX28,2,2_2*%
%TO.N,Net-(D28-A)*%
X291840000Y-52070000D03*
D16*
X290090000Y-52070000D03*
D15*
X288290000Y-52070000D03*
%TD*%
D18*
%TO.P,D20,1,K_1*%
%TO.N,Row1*%
X142072300Y-58796400D03*
%TO.P,D20,2,A_2*%
%TO.N,Net-(D20-A)*%
X142072300Y-55496400D03*
%TD*%
D15*
%TO.P,MX10,1,1_1*%
%TO.N,Col9*%
X224790000Y-35560000D03*
D16*
X222965000Y-35560000D03*
D17*
X221240000Y-35560000D03*
%TO.P,MX10,2,2_2*%
%TO.N,Net-(D10-A)*%
X234690000Y-33020000D03*
D16*
X232940000Y-33020000D03*
D15*
X231140000Y-33020000D03*
%TD*%
%TO.P,MX22,1,1_1*%
%TO.N,Col6*%
X167640000Y-54610000D03*
D16*
X165815000Y-54610000D03*
D17*
X164090000Y-54610000D03*
%TO.P,MX22,2,2_2*%
%TO.N,Net-(D22-A)*%
X177540000Y-52070000D03*
D16*
X175790000Y-52070000D03*
D15*
X173990000Y-52070000D03*
%TD*%
D18*
%TO.P,D68,1,K_1*%
%TO.N,Row4*%
X237316300Y-115942800D03*
%TO.P,D68,2,A_2*%
%TO.N,Net-(D68-A)*%
X237316300Y-112642800D03*
%TD*%
D15*
%TO.P,MX23,1,1_1*%
%TO.N,Col7*%
X186690000Y-54610000D03*
D16*
X184865000Y-54610000D03*
D17*
X183140000Y-54610000D03*
%TO.P,MX23,2,2_2*%
%TO.N,Net-(D23-A)*%
X196590000Y-52070000D03*
D16*
X194840000Y-52070000D03*
D15*
X193040000Y-52070000D03*
%TD*%
%TO.P,MX79,1,1_1*%
%TO.N,Col12*%
X291465000Y-130810000D03*
D16*
X289640000Y-130810000D03*
D17*
X287915000Y-130810000D03*
%TO.P,MX79,2,2_2*%
%TO.N,Net-(D79-A)*%
X301365000Y-128270000D03*
D16*
X299615000Y-128270000D03*
D15*
X297815000Y-128270000D03*
%TD*%
D18*
%TO.P,D57,1,K_1*%
%TO.N,Row3*%
X316686300Y-93719200D03*
%TO.P,D57,2,A_2*%
%TO.N,Net-(D57-A)*%
X316686300Y-90419200D03*
%TD*%
D15*
%TO.P,MX41,1,1_1*%
%TO.N,Col11*%
X262890000Y-73660000D03*
D16*
X261065000Y-73660000D03*
D17*
X259340000Y-73660000D03*
%TO.P,MX41,2,2_2*%
%TO.N,Net-(D41-A)*%
X272790000Y-71120000D03*
D16*
X271040000Y-71120000D03*
D15*
X269240000Y-71120000D03*
%TD*%
D18*
%TO.P,D37,1,K_1*%
%TO.N,Row2*%
X199218700Y-77845200D03*
%TO.P,D37,2,A_2*%
%TO.N,Net-(D37-A)*%
X199218700Y-74545200D03*
%TD*%
D15*
%TO.P,MX46,1,1_1*%
%TO.N,Col1*%
X72390000Y-92710000D03*
D16*
X70565000Y-92710000D03*
D17*
X68840000Y-92710000D03*
%TO.P,MX46,2,2_2*%
%TO.N,Net-(D46-A)*%
X82290000Y-90170000D03*
D16*
X80540000Y-90170000D03*
D15*
X78740000Y-90170000D03*
%TD*%
D18*
%TO.P,D38,1,K_1*%
%TO.N,Row2*%
X218267500Y-77845200D03*
%TO.P,D38,2,A_2*%
%TO.N,Net-(D38-A)*%
X218267500Y-74545200D03*
%TD*%
%TO.P,D15,1,K_1*%
%TO.N,Row0*%
X334147700Y-39016500D03*
%TO.P,D15,2,A_2*%
%TO.N,Net-(D15-A)*%
X334147700Y-35716500D03*
%TD*%
%TO.P,D12,1,K_1*%
%TO.N,Row0*%
X275413900Y-39016500D03*
%TO.P,D12,2,A_2*%
%TO.N,Net-(D12-A)*%
X275413900Y-35716500D03*
%TD*%
D15*
%TO.P,MX76,1,1_1*%
%TO.N,Col9*%
X234315000Y-130810000D03*
D16*
X232490000Y-130810000D03*
D17*
X230765000Y-130810000D03*
%TO.P,MX76,2,2_2*%
%TO.N,Net-(D76-A)*%
X244215000Y-128270000D03*
D16*
X242465000Y-128270000D03*
D15*
X240665000Y-128270000D03*
%TD*%
%TO.P,MX18,1,1_1*%
%TO.N,Col2*%
X91440000Y-54610000D03*
D16*
X89615000Y-54610000D03*
D17*
X87890000Y-54610000D03*
%TO.P,MX18,2,2_2*%
%TO.N,Net-(D18-A)*%
X101340000Y-52070000D03*
D16*
X99590000Y-52070000D03*
D15*
X97790000Y-52070000D03*
%TD*%
%TO.P,MX64,1,1_1*%
%TO.N,Col5*%
X148590000Y-111760000D03*
D16*
X146765000Y-111760000D03*
D17*
X145040000Y-111760000D03*
%TO.P,MX64,2,2_2*%
%TO.N,Net-(D64-A)*%
X158490000Y-109220000D03*
D16*
X156740000Y-109220000D03*
D15*
X154940000Y-109220000D03*
%TD*%
D18*
%TO.P,D34,1,K_1*%
%TO.N,Row2*%
X142072300Y-77845200D03*
%TO.P,D34,2,A_2*%
%TO.N,Net-(D34-A)*%
X142072300Y-74545200D03*
%TD*%
D15*
%TO.P,MX36,1,1_1*%
%TO.N,Col6*%
X167640000Y-73660000D03*
D16*
X165815000Y-73660000D03*
D17*
X164090000Y-73660000D03*
%TO.P,MX36,2,2_2*%
%TO.N,Net-(D36-A)*%
X177540000Y-71120000D03*
D16*
X175790000Y-71120000D03*
D15*
X173990000Y-71120000D03*
%TD*%
D18*
%TO.P,D67,1,K_1*%
%TO.N,Row4*%
X218267500Y-115942800D03*
%TO.P,D67,2,A_2*%
%TO.N,Net-(D67-A)*%
X218267500Y-112642800D03*
%TD*%
%TO.P,D48,1,K_1*%
%TO.N,Row3*%
X123023500Y-96894000D03*
%TO.P,D48,2,A_2*%
%TO.N,Net-(D48-A)*%
X123023500Y-93594000D03*
%TD*%
D15*
%TO.P,MX75,1,1_1*%
%TO.N,Col6*%
X165258750Y-130810000D03*
D16*
X163433750Y-130810000D03*
D17*
X161708750Y-130810000D03*
%TO.P,MX75,2,2_2*%
%TO.N,Net-(D75-A)*%
X175158750Y-128270000D03*
D16*
X173408750Y-128270000D03*
D15*
X171608750Y-128270000D03*
%TD*%
%TO.P,MX24,1,1_1*%
%TO.N,Col8*%
X205740000Y-54610000D03*
D16*
X203915000Y-54610000D03*
D17*
X202190000Y-54610000D03*
%TO.P,MX24,2,2_2*%
%TO.N,Net-(D24-A)*%
X215640000Y-52070000D03*
D16*
X213890000Y-52070000D03*
D15*
X212090000Y-52070000D03*
%TD*%
D18*
%TO.P,D50,1,K_1*%
%TO.N,Row3*%
X161121100Y-96894000D03*
%TO.P,D50,2,A_2*%
%TO.N,Net-(D50-A)*%
X161121100Y-93594000D03*
%TD*%
D15*
%TO.P,MX71,1,1_1*%
%TO.N,Col13*%
X310515000Y-111760000D03*
D16*
X308690000Y-111760000D03*
D17*
X306965000Y-111760000D03*
%TO.P,MX71,2,2_2*%
%TO.N,Net-(D71-A)*%
X320415000Y-109220000D03*
D16*
X318665000Y-109220000D03*
D15*
X316865000Y-109220000D03*
%TD*%
D18*
%TO.P,D73,1,K_1*%
%TO.N,Row5*%
X84132200Y-134197900D03*
%TO.P,D73,2,A_2*%
%TO.N,Net-(D73-A)*%
X84132200Y-130897900D03*
%TD*%
%TO.P,D55,1,K_1*%
%TO.N,Row3*%
X256365100Y-96894000D03*
%TO.P,D55,2,A_2*%
%TO.N,Net-(D55-A)*%
X256365100Y-93594000D03*
%TD*%
%TO.P,D40,1,K_1*%
%TO.N,Row2*%
X256365100Y-77845200D03*
%TO.P,D40,2,A_2*%
%TO.N,Net-(D40-A)*%
X256365100Y-74545200D03*
%TD*%
D15*
%TO.P,MX27,1,1_1*%
%TO.N,Col11*%
X262890000Y-54610000D03*
D16*
X261065000Y-54610000D03*
D17*
X259340000Y-54610000D03*
%TO.P,MX27,2,2_2*%
%TO.N,Net-(D27-A)*%
X272790000Y-52070000D03*
D16*
X271040000Y-52070000D03*
D15*
X269240000Y-52070000D03*
%TD*%
%TO.P,MX80,1,1_1*%
%TO.N,Col13*%
X310515000Y-130810000D03*
D16*
X308690000Y-130810000D03*
D17*
X306965000Y-130810000D03*
%TO.P,MX80,2,2_2*%
%TO.N,Net-(D80-A)*%
X320415000Y-128270000D03*
D16*
X318665000Y-128270000D03*
D15*
X316865000Y-128270000D03*
%TD*%
%TO.P,MX70,1,1_1*%
%TO.N,Col11*%
X274796250Y-111760000D03*
D16*
X272971250Y-111760000D03*
D17*
X271246250Y-111760000D03*
%TO.P,MX70,2,2_2*%
%TO.N,Net-(D70-A)*%
X284696250Y-109220000D03*
D16*
X282946250Y-109220000D03*
D15*
X281146250Y-109220000D03*
%TD*%
%TO.P,MX5,1,1_1*%
%TO.N,Col4*%
X129540000Y-35560000D03*
D16*
X127715000Y-35560000D03*
D17*
X125990000Y-35560000D03*
%TO.P,MX5,2,2_2*%
%TO.N,Net-(D5-A)*%
X139440000Y-33020000D03*
D16*
X137690000Y-33020000D03*
D15*
X135890000Y-33020000D03*
%TD*%
D18*
%TO.P,D18,1,K_1*%
%TO.N,Row1*%
X103974700Y-58859000D03*
%TO.P,D18,2,A_2*%
%TO.N,Net-(D18-A)*%
X103974700Y-55559000D03*
%TD*%
%TO.P,D41,1,K_1*%
%TO.N,Row2*%
X275413900Y-77845200D03*
%TO.P,D41,2,A_2*%
%TO.N,Net-(D41-A)*%
X275413900Y-74545200D03*
%TD*%
D15*
%TO.P,MX19,1,1_1*%
%TO.N,Col3*%
X110490000Y-54610000D03*
D16*
X108665000Y-54610000D03*
D17*
X106940000Y-54610000D03*
%TO.P,MX19,2,2_2*%
%TO.N,Net-(D19-A)*%
X120390000Y-52070000D03*
D16*
X118640000Y-52070000D03*
D15*
X116840000Y-52070000D03*
%TD*%
D18*
%TO.P,D21,1,K_1*%
%TO.N,Row1*%
X161121100Y-58796400D03*
%TO.P,D21,2,A_2*%
%TO.N,Net-(D21-A)*%
X161121100Y-55496400D03*
%TD*%
%TO.P,D23,1,K_1*%
%TO.N,Row1*%
X199218700Y-58796400D03*
%TO.P,D23,2,A_2*%
%TO.N,Net-(D23-A)*%
X199218700Y-55496400D03*
%TD*%
D15*
%TO.P,MX59,1,1_1*%
%TO.N,Col0*%
X46196250Y-111760000D03*
D16*
X44371250Y-111760000D03*
D17*
X42646250Y-111760000D03*
%TO.P,MX59,2,2_2*%
%TO.N,Net-(D59-A)*%
X56096250Y-109220000D03*
D16*
X54346250Y-109220000D03*
D15*
X52546250Y-109220000D03*
%TD*%
%TO.P,MX7,1,1_1*%
%TO.N,Col6*%
X167640000Y-35560000D03*
D16*
X165815000Y-35560000D03*
D17*
X164090000Y-35560000D03*
%TO.P,MX7,2,2_2*%
%TO.N,Net-(D7-A)*%
X177540000Y-33020000D03*
D16*
X175790000Y-33020000D03*
D15*
X173990000Y-33020000D03*
%TD*%
D18*
%TO.P,D72,1,K_1*%
%TO.N,Row5*%
X60321200Y-134991600D03*
%TO.P,D72,2,A_2*%
%TO.N,Net-(D72-A)*%
X60321200Y-131691600D03*
%TD*%
%TO.P,D4,1,K_1*%
%TO.N,Row0*%
X123023500Y-38953900D03*
%TO.P,D4,2,A_2*%
%TO.N,Net-(D4-A)*%
X123023500Y-35653900D03*
%TD*%
D15*
%TO.P,MX43,1,1_1*%
%TO.N,Col13*%
X305752500Y-73660000D03*
D16*
X303927500Y-73660000D03*
D17*
X302202500Y-73660000D03*
%TO.P,MX43,2,2_2*%
%TO.N,Net-(D43-A)*%
X315652500Y-71120000D03*
D16*
X313902500Y-71120000D03*
D15*
X312102500Y-71120000D03*
%TD*%
%TO.P,MX32,1,1_1*%
%TO.N,Col2*%
X91440000Y-73660000D03*
D16*
X89615000Y-73660000D03*
D17*
X87890000Y-73660000D03*
%TO.P,MX32,2,2_2*%
%TO.N,Net-(D32-A)*%
X101340000Y-71120000D03*
D16*
X99590000Y-71120000D03*
D15*
X97790000Y-71120000D03*
%TD*%
%TO.P,MX78,1,1_1*%
%TO.N,Col11*%
X272415000Y-130810000D03*
D16*
X270590000Y-130810000D03*
D17*
X268865000Y-130810000D03*
%TO.P,MX78,2,2_2*%
%TO.N,Net-(D78-A)*%
X282315000Y-128270000D03*
D16*
X280565000Y-128270000D03*
D15*
X278765000Y-128270000D03*
%TD*%
D18*
%TO.P,D36,1,K_1*%
%TO.N,Row2*%
X180169900Y-77845200D03*
%TO.P,D36,2,A_2*%
%TO.N,Net-(D36-A)*%
X180169900Y-74545200D03*
%TD*%
%TO.P,D64,1,K_1*%
%TO.N,Row4*%
X161121100Y-115942800D03*
%TO.P,D64,2,A_2*%
%TO.N,Net-(D64-A)*%
X161121100Y-112642800D03*
%TD*%
D15*
%TO.P,MX17,1,1_1*%
%TO.N,Col1*%
X72390000Y-54610000D03*
D16*
X70565000Y-54610000D03*
D17*
X68840000Y-54610000D03*
%TO.P,MX17,2,2_2*%
%TO.N,Net-(D17-A)*%
X82290000Y-52070000D03*
D16*
X80540000Y-52070000D03*
D15*
X78740000Y-52070000D03*
%TD*%
%TO.P,MX4,1,1_1*%
%TO.N,Col3*%
X110490000Y-35560000D03*
D16*
X108665000Y-35560000D03*
D17*
X106940000Y-35560000D03*
%TO.P,MX4,2,2_2*%
%TO.N,Net-(D4-A)*%
X120390000Y-33020000D03*
D16*
X118640000Y-33020000D03*
D15*
X116840000Y-33020000D03*
%TD*%
D18*
%TO.P,D31,1,K_1*%
%TO.N,Row2*%
X84925900Y-77845200D03*
%TO.P,D31,2,A_2*%
%TO.N,Net-(D31-A)*%
X84925900Y-74545200D03*
%TD*%
D19*
%TO.P,D58,1,K_1*%
%TO.N,Row3*%
X342941000Y-86513300D03*
%TO.P,D58,2,A_2*%
%TO.N,Net-(D58-A)*%
X339641000Y-86513300D03*
%TD*%
D15*
%TO.P,MX39,1,1_1*%
%TO.N,Col9*%
X224790000Y-73660000D03*
D16*
X222965000Y-73660000D03*
D17*
X221240000Y-73660000D03*
%TO.P,MX39,2,2_2*%
%TO.N,Net-(D39-A)*%
X234690000Y-71120000D03*
D16*
X232940000Y-71120000D03*
D15*
X231140000Y-71120000D03*
%TD*%
D18*
%TO.P,D80,1,K_1*%
%TO.N,Row5*%
X323035900Y-134991600D03*
%TO.P,D80,2,A_2*%
%TO.N,Net-(D80-A)*%
X323035900Y-131691600D03*
%TD*%
D15*
%TO.P,MX3,1,1_1*%
%TO.N,Col2*%
X91440000Y-35560000D03*
D16*
X89615000Y-35560000D03*
D17*
X87890000Y-35560000D03*
%TO.P,MX3,2,2_2*%
%TO.N,Net-(D3-A)*%
X101340000Y-33020000D03*
D16*
X99590000Y-33020000D03*
D15*
X97790000Y-33020000D03*
%TD*%
D18*
%TO.P,D49,1,K_1*%
%TO.N,Row3*%
X142072300Y-96894000D03*
%TO.P,D49,2,A_2*%
%TO.N,Net-(D49-A)*%
X142072300Y-93594000D03*
%TD*%
%TO.P,D9,1,K_1*%
%TO.N,Row0*%
X218267500Y-39016500D03*
%TO.P,D9,2,A_2*%
%TO.N,Net-(D9-A)*%
X218267500Y-35716500D03*
%TD*%
%TO.P,D56,1,K_1*%
%TO.N,Row3*%
X277001300Y-93719200D03*
%TO.P,D56,2,A_2*%
%TO.N,Net-(D56-A)*%
X277001300Y-90419200D03*
%TD*%
D15*
%TO.P,MX42,1,1_1*%
%TO.N,Col12*%
X281940000Y-73660000D03*
D16*
X280115000Y-73660000D03*
D17*
X278390000Y-73660000D03*
%TO.P,MX42,2,2_2*%
%TO.N,Net-(D42-A)*%
X291840000Y-71120000D03*
D16*
X290090000Y-71120000D03*
D15*
X288290000Y-71120000D03*
%TD*%
%TO.P,MX63,1,1_1*%
%TO.N,Col4*%
X129540000Y-111760000D03*
D16*
X127715000Y-111760000D03*
D17*
X125990000Y-111760000D03*
%TO.P,MX63,2,2_2*%
%TO.N,Net-(D63-A)*%
X139440000Y-109220000D03*
D16*
X137690000Y-109220000D03*
D15*
X135890000Y-109220000D03*
%TD*%
D18*
%TO.P,D69,1,K_1*%
%TO.N,Row4*%
X257952500Y-115942800D03*
%TO.P,D69,2,A_2*%
%TO.N,Net-(D69-A)*%
X257952500Y-112642800D03*
%TD*%
%TO.P,D74,1,K_1*%
%TO.N,Row5*%
X108736900Y-132610500D03*
%TO.P,D74,2,A_2*%
%TO.N,Net-(D74-A)*%
X108736900Y-129310500D03*
%TD*%
D15*
%TO.P,MX26,1,1_1*%
%TO.N,Col10*%
X243840000Y-54610000D03*
D16*
X242015000Y-54610000D03*
D17*
X240290000Y-54610000D03*
%TO.P,MX26,2,2_2*%
%TO.N,Net-(D26-A)*%
X253740000Y-52070000D03*
D16*
X251990000Y-52070000D03*
D15*
X250190000Y-52070000D03*
%TD*%
D18*
%TO.P,D22,1,K_1*%
%TO.N,Row1*%
X180169900Y-58796400D03*
%TO.P,D22,2,A_2*%
%TO.N,Net-(D22-A)*%
X180169900Y-55496400D03*
%TD*%
D15*
%TO.P,MX8,1,1_1*%
%TO.N,Col7*%
X186690000Y-35560000D03*
D16*
X184865000Y-35560000D03*
D17*
X183140000Y-35560000D03*
%TO.P,MX8,2,2_2*%
%TO.N,Net-(D8-A)*%
X196590000Y-33020000D03*
D16*
X194840000Y-33020000D03*
D15*
X193040000Y-33020000D03*
%TD*%
%TO.P,MX33,1,1_1*%
%TO.N,Col3*%
X110490000Y-73660000D03*
D16*
X108665000Y-73660000D03*
D17*
X106940000Y-73660000D03*
%TO.P,MX33,2,2_2*%
%TO.N,Net-(D33-A)*%
X120390000Y-71120000D03*
D16*
X118640000Y-71120000D03*
D15*
X116840000Y-71120000D03*
%TD*%
%TO.P,MX55,1,1_1*%
%TO.N,Col10*%
X243840000Y-92710000D03*
D16*
X242015000Y-92710000D03*
D17*
X240290000Y-92710000D03*
%TO.P,MX55,2,2_2*%
%TO.N,Net-(D55-A)*%
X253740000Y-90170000D03*
D16*
X251990000Y-90170000D03*
D15*
X250190000Y-90170000D03*
%TD*%
D19*
%TO.P,D44,1,K_1*%
%TO.N,Row2*%
X342147300Y-80957400D03*
%TO.P,D44,2,A_2*%
%TO.N,Net-(D44-A)*%
X338847300Y-80957400D03*
%TD*%
D15*
%TO.P,MX40,1,1_1*%
%TO.N,Col10*%
X243840000Y-73660000D03*
D16*
X242015000Y-73660000D03*
D17*
X240290000Y-73660000D03*
%TO.P,MX40,2,2_2*%
%TO.N,Net-(D40-A)*%
X253740000Y-71120000D03*
D16*
X251990000Y-71120000D03*
D15*
X250190000Y-71120000D03*
%TD*%
%TO.P,MX72,1,1_1*%
%TO.N,Col0*%
X46196250Y-130810000D03*
D16*
X44371250Y-130810000D03*
D17*
X42646250Y-130810000D03*
%TO.P,MX72,2,2_2*%
%TO.N,Net-(D72-A)*%
X56096250Y-128270000D03*
D16*
X54346250Y-128270000D03*
D15*
X52546250Y-128270000D03*
%TD*%
%TO.P,MX35,1,1_1*%
%TO.N,Col5*%
X148590000Y-73660000D03*
D16*
X146765000Y-73660000D03*
D17*
X145040000Y-73660000D03*
%TO.P,MX35,2,2_2*%
%TO.N,Net-(D35-A)*%
X158490000Y-71120000D03*
D16*
X156740000Y-71120000D03*
D15*
X154940000Y-71120000D03*
%TD*%
D18*
%TO.P,D19,1,K_1*%
%TO.N,Row1*%
X123023500Y-58796400D03*
%TO.P,D19,2,A_2*%
%TO.N,Net-(D19-A)*%
X123023500Y-55496400D03*
%TD*%
D15*
%TO.P,MX53,1,1_1*%
%TO.N,Col8*%
X205740000Y-92710000D03*
D16*
X203915000Y-92710000D03*
D17*
X202190000Y-92710000D03*
%TO.P,MX53,2,2_2*%
%TO.N,Net-(D53-A)*%
X215640000Y-90170000D03*
D16*
X213890000Y-90170000D03*
D15*
X212090000Y-90170000D03*
%TD*%
D18*
%TO.P,D28,1,K_1*%
%TO.N,Row1*%
X296050100Y-58796400D03*
%TO.P,D28,2,A_2*%
%TO.N,Net-(D28-A)*%
X296050100Y-55496400D03*
%TD*%
%TO.P,D53,1,K_1*%
%TO.N,Row3*%
X218267500Y-96894000D03*
%TO.P,D53,2,A_2*%
%TO.N,Net-(D53-A)*%
X218267500Y-93594000D03*
%TD*%
D15*
%TO.P,MX20,1,1_1*%
%TO.N,Col4*%
X129540000Y-54610000D03*
D16*
X127715000Y-54610000D03*
D17*
X125990000Y-54610000D03*
%TO.P,MX20,2,2_2*%
%TO.N,Net-(D20-A)*%
X139440000Y-52070000D03*
D16*
X137690000Y-52070000D03*
D15*
X135890000Y-52070000D03*
%TD*%
%TO.P,MX12,1,1_1*%
%TO.N,Col11*%
X262890000Y-35560000D03*
D16*
X261065000Y-35560000D03*
D17*
X259340000Y-35560000D03*
%TO.P,MX12,2,2_2*%
%TO.N,Net-(D12-A)*%
X272790000Y-33020000D03*
D16*
X271040000Y-33020000D03*
D15*
X269240000Y-33020000D03*
%TD*%
D18*
%TO.P,D71,1,K_1*%
%TO.N,Row4*%
X324623300Y-114355400D03*
%TO.P,D71,2,A_2*%
%TO.N,Net-(D71-A)*%
X324623300Y-111055400D03*
%TD*%
%TO.P,D81,1,K_1*%
%TO.N,Row5*%
X343672100Y-132610500D03*
%TO.P,D81,2,A_2*%
%TO.N,Net-(D81-A)*%
X343672100Y-129310500D03*
%TD*%
%TO.P,D62,1,K_1*%
%TO.N,Row4*%
X123023500Y-115942800D03*
%TO.P,D62,2,A_2*%
%TO.N,Net-(D62-A)*%
X123023500Y-112642800D03*
%TD*%
D15*
%TO.P,MX67,1,1_1*%
%TO.N,Col8*%
X205740000Y-111760000D03*
D16*
X203915000Y-111760000D03*
D17*
X202190000Y-111760000D03*
%TO.P,MX67,2,2_2*%
%TO.N,Net-(D67-A)*%
X215640000Y-109220000D03*
D16*
X213890000Y-109220000D03*
D15*
X212090000Y-109220000D03*
%TD*%
%TO.P,MX29,1,1_1*%
%TO.N,Col13*%
X310515000Y-54610000D03*
D16*
X308690000Y-54610000D03*
D17*
X306965000Y-54610000D03*
%TO.P,MX29,2,2_2*%
%TO.N,Net-(D29-A)*%
X320415000Y-52070000D03*
D16*
X318665000Y-52070000D03*
D15*
X316865000Y-52070000D03*
%TD*%
%TO.P,MX50,1,1_1*%
%TO.N,Col5*%
X148590000Y-92710000D03*
D16*
X146765000Y-92710000D03*
D17*
X145040000Y-92710000D03*
%TO.P,MX50,2,2_2*%
%TO.N,Net-(D50-A)*%
X158490000Y-90170000D03*
D16*
X156740000Y-90170000D03*
D15*
X154940000Y-90170000D03*
%TD*%
%TO.P,MX30,1,1_1*%
%TO.N,Col0*%
X48577500Y-73660000D03*
D16*
X46752500Y-73660000D03*
D17*
X45027500Y-73660000D03*
%TO.P,MX30,2,2_2*%
%TO.N,Net-(D30-A)*%
X58477500Y-71120000D03*
D16*
X56727500Y-71120000D03*
D15*
X54927500Y-71120000D03*
%TD*%
D18*
%TO.P,D46,1,K_1*%
%TO.N,Row3*%
X84925900Y-96894000D03*
%TO.P,D46,2,A_2*%
%TO.N,Net-(D46-A)*%
X84925900Y-93594000D03*
%TD*%
%TO.P,D43,1,K_1*%
%TO.N,Row2*%
X319861100Y-77845200D03*
%TO.P,D43,2,A_2*%
%TO.N,Net-(D43-A)*%
X319861100Y-74545200D03*
%TD*%
%TO.P,D39,1,K_1*%
%TO.N,Row2*%
X237316300Y-77845200D03*
%TO.P,D39,2,A_2*%
%TO.N,Net-(D39-A)*%
X237316300Y-74545200D03*
%TD*%
%TO.P,D29,1,K_1*%
%TO.N,Row1*%
X330972900Y-55621600D03*
%TO.P,D29,2,A_2*%
%TO.N,Net-(D29-A)*%
X330972900Y-52321600D03*
%TD*%
D15*
%TO.P,MX34,1,1_1*%
%TO.N,Col4*%
X129540000Y-73660000D03*
D16*
X127715000Y-73660000D03*
D17*
X125990000Y-73660000D03*
%TO.P,MX34,2,2_2*%
%TO.N,Net-(D34-A)*%
X139440000Y-71120000D03*
D16*
X137690000Y-71120000D03*
D15*
X135890000Y-71120000D03*
%TD*%
D18*
%TO.P,D47,1,K_1*%
%TO.N,Row3*%
X103974700Y-96894000D03*
%TO.P,D47,2,A_2*%
%TO.N,Net-(D47-A)*%
X103974700Y-93594000D03*
%TD*%
D15*
%TO.P,MX38,1,1_1*%
%TO.N,Col8*%
X205740000Y-73660000D03*
D16*
X203915000Y-73660000D03*
D17*
X202190000Y-73660000D03*
%TO.P,MX38,2,2_2*%
%TO.N,Net-(D38-A)*%
X215640000Y-71120000D03*
D16*
X213890000Y-71120000D03*
D15*
X212090000Y-71120000D03*
%TD*%
D18*
%TO.P,D17,1,K_1*%
%TO.N,Row1*%
X84925900Y-58796400D03*
%TO.P,D17,2,A_2*%
%TO.N,Net-(D17-A)*%
X84925900Y-55496400D03*
%TD*%
D15*
%TO.P,MX49,1,1_1*%
%TO.N,Col4*%
X129540000Y-92710000D03*
D16*
X127715000Y-92710000D03*
D17*
X125990000Y-92710000D03*
%TO.P,MX49,2,2_2*%
%TO.N,Net-(D49-A)*%
X139440000Y-90170000D03*
D16*
X137690000Y-90170000D03*
D15*
X135890000Y-90170000D03*
%TD*%
D18*
%TO.P,D51,1,K_1*%
%TO.N,Row3*%
X180169900Y-96894000D03*
%TO.P,D51,2,A_2*%
%TO.N,Net-(D51-A)*%
X180169900Y-93594000D03*
%TD*%
%TO.P,D52,1,K_1*%
%TO.N,Row3*%
X199218700Y-96894000D03*
%TO.P,D52,2,A_2*%
%TO.N,Net-(D52-A)*%
X199218700Y-93594000D03*
%TD*%
%TO.P,D75,1,K_1*%
%TO.N,Row5*%
X179376200Y-134991600D03*
%TO.P,D75,2,A_2*%
%TO.N,Net-(D75-A)*%
X179376200Y-131691600D03*
%TD*%
D15*
%TO.P,MX62,1,1_1*%
%TO.N,Col3*%
X110490000Y-111760000D03*
D16*
X108665000Y-111760000D03*
D17*
X106940000Y-111760000D03*
%TO.P,MX62,2,2_2*%
%TO.N,Net-(D62-A)*%
X120390000Y-109220000D03*
D16*
X118640000Y-109220000D03*
D15*
X116840000Y-109220000D03*
%TD*%
D18*
%TO.P,D70,1,K_1*%
%TO.N,Row4*%
X298431200Y-112768000D03*
%TO.P,D70,2,A_2*%
%TO.N,Net-(D70-A)*%
X298431200Y-109468000D03*
%TD*%
%TO.P,D54,1,K_1*%
%TO.N,Row3*%
X237316300Y-96894000D03*
%TO.P,D54,2,A_2*%
%TO.N,Net-(D54-A)*%
X237316300Y-93594000D03*
%TD*%
D15*
%TO.P,MX47,1,1_1*%
%TO.N,Col2*%
X91440000Y-92710000D03*
D16*
X89615000Y-92710000D03*
D17*
X87890000Y-92710000D03*
%TO.P,MX47,2,2_2*%
%TO.N,Net-(D47-A)*%
X101340000Y-90170000D03*
D16*
X99590000Y-90170000D03*
D15*
X97790000Y-90170000D03*
%TD*%
D18*
%TO.P,D2,1,K_1*%
%TO.N,Row0*%
X84925900Y-39016500D03*
%TO.P,D2,2,A_2*%
%TO.N,Net-(D2-A)*%
X84925900Y-35716500D03*
%TD*%
D15*
%TO.P,MX14,1,1_1*%
%TO.N,Col13*%
X300990000Y-35560000D03*
D16*
X299165000Y-35560000D03*
D17*
X297440000Y-35560000D03*
%TO.P,MX14,2,2_2*%
%TO.N,Net-(D14-A)*%
X310890000Y-33020000D03*
D16*
X309140000Y-33020000D03*
D15*
X307340000Y-33020000D03*
%TD*%
D18*
%TO.P,D60,1,K_1*%
%TO.N,Row4*%
X84925900Y-115942800D03*
%TO.P,D60,2,A_2*%
%TO.N,Net-(D60-A)*%
X84925900Y-112642800D03*
%TD*%
D15*
%TO.P,MX56,1,1_1*%
%TO.N,Col11*%
X262890000Y-92710000D03*
D16*
X261065000Y-92710000D03*
D17*
X259340000Y-92710000D03*
%TO.P,MX56,2,2_2*%
%TO.N,Net-(D56-A)*%
X272790000Y-90170000D03*
D16*
X271040000Y-90170000D03*
D15*
X269240000Y-90170000D03*
%TD*%
%TO.P,MX25,1,1_1*%
%TO.N,Col9*%
X224790000Y-54610000D03*
D16*
X222965000Y-54610000D03*
D17*
X221240000Y-54610000D03*
%TO.P,MX25,2,2_2*%
%TO.N,Net-(D25-A)*%
X234690000Y-52070000D03*
D16*
X232940000Y-52070000D03*
D15*
X231140000Y-52070000D03*
%TD*%
%TO.P,MX21,1,1_1*%
%TO.N,Col5*%
X148590000Y-54610000D03*
D16*
X146765000Y-54610000D03*
D17*
X145040000Y-54610000D03*
%TO.P,MX21,2,2_2*%
%TO.N,Net-(D21-A)*%
X158490000Y-52070000D03*
D16*
X156740000Y-52070000D03*
D15*
X154940000Y-52070000D03*
%TD*%
%TO.P,MX31,1,1_1*%
%TO.N,Col1*%
X72390000Y-73660000D03*
D16*
X70565000Y-73660000D03*
D17*
X68840000Y-73660000D03*
%TO.P,MX31,2,2_2*%
%TO.N,Net-(D31-A)*%
X82290000Y-71120000D03*
D16*
X80540000Y-71120000D03*
D15*
X78740000Y-71120000D03*
%TD*%
%TO.P,MX1,1,1_1*%
%TO.N,Col0*%
X53340000Y-35560000D03*
D16*
X51515000Y-35560000D03*
D17*
X49790000Y-35560000D03*
%TO.P,MX1,2,2_2*%
%TO.N,Net-(D1-A)*%
X63240000Y-33020000D03*
D16*
X61490000Y-33020000D03*
D15*
X59690000Y-33020000D03*
%TD*%
D18*
%TO.P,D7,1,K_1*%
%TO.N,Row0*%
X180169900Y-39016500D03*
%TO.P,D7,2,A_2*%
%TO.N,Net-(D7-A)*%
X180169900Y-35716500D03*
%TD*%
D15*
%TO.P,MX37,1,1_1*%
%TO.N,Col7*%
X186690000Y-73660000D03*
D16*
X184865000Y-73660000D03*
D17*
X183140000Y-73660000D03*
%TO.P,MX37,2,2_2*%
%TO.N,Net-(D37-A)*%
X196590000Y-71120000D03*
D16*
X194840000Y-71120000D03*
D15*
X193040000Y-71120000D03*
%TD*%
%TO.P,MX52,1,1_1*%
%TO.N,Col7*%
X186690000Y-92710000D03*
D16*
X184865000Y-92710000D03*
D17*
X183140000Y-92710000D03*
%TO.P,MX52,2,2_2*%
%TO.N,Net-(D52-A)*%
X196590000Y-90170000D03*
D16*
X194840000Y-90170000D03*
D15*
X193040000Y-90170000D03*
%TD*%
%TO.P,MX68,1,1_1*%
%TO.N,Col9*%
X224790000Y-111760000D03*
D16*
X222965000Y-111760000D03*
D17*
X221240000Y-111760000D03*
%TO.P,MX68,2,2_2*%
%TO.N,Net-(D68-A)*%
X234690000Y-109220000D03*
D16*
X232940000Y-109220000D03*
D15*
X231140000Y-109220000D03*
%TD*%
%TO.P,MX2,1,1_1*%
%TO.N,Col1*%
X72390000Y-35560000D03*
D16*
X70565000Y-35560000D03*
D17*
X68840000Y-35560000D03*
%TO.P,MX2,2,2_2*%
%TO.N,Net-(D2-A)*%
X82290000Y-33020000D03*
D16*
X80540000Y-33020000D03*
D15*
X78740000Y-33020000D03*
%TD*%
D18*
%TO.P,D30,1,K_1*%
%TO.N,Row2*%
X62702300Y-77845200D03*
%TO.P,D30,2,A_2*%
%TO.N,Net-(D30-A)*%
X62702300Y-74545200D03*
%TD*%
%TO.P,D77,1,K_1*%
%TO.N,Row5*%
X265889500Y-134991600D03*
%TO.P,D77,2,A_2*%
%TO.N,Net-(D77-A)*%
X265889500Y-131691600D03*
%TD*%
%TO.P,D27,1,K_1*%
%TO.N,Row1*%
X275413900Y-58796400D03*
%TO.P,D27,2,A_2*%
%TO.N,Net-(D27-A)*%
X275413900Y-55496400D03*
%TD*%
%TO.P,D13,1,K_1*%
%TO.N,Row0*%
X294462700Y-38953900D03*
%TO.P,D13,2,A_2*%
%TO.N,Net-(D13-A)*%
X294462700Y-35653900D03*
%TD*%
%TO.P,D8,1,K_1*%
%TO.N,Row0*%
X199218700Y-39016500D03*
%TO.P,D8,2,A_2*%
%TO.N,Net-(D8-A)*%
X199218700Y-35716500D03*
%TD*%
%TO.P,D11,1,K_1*%
%TO.N,Row0*%
X256365100Y-38953900D03*
%TO.P,D11,2,A_2*%
%TO.N,Net-(D11-A)*%
X256365100Y-35653900D03*
%TD*%
D15*
%TO.P,MX9,1,1_1*%
%TO.N,Col8*%
X205740000Y-35560000D03*
D16*
X203915000Y-35560000D03*
D17*
X202190000Y-35560000D03*
%TO.P,MX9,2,2_2*%
%TO.N,Net-(D9-A)*%
X215640000Y-33020000D03*
D16*
X213890000Y-33020000D03*
D15*
X212090000Y-33020000D03*
%TD*%
D18*
%TO.P,D76,1,K_1*%
%TO.N,Row5*%
X246840700Y-134991600D03*
%TO.P,D76,2,A_2*%
%TO.N,Net-(D76-A)*%
X246840700Y-131691600D03*
%TD*%
%TO.P,D59,1,K_1*%
%TO.N,Row4*%
X60321200Y-112768000D03*
%TO.P,D59,2,A_2*%
%TO.N,Net-(D59-A)*%
X60321200Y-109468000D03*
%TD*%
%TO.P,D63,1,K_1*%
%TO.N,Row4*%
X142072300Y-115942800D03*
%TO.P,D63,2,A_2*%
%TO.N,Net-(D63-A)*%
X142072300Y-112642800D03*
%TD*%
D20*
%TO.N,Col14*%
X325994000Y-73655200D03*
X326015000Y-92710000D03*
X316490000Y-35560000D03*
X326015000Y-130810000D03*
%TO.N,Col13*%
X306965000Y-130810000D03*
X306965000Y-54610000D03*
X302202500Y-73660000D03*
X290296250Y-92710000D03*
X297440000Y-35560000D03*
X306965000Y-111760000D03*
%TO.N,Col12*%
X278390000Y-73660000D03*
X278390000Y-54610000D03*
X287915000Y-130810000D03*
X278390000Y-35560000D03*
%TO.N,Col11*%
X259340000Y-35560000D03*
X259340000Y-54610000D03*
X259340000Y-73660000D03*
X259340000Y-92710000D03*
X271246250Y-111760000D03*
X268865000Y-130810000D03*
%TO.N,Col10*%
X249815000Y-130810000D03*
X240290000Y-54610000D03*
X240290000Y-73660000D03*
X240290000Y-92710000D03*
X240290000Y-35560000D03*
X240290000Y-111760000D03*
%TO.N,Col9*%
X230765000Y-130810000D03*
X221240000Y-73660000D03*
X221240000Y-111760000D03*
X221240000Y-35560000D03*
X221240000Y-54610000D03*
X221240000Y-92710000D03*
%TO.N,Col8*%
X202190000Y-73660000D03*
X202190000Y-111760000D03*
X202190000Y-54610000D03*
X202190000Y-92710000D03*
X202190000Y-35560000D03*
%TO.N,Col7*%
X183140000Y-92710000D03*
X183140000Y-35560000D03*
X183140000Y-73660000D03*
X183140000Y-54610000D03*
X183140000Y-111760000D03*
%TO.N,Col6*%
X161708750Y-130810000D03*
X164090000Y-92710000D03*
X164090000Y-54610000D03*
X164295900Y-35716500D03*
X164090000Y-73660000D03*
X164090000Y-111760000D03*
%TO.N,Col5*%
X145040000Y-54610000D03*
X145040000Y-73660000D03*
X145040000Y-92710000D03*
X145040000Y-111760000D03*
X145040000Y-35560000D03*
%TO.N,Col4*%
X125990000Y-54610000D03*
X125990000Y-73660000D03*
X125990000Y-35560000D03*
X125990000Y-111760000D03*
X125990000Y-92710000D03*
%TO.N,Col3*%
X106940000Y-92710000D03*
X106940000Y-73660000D03*
X106940000Y-54610000D03*
X90271250Y-130810000D03*
X106940000Y-111760000D03*
X106940000Y-35560000D03*
%TO.N,Col2*%
X87890000Y-73660000D03*
X87890000Y-92710000D03*
X87890000Y-54610000D03*
X87890000Y-35560000D03*
X87890000Y-111760000D03*
%TO.N,Col1*%
X68840000Y-54610000D03*
X68840000Y-111760000D03*
X68840000Y-73660000D03*
X68840000Y-35560000D03*
X66458750Y-130810000D03*
X68840000Y-92710000D03*
%TO.N,Col0*%
X42646250Y-111760000D03*
X45027500Y-73660000D03*
X49790000Y-54610000D03*
X49790000Y-35560000D03*
X42646250Y-130810000D03*
X42646250Y-92710000D03*
%TD*%
%TO.N,Row0*%
D21*
X84925900Y-39016500D02*
X83498500Y-40443900D01*
X254875100Y-40443900D02*
X238806300Y-40443900D01*
X103974700Y-38953900D02*
X102484700Y-40443900D01*
X200646100Y-40443900D02*
X199218700Y-39016500D01*
X313511500Y-38953900D02*
X312021500Y-40443900D01*
X181597300Y-40443900D02*
X180169900Y-39016500D01*
X180169900Y-39016500D02*
X178742500Y-40443900D01*
X275413900Y-39016500D02*
X273986500Y-40443900D01*
X199218700Y-39016500D02*
X197791300Y-40443900D01*
X102484700Y-40443900D02*
X86353300Y-40443900D01*
X334147700Y-39016500D02*
X332720300Y-40443900D01*
X292972700Y-40443900D02*
X276841300Y-40443900D01*
X335609900Y-39016500D02*
X334147700Y-39016500D01*
X161121100Y-39016500D02*
X159693700Y-40443900D01*
X332720300Y-40443900D02*
X315001500Y-40443900D01*
X67304500Y-40443900D02*
X65877100Y-39016500D01*
X121533500Y-40443900D02*
X105464700Y-40443900D01*
X197791300Y-40443900D02*
X181597300Y-40443900D01*
X295952700Y-40443900D02*
X294462700Y-38953900D01*
X142072300Y-38953900D02*
X140582300Y-40443900D01*
X162548500Y-40443900D02*
X161121100Y-39016500D01*
X294462700Y-38953900D02*
X292972700Y-40443900D01*
X219694900Y-40443900D02*
X218267500Y-39016500D01*
X345578500Y-29047900D02*
X335609900Y-39016500D01*
X256365100Y-38953900D02*
X254875100Y-40443900D01*
X86353300Y-40443900D02*
X84925900Y-39016500D01*
X143562300Y-40443900D02*
X142072300Y-38953900D01*
X216840100Y-40443900D02*
X200646100Y-40443900D01*
X312021500Y-40443900D02*
X295952700Y-40443900D01*
X159693700Y-40443900D02*
X143562300Y-40443900D01*
X124513500Y-40443900D02*
X123023500Y-38953900D01*
X355418300Y-29047900D02*
X345578500Y-29047900D01*
X218267500Y-39016500D02*
X216840100Y-40443900D01*
X105464700Y-40443900D02*
X103974700Y-38953900D01*
X237316300Y-38953900D02*
X235826300Y-40443900D01*
X273986500Y-40443900D02*
X257855100Y-40443900D01*
X276841300Y-40443900D02*
X275413900Y-39016500D01*
X238806300Y-40443900D02*
X237316300Y-38953900D01*
X257855100Y-40443900D02*
X256365100Y-38953900D01*
X140582300Y-40443900D02*
X124513500Y-40443900D01*
X83498500Y-40443900D02*
X67304500Y-40443900D01*
X235826300Y-40443900D02*
X219694900Y-40443900D01*
X315001500Y-40443900D02*
X313511500Y-38953900D01*
X123023500Y-38953900D02*
X121533500Y-40443900D01*
X178742500Y-40443900D02*
X162548500Y-40443900D01*
%TO.N,Row1*%
X335735100Y-39685000D02*
X336528800Y-39685000D01*
X256365100Y-58796400D02*
X257062600Y-59493900D01*
X335735100Y-50859400D02*
X335735100Y-39685000D01*
X123721000Y-59493900D02*
X141374800Y-59493900D01*
X199218700Y-58796400D02*
X199916200Y-59493900D01*
X161121100Y-58796400D02*
X161818600Y-59493900D01*
X327100600Y-59493900D02*
X330972900Y-55621600D01*
X179472400Y-59493900D02*
X180169900Y-58796400D01*
X85623400Y-59493900D02*
X103339800Y-59493900D01*
X198521200Y-59493900D02*
X199218700Y-58796400D01*
X122326000Y-59493900D02*
X123023500Y-58796400D01*
X257062600Y-59493900D02*
X274716400Y-59493900D01*
X103339800Y-59493900D02*
X103974700Y-58859000D01*
X218965000Y-59493900D02*
X236681400Y-59493900D01*
X237951200Y-59493900D02*
X255667600Y-59493900D01*
X296050100Y-58796400D02*
X296747600Y-59493900D01*
X180169900Y-58796400D02*
X180867400Y-59493900D01*
X65877100Y-58796400D02*
X66574600Y-59493900D01*
X344944100Y-31269700D02*
X345262300Y-31587900D01*
X295352600Y-59493900D02*
X296050100Y-58796400D01*
X104609600Y-59493900D02*
X122326000Y-59493900D01*
X336528800Y-39685000D02*
X344944100Y-31269700D01*
X276111400Y-59493900D02*
X295352600Y-59493900D01*
X84925900Y-58796400D02*
X85623400Y-59493900D01*
X161818600Y-59493900D02*
X179472400Y-59493900D01*
X84228400Y-59493900D02*
X84925900Y-58796400D01*
X103974700Y-58859000D02*
X104609600Y-59493900D01*
X237316300Y-58859000D02*
X237951200Y-59493900D01*
X217570000Y-59493900D02*
X218267500Y-58796400D01*
X123023500Y-58796400D02*
X123721000Y-59493900D01*
X275413900Y-58796400D02*
X276111400Y-59493900D01*
X274716400Y-59493900D02*
X275413900Y-58796400D01*
X66574600Y-59493900D02*
X84228400Y-59493900D01*
X296747600Y-59493900D02*
X327100600Y-59493900D01*
X142769800Y-59493900D02*
X160423600Y-59493900D01*
X330972900Y-55621600D02*
X335735100Y-50859400D01*
X141374800Y-59493900D02*
X142072300Y-58796400D01*
X160423600Y-59493900D02*
X161121100Y-58796400D01*
X142072300Y-58796400D02*
X142769800Y-59493900D01*
X218267500Y-58796400D02*
X218965000Y-59493900D01*
X180867400Y-59493900D02*
X198521200Y-59493900D01*
X255667600Y-59493900D02*
X256365100Y-58796400D01*
X236681400Y-59493900D02*
X237316300Y-58859000D01*
X345262300Y-31587900D02*
X355418300Y-31587900D01*
X199916200Y-59493900D02*
X217570000Y-59493900D01*
%TO.N,Row2*%
X161121100Y-77845200D02*
X160422400Y-78543900D01*
X142072300Y-77845200D02*
X141373600Y-78543900D01*
X342147300Y-80957400D02*
X342147300Y-72664100D01*
X179471200Y-78543900D02*
X161819800Y-78543900D01*
X338116200Y-38891300D02*
X338116200Y-66170800D01*
X180169900Y-77845200D02*
X179471200Y-78543900D01*
X103974700Y-77845200D02*
X103276000Y-78543900D01*
X218267500Y-77845200D02*
X217568800Y-78543900D01*
X275413900Y-77845200D02*
X274715200Y-78543900D01*
X236617600Y-78543900D02*
X218966200Y-78543900D01*
X256365100Y-77845200D02*
X255666400Y-78543900D01*
X161819800Y-78543900D02*
X161121100Y-77845200D01*
X296050100Y-77845200D02*
X295351400Y-78543900D01*
X123722200Y-78543900D02*
X123023500Y-77845200D01*
X274715200Y-78543900D02*
X257063800Y-78543900D01*
X255666400Y-78543900D02*
X238015000Y-78543900D01*
X338116200Y-66170800D02*
X343378400Y-71433000D01*
X325354400Y-83338500D02*
X319861100Y-77845200D01*
X85624600Y-78543900D02*
X84925900Y-77845200D01*
X199218700Y-77845200D02*
X198520000Y-78543900D01*
X218966200Y-78543900D02*
X218267500Y-77845200D01*
X180868600Y-78543900D02*
X180169900Y-77845200D01*
X338116200Y-38891300D02*
X340497300Y-38891300D01*
X123023500Y-77845200D02*
X122324800Y-78543900D01*
X238015000Y-78543900D02*
X237316300Y-77845200D01*
X217568800Y-78543900D02*
X199917400Y-78543900D01*
X319162400Y-78543900D02*
X296748800Y-78543900D01*
X342878400Y-36510200D02*
X343036100Y-36667900D01*
X84925900Y-77845200D02*
X84227200Y-78543900D01*
X141373600Y-78543900D02*
X123722200Y-78543900D01*
X199917400Y-78543900D02*
X199218700Y-77845200D01*
X63401000Y-78543900D02*
X62702300Y-77845200D01*
X84227200Y-78543900D02*
X63401000Y-78543900D01*
X122324800Y-78543900D02*
X104673400Y-78543900D01*
X342147300Y-80957400D02*
X339766200Y-83338500D01*
X198520000Y-78543900D02*
X180868600Y-78543900D01*
X340497300Y-38891300D02*
X342878400Y-36510200D01*
X103276000Y-78543900D02*
X85624600Y-78543900D01*
X343036100Y-36667900D02*
X355418300Y-36667900D01*
X319861100Y-77845200D02*
X319162400Y-78543900D01*
X142771000Y-78543900D02*
X142072300Y-77845200D01*
X295351400Y-78543900D02*
X276112600Y-78543900D01*
X276112600Y-78543900D02*
X275413900Y-77845200D01*
X257063800Y-78543900D02*
X256365100Y-77845200D01*
X296748800Y-78543900D02*
X296050100Y-77845200D01*
X339766200Y-83338500D02*
X325354400Y-83338500D01*
X342147300Y-72664100D02*
X343378400Y-71433000D01*
X160422400Y-78543900D02*
X142771000Y-78543900D01*
X237316300Y-77845200D02*
X236617600Y-78543900D01*
X104673400Y-78543900D02*
X103974700Y-77845200D01*
%TO.N,Row3*%
X338909900Y-65877100D02*
X338909900Y-42066100D01*
X180169900Y-96894000D02*
X180869800Y-97593900D01*
X342941000Y-86513300D02*
X343778400Y-85675900D01*
X238016200Y-97593900D02*
X255665200Y-97593900D01*
X236585200Y-97625100D02*
X237316300Y-96894000D01*
X142772200Y-97593900D02*
X160421200Y-97593900D01*
X277001300Y-93719200D02*
X280907200Y-97625100D01*
X343778400Y-70745600D02*
X338909900Y-65877100D01*
X218267500Y-96894000D02*
X218998600Y-97625100D01*
X198518800Y-97593900D02*
X199218700Y-96894000D01*
X342401300Y-39207900D02*
X355418300Y-39207900D01*
X342941000Y-93594000D02*
X342941000Y-86513300D01*
X199218700Y-96894000D02*
X199918600Y-97593900D01*
X255665200Y-97593900D02*
X256365100Y-96894000D01*
X217567600Y-97593900D02*
X218267500Y-96894000D01*
X280907200Y-97625100D02*
X312780400Y-97625100D01*
X342084700Y-38891300D02*
X342401300Y-39207900D01*
X320561000Y-97593900D02*
X338941100Y-97593900D01*
X199918600Y-97593900D02*
X217567600Y-97593900D01*
X104674600Y-97593900D02*
X122323600Y-97593900D01*
X60321200Y-93719200D02*
X64195900Y-97593900D01*
X178645100Y-98418800D02*
X180169900Y-96894000D01*
X141372400Y-97593900D02*
X142072300Y-96894000D01*
X103974700Y-96894000D02*
X104674600Y-97593900D01*
X123723400Y-97593900D02*
X141372400Y-97593900D01*
X162645900Y-98418800D02*
X178645100Y-98418800D01*
X343778400Y-85675900D02*
X343778400Y-70745600D01*
X338909900Y-42066100D02*
X342084700Y-38891300D01*
X84925900Y-96894000D02*
X85625800Y-97593900D01*
X123023500Y-96894000D02*
X123723400Y-97593900D01*
X122323600Y-97593900D02*
X123023500Y-96894000D01*
X338941100Y-97593900D02*
X342941000Y-93594000D01*
X316686300Y-93719200D02*
X320561000Y-97593900D01*
X257065000Y-97593900D02*
X273126600Y-97593900D01*
X142072300Y-96894000D02*
X142772200Y-97593900D01*
X160421200Y-97593900D02*
X161121100Y-96894000D01*
X237316300Y-96894000D02*
X238016200Y-97593900D01*
X273126600Y-97593900D02*
X277001300Y-93719200D01*
X103274800Y-97593900D02*
X103974700Y-96894000D01*
X312780400Y-97625100D02*
X316686300Y-93719200D01*
X218998600Y-97625100D02*
X236585200Y-97625100D01*
X256365100Y-96894000D02*
X257065000Y-97593900D01*
X180869800Y-97593900D02*
X198518800Y-97593900D01*
X161121100Y-96894000D02*
X162645900Y-98418800D01*
X84226000Y-97593900D02*
X84925900Y-96894000D01*
X85625800Y-97593900D02*
X103274800Y-97593900D01*
X64195900Y-97593900D02*
X84226000Y-97593900D01*
%TO.N,Row4*%
X141371200Y-116643900D02*
X123724600Y-116643900D01*
X85657000Y-116673900D02*
X84925900Y-115942800D01*
X180169900Y-115942800D02*
X179468800Y-116643900D01*
X236615200Y-116643900D02*
X218968600Y-116643900D01*
X122322400Y-116643900D02*
X104675800Y-116643900D01*
X103974700Y-115942800D02*
X103243600Y-116673900D01*
X104675800Y-116643900D02*
X103974700Y-115942800D01*
X340097300Y-48250014D02*
X340097300Y-55959000D01*
X345571315Y-43569700D02*
X345093814Y-44047200D01*
X344465800Y-70639300D02*
X344465800Y-97448996D01*
X161121100Y-115942800D02*
X160420000Y-116643900D01*
X180871000Y-116643900D02*
X180169900Y-115942800D01*
X327559396Y-114355400D02*
X344465800Y-97448996D01*
X298431200Y-112768000D02*
X294525300Y-116673900D01*
X354224600Y-41747900D02*
X352402800Y-43569700D01*
X64197100Y-116643900D02*
X60321200Y-112768000D01*
X123023500Y-115942800D02*
X122322400Y-116643900D01*
X352402800Y-43569700D02*
X345571315Y-43569700D01*
X218267500Y-115942800D02*
X217566400Y-116643900D01*
X258683600Y-116673900D02*
X257952500Y-115942800D01*
X160420000Y-116643900D02*
X142773400Y-116643900D01*
X142072300Y-115942800D02*
X141371200Y-116643900D01*
X123724600Y-116643900D02*
X123023500Y-115942800D01*
X199218700Y-115942800D02*
X198517600Y-116643900D01*
X84224800Y-116643900D02*
X64197100Y-116643900D01*
X324623300Y-114355400D02*
X327559396Y-114355400D01*
X198517600Y-116643900D02*
X180871000Y-116643900D01*
X218968600Y-116643900D02*
X218267500Y-115942800D01*
X324623300Y-114355400D02*
X322304800Y-116673900D01*
X103243600Y-116673900D02*
X85657000Y-116673900D01*
X294525300Y-116673900D02*
X258683600Y-116673900D01*
X355418300Y-41747900D02*
X354224600Y-41747900D01*
X161822200Y-116643900D02*
X161121100Y-115942800D01*
X302337100Y-116673900D02*
X298431200Y-112768000D01*
X142773400Y-116643900D02*
X142072300Y-115942800D01*
X179468800Y-116643900D02*
X161822200Y-116643900D01*
X199919800Y-116643900D02*
X199218700Y-115942800D01*
X339703600Y-65877100D02*
X344465800Y-70639300D01*
X345093814Y-44047200D02*
X344300115Y-44047200D01*
X344300115Y-44047200D02*
X340097300Y-48250014D01*
X84925900Y-115942800D02*
X84224800Y-116643900D01*
X238017400Y-116643900D02*
X237316300Y-115942800D01*
X257251400Y-116643900D02*
X238017400Y-116643900D01*
X339703600Y-56352700D02*
X339703600Y-65877100D01*
X237316300Y-115942800D02*
X236615200Y-116643900D01*
X257952500Y-115942800D02*
X257251400Y-116643900D01*
X322304800Y-116673900D02*
X302337100Y-116673900D01*
X340097300Y-55959000D02*
X339703600Y-56352700D01*
X217566400Y-116643900D02*
X199919800Y-116643900D01*
%TO.N,Row5*%
X265889500Y-134991600D02*
X266591800Y-135693900D01*
X178673900Y-135693900D02*
X179376200Y-134991600D01*
X345259500Y-44447200D02*
X345737000Y-43969700D01*
X303987100Y-134991600D02*
X304689400Y-135693900D01*
X84132200Y-134197900D02*
X85657000Y-135722700D01*
X340497300Y-65877100D02*
X340497300Y-48415700D01*
X285669400Y-135722700D02*
X303256000Y-135722700D01*
X284236000Y-135693900D02*
X284938300Y-134991600D01*
X284938300Y-134991600D02*
X285669400Y-135722700D01*
X340588700Y-135693900D02*
X343672100Y-132610500D01*
X303256000Y-135722700D02*
X303987100Y-134991600D01*
X322333600Y-135693900D02*
X323035900Y-134991600D01*
X345737000Y-43969700D02*
X346055200Y-44287900D01*
X111820300Y-135693900D02*
X178673900Y-135693900D01*
X346055200Y-44287900D02*
X355418300Y-44287900D01*
X265187200Y-135693900D02*
X265889500Y-134991600D01*
X246109600Y-135722700D02*
X246840700Y-134991600D01*
X343672100Y-132610500D02*
X345259500Y-131023100D01*
X179376200Y-134991600D02*
X180107300Y-135722700D01*
X61023500Y-135693900D02*
X82636200Y-135693900D01*
X340497300Y-48415700D02*
X344465800Y-44447200D01*
X323035900Y-134991600D02*
X323738200Y-135693900D01*
X344465800Y-44447200D02*
X345259500Y-44447200D01*
X108736900Y-132610500D02*
X111820300Y-135693900D01*
X246840700Y-134991600D02*
X247543000Y-135693900D01*
X60321200Y-134991600D02*
X61023500Y-135693900D01*
X345259500Y-131023100D02*
X345259500Y-70639300D01*
X105624700Y-135722700D02*
X108736900Y-132610500D01*
X180107300Y-135722700D02*
X246109600Y-135722700D01*
X85657000Y-135722700D02*
X105624700Y-135722700D01*
X266591800Y-135693900D02*
X284236000Y-135693900D01*
X247543000Y-135693900D02*
X265187200Y-135693900D01*
X82636200Y-135693900D02*
X84132200Y-134197900D01*
X304689400Y-135693900D02*
X322333600Y-135693900D01*
X323738200Y-135693900D02*
X340588700Y-135693900D01*
X345259500Y-70639300D02*
X340497300Y-65877100D01*
%TO.N,Net-(D73-A)*%
X79908750Y-128270000D02*
X81504300Y-128270000D01*
X81504300Y-128270000D02*
X84132200Y-130897900D01*
%TO.N,Net-(D11-A)*%
X253740000Y-33028800D02*
X256365100Y-35653900D01*
X253740000Y-33020000D02*
X253740000Y-33028800D01*
%TO.N,Net-(D51-A)*%
X180169900Y-92799900D02*
X180169900Y-93594000D01*
X177540000Y-90170000D02*
X180169900Y-92799900D01*
%TO.N,Net-(D6-A)*%
X158490000Y-33085400D02*
X161121100Y-35716500D01*
X158490000Y-33020000D02*
X158490000Y-33085400D01*
%TO.N,Net-(D58-A)*%
X339465000Y-90170000D02*
X339465000Y-86689300D01*
X339465000Y-86689300D02*
X339641000Y-86513300D01*
%TO.N,Net-(D61-A)*%
X103974700Y-112642800D02*
X103974700Y-111854700D01*
X103974700Y-111854700D02*
X101340000Y-109220000D01*
%TO.N,Net-(D1-A)*%
X63240000Y-33020000D02*
X63240000Y-33079400D01*
X63240000Y-33079400D02*
X65877100Y-35716500D01*
%TO.N,Net-(D77-A)*%
X265889500Y-130894500D02*
X265889500Y-131691600D01*
X263265000Y-128270000D02*
X265889500Y-130894500D01*
%TO.N,Net-(D35-A)*%
X161121100Y-73751100D02*
X158490000Y-71120000D01*
X161121100Y-74545200D02*
X161121100Y-73751100D01*
%TO.N,Net-(D45-A)*%
X56096250Y-90170000D02*
X60072000Y-90170000D01*
X60072000Y-90170000D02*
X60321200Y-90419200D01*
%TO.N,Net-(D44-A)*%
X339659000Y-80145700D02*
X339659000Y-71330200D01*
X339659000Y-71330200D02*
X339444000Y-71115200D01*
X338847300Y-80957400D02*
X339659000Y-80145700D01*
%TO.N,Net-(D15-A)*%
X329940000Y-33020000D02*
X331451200Y-33020000D01*
X331451200Y-33020000D02*
X334147700Y-35716500D01*
%TO.N,Net-(D10-A)*%
X234690000Y-33020000D02*
X234690000Y-33027600D01*
X234690000Y-33027600D02*
X237316300Y-35653900D01*
%TO.N,Net-(D60-A)*%
X84925900Y-111855900D02*
X82290000Y-109220000D01*
X84925900Y-112642800D02*
X84925900Y-111855900D01*
%TO.N,Net-(D14-A)*%
X310890000Y-33032400D02*
X313511500Y-35653900D01*
X310890000Y-33020000D02*
X310890000Y-33032400D01*
%TO.N,Net-(D16-A)*%
X63240000Y-52070000D02*
X65877100Y-54707100D01*
X65877100Y-54707100D02*
X65877100Y-55496400D01*
%TO.N,Net-(D57-A)*%
X316437100Y-90170000D02*
X316686300Y-90419200D01*
X303746250Y-90170000D02*
X316437100Y-90170000D01*
%TO.N,Net-(D81-A)*%
X342631600Y-128270000D02*
X343672100Y-129310500D01*
X339465000Y-128270000D02*
X342631600Y-128270000D01*
%TO.N,Net-(D65-A)*%
X180169900Y-112642800D02*
X180169900Y-111849900D01*
X180169900Y-111849900D02*
X177540000Y-109220000D01*
%TO.N,Net-(D74-A)*%
X107696400Y-128270000D02*
X108736900Y-129310500D01*
X103721250Y-128270000D02*
X107696400Y-128270000D01*
%TO.N,Net-(D66-A)*%
X199218700Y-112642800D02*
X199218700Y-111848700D01*
X199218700Y-111848700D02*
X196590000Y-109220000D01*
%TO.N,Net-(D78-A)*%
X282315000Y-128270000D02*
X284938300Y-130893300D01*
X284938300Y-130893300D02*
X284938300Y-131691600D01*
%TO.N,Net-(D42-A)*%
X296050100Y-74545200D02*
X295265200Y-74545200D01*
X295265200Y-74545200D02*
X291840000Y-71120000D01*
%TO.N,Net-(D32-A)*%
X103974700Y-74545200D02*
X103974700Y-73754700D01*
X103974700Y-73754700D02*
X101340000Y-71120000D01*
%TO.N,Net-(D26-A)*%
X253740000Y-52070000D02*
X256365100Y-54695100D01*
X256365100Y-54695100D02*
X256365100Y-55496400D01*
%TO.N,Net-(D5-A)*%
X139440000Y-33020000D02*
X139440000Y-33021600D01*
X139440000Y-33021600D02*
X142072300Y-35653900D01*
%TO.N,Net-(D13-A)*%
X291840000Y-33020000D02*
X291840000Y-33031200D01*
X291840000Y-33031200D02*
X294462700Y-35653900D01*
%TO.N,Net-(D3-A)*%
X101340000Y-33020000D02*
X101340800Y-33020000D01*
X101340800Y-33020000D02*
X103974700Y-35653900D01*
%TO.N,Net-(D33-A)*%
X123023500Y-73753500D02*
X120390000Y-71120000D01*
X123023500Y-74545200D02*
X123023500Y-73753500D01*
%TO.N,Net-(D54-A)*%
X234690000Y-90170000D02*
X237316300Y-92796300D01*
X237316300Y-92796300D02*
X237316300Y-93594000D01*
%TO.N,Net-(D79-A)*%
X303987100Y-130892100D02*
X303987100Y-131691600D01*
X301365000Y-128270000D02*
X303987100Y-130892100D01*
%TO.N,Net-(D48-A)*%
X120390000Y-90170000D02*
X123023500Y-92803500D01*
X123023500Y-92803500D02*
X123023500Y-93594000D01*
%TO.N,Net-(D24-A)*%
X218267500Y-54697500D02*
X218267500Y-55496400D01*
X215640000Y-52070000D02*
X218267500Y-54697500D01*
%TO.N,Net-(D69-A)*%
X257162800Y-112642800D02*
X253740000Y-109220000D01*
X257952500Y-112642800D02*
X257162800Y-112642800D01*
%TO.N,Net-(D25-A)*%
X237316300Y-54696300D02*
X237316300Y-55559000D01*
X234690000Y-52070000D02*
X237316300Y-54696300D01*
%TO.N,Net-(D28-A)*%
X291840000Y-52070000D02*
X295266400Y-55496400D01*
X295266400Y-55496400D02*
X296050100Y-55496400D01*
%TO.N,Net-(D20-A)*%
X142072300Y-54702300D02*
X142072300Y-55496400D01*
X139440000Y-52070000D02*
X142072300Y-54702300D01*
%TO.N,Net-(D22-A)*%
X180169900Y-54699900D02*
X180169900Y-55496400D01*
X177540000Y-52070000D02*
X180169900Y-54699900D01*
%TO.N,Net-(D68-A)*%
X237316300Y-111846300D02*
X234690000Y-109220000D01*
X237316300Y-112642800D02*
X237316300Y-111846300D01*
%TO.N,Net-(D23-A)*%
X196590000Y-52070000D02*
X199218700Y-54698700D01*
X199218700Y-54698700D02*
X199218700Y-55496400D01*
%TO.N,Net-(D41-A)*%
X275413900Y-74545200D02*
X275413900Y-73743900D01*
X275413900Y-73743900D02*
X272790000Y-71120000D01*
%TO.N,Net-(D37-A)*%
X199218700Y-73748700D02*
X196590000Y-71120000D01*
X199218700Y-74545200D02*
X199218700Y-73748700D01*
%TO.N,Net-(D46-A)*%
X82290000Y-90170000D02*
X84925900Y-92805900D01*
X84925900Y-92805900D02*
X84925900Y-93594000D01*
%TO.N,Net-(D38-A)*%
X218267500Y-74545200D02*
X218267500Y-73747500D01*
X218267500Y-73747500D02*
X215640000Y-71120000D01*
%TO.N,Net-(D12-A)*%
X272790000Y-33020000D02*
X272790000Y-33092600D01*
X272790000Y-33092600D02*
X275413900Y-35716500D01*
%TO.N,Net-(D76-A)*%
X246840700Y-130895700D02*
X246840700Y-131691600D01*
X244215000Y-128270000D02*
X246840700Y-130895700D01*
%TO.N,Net-(D18-A)*%
X103974700Y-54704700D02*
X103974700Y-55559000D01*
X101340000Y-52070000D02*
X103974700Y-54704700D01*
%TO.N,Net-(D64-A)*%
X161121100Y-112642800D02*
X161121100Y-111851100D01*
X161121100Y-111851100D02*
X158490000Y-109220000D01*
%TO.N,Net-(D34-A)*%
X142072300Y-74545200D02*
X142072300Y-73752300D01*
X142072300Y-73752300D02*
X139440000Y-71120000D01*
%TO.N,Net-(D36-A)*%
X180169900Y-73749900D02*
X177540000Y-71120000D01*
X180169900Y-74545200D02*
X180169900Y-73749900D01*
%TO.N,Net-(D67-A)*%
X218267500Y-111847500D02*
X215640000Y-109220000D01*
X218267500Y-112642800D02*
X218267500Y-111847500D01*
%TO.N,Net-(D75-A)*%
X178580350Y-131691600D02*
X179376200Y-131691600D01*
X175158750Y-128270000D02*
X178580350Y-131691600D01*
%TO.N,Net-(D50-A)*%
X158490000Y-90170000D02*
X161121100Y-92801100D01*
X161121100Y-92801100D02*
X161121100Y-93594000D01*
%TO.N,Net-(D71-A)*%
X324623300Y-111055400D02*
X322250400Y-111055400D01*
X322250400Y-111055400D02*
X320415000Y-109220000D01*
%TO.N,Net-(D55-A)*%
X256365100Y-92795100D02*
X256365100Y-93594000D01*
X253740000Y-90170000D02*
X256365100Y-92795100D01*
%TO.N,Net-(D40-A)*%
X256365100Y-73745100D02*
X253740000Y-71120000D01*
X256365100Y-74545200D02*
X256365100Y-73745100D01*
%TO.N,Net-(D27-A)*%
X275413900Y-54693900D02*
X275413900Y-55496400D01*
X272790000Y-52070000D02*
X275413900Y-54693900D01*
%TO.N,Net-(D80-A)*%
X320415000Y-128270000D02*
X323035900Y-130890900D01*
X323035900Y-130890900D02*
X323035900Y-131691600D01*
%TO.N,Net-(D70-A)*%
X284944250Y-109468000D02*
X284696250Y-109220000D01*
X298431200Y-109468000D02*
X284944250Y-109468000D01*
%TO.N,Net-(D19-A)*%
X123023500Y-54703500D02*
X123023500Y-55496400D01*
X120390000Y-52070000D02*
X123023500Y-54703500D01*
%TO.N,Net-(D21-A)*%
X158490000Y-52070000D02*
X161121100Y-54701100D01*
X161121100Y-54701100D02*
X161121100Y-55496400D01*
%TO.N,Net-(D59-A)*%
X56096250Y-109220000D02*
X60073200Y-109220000D01*
X60073200Y-109220000D02*
X60321200Y-109468000D01*
%TO.N,Net-(D7-A)*%
X177540000Y-33020000D02*
X177540000Y-33086600D01*
X177540000Y-33086600D02*
X180169900Y-35716500D01*
%TO.N,Net-(D72-A)*%
X59517850Y-131691600D02*
X60321200Y-131691600D01*
X56096250Y-128270000D02*
X59517850Y-131691600D01*
%TO.N,Net-(D4-A)*%
X120390000Y-33020000D02*
X120390000Y-33020400D01*
X120390000Y-33020400D02*
X123023500Y-35653900D01*
%TO.N,Net-(D43-A)*%
X319077700Y-74545200D02*
X315652500Y-71120000D01*
X319861100Y-74545200D02*
X319077700Y-74545200D01*
%TO.N,Net-(D17-A)*%
X82290000Y-52070000D02*
X84925900Y-54705900D01*
X84925900Y-54705900D02*
X84925900Y-55496400D01*
%TO.N,Net-(D31-A)*%
X84925900Y-73755900D02*
X82290000Y-71120000D01*
X84925900Y-74545200D02*
X84925900Y-73755900D01*
%TO.N,Net-(D39-A)*%
X237316300Y-73746300D02*
X234690000Y-71120000D01*
X237316300Y-74545200D02*
X237316300Y-73746300D01*
%TO.N,Net-(D49-A)*%
X142072300Y-92802300D02*
X142072300Y-93594000D01*
X139440000Y-90170000D02*
X142072300Y-92802300D01*
%TO.N,Net-(D9-A)*%
X215640000Y-33020000D02*
X215640000Y-33089000D01*
X215640000Y-33089000D02*
X218267500Y-35716500D01*
%TO.N,Net-(D56-A)*%
X272790000Y-90170000D02*
X276752100Y-90170000D01*
X276752100Y-90170000D02*
X277001300Y-90419200D01*
%TO.N,Net-(D63-A)*%
X142072300Y-112642800D02*
X142072300Y-111852300D01*
X142072300Y-111852300D02*
X139440000Y-109220000D01*
%TO.N,Net-(D8-A)*%
X196590000Y-33020000D02*
X196590000Y-33087800D01*
X196590000Y-33087800D02*
X199218700Y-35716500D01*
%TO.N,Net-(D53-A)*%
X218267500Y-92797500D02*
X218267500Y-93594000D01*
X215640000Y-90170000D02*
X218267500Y-92797500D01*
%TO.N,Net-(D62-A)*%
X123023500Y-111853500D02*
X120390000Y-109220000D01*
X123023500Y-112642800D02*
X123023500Y-111853500D01*
%TO.N,Net-(D29-A)*%
X320415000Y-52070000D02*
X330721300Y-52070000D01*
X330721300Y-52070000D02*
X330972900Y-52321600D01*
%TO.N,Net-(D30-A)*%
X62702300Y-74545200D02*
X61902700Y-74545200D01*
X61902700Y-74545200D02*
X58477500Y-71120000D01*
%TO.N,Net-(D47-A)*%
X103974700Y-92804700D02*
X103974700Y-93594000D01*
X101340000Y-90170000D02*
X103974700Y-92804700D01*
%TO.N,Net-(D52-A)*%
X196590000Y-90170000D02*
X199218700Y-92798700D01*
X199218700Y-92798700D02*
X199218700Y-93594000D01*
%TO.N,Net-(D2-A)*%
X82290000Y-33080600D02*
X84925900Y-35716500D01*
X82290000Y-33020000D02*
X82290000Y-33080600D01*
%TD*%
M02*
