%TF.GenerationSoftware,KiCad,Pcbnew,10.0.4*%
%TF.CreationDate,2026-08-18T21:53:51-04:00*%
%TF.ProjectId,Keyboard,4b657962-6f61-4726-942e-6b696361645f,rev?*%
%TF.SameCoordinates,Original*%
%TF.FileFunction,Soldermask,Bot*%
%TF.FilePolarity,Negative*%
%FSLAX46Y46*%
G04 Gerber Fmt 4.6, Leading zero omitted, Abs format (unit mm)*
G04 Created by KiCad (PCBNEW 10.0.4) date 2026-08-18 21:53:51*
%MOMM*%
%LPD*%
G01*
G04 APERTURE LIST*
G04 Aperture macros list*
%AMRoundRect*
0 Rectangle with rounded corners*
0 $1 Rounding radius*
0 $2 $3 $4 $5 $6 $7 $8 $9 X,Y pos of 4 corners*
0 Add a 4 corners polygon primitive as box body*
4,1,4,$2,$3,$4,$5,$6,$7,$8,$9,$2,$3,0*
0 Add four circle primitives for the rounded corners*
1,1,$1+$1,$2,$3*
1,1,$1+$1,$4,$5*
1,1,$1+$1,$6,$7*
1,1,$1+$1,$8,$9*
0 Add four rect primitives between the rounded corners*
20,1,$1+$1,$2,$3,$4,$5,0*
20,1,$1+$1,$4,$5,$6,$7,0*
20,1,$1+$1,$6,$7,$8,$9,0*
20,1,$1+$1,$8,$9,$2,$3,0*%
%AMFreePoly0*
4,1,37,0.603843,0.796157,0.639018,0.796157,0.711114,0.766294,0.766294,0.711114,0.796157,0.639018,0.796157,0.603843,0.800000,0.600000,0.800000,-0.600000,0.796157,-0.603843,0.796157,-0.639018,0.766294,-0.711114,0.711114,-0.766294,0.639018,-0.796157,0.603843,-0.796157,0.600000,-0.800000,0.000000,-0.800000,0.000000,-0.796148,-0.078414,-0.796148,-0.232228,-0.765552,-0.377117,-0.705537,
-0.507515,-0.618408,-0.618408,-0.507515,-0.705537,-0.377117,-0.765552,-0.232228,-0.796148,-0.078414,-0.796148,0.078414,-0.765552,0.232228,-0.705537,0.377117,-0.618408,0.507515,-0.507515,0.618408,-0.377117,0.705537,-0.232228,0.765552,-0.078414,0.796148,0.000000,0.796148,0.000000,0.800000,0.600000,0.800000,0.603843,0.796157,0.603843,0.796157,$1*%
%AMFreePoly1*
4,1,37,0.000000,0.796148,0.078414,0.796148,0.232228,0.765552,0.377117,0.705537,0.507515,0.618408,0.618408,0.507515,0.705537,0.377117,0.765552,0.232228,0.796148,0.078414,0.796148,-0.078414,0.765552,-0.232228,0.705537,-0.377117,0.618408,-0.507515,0.507515,-0.618408,0.377117,-0.705537,0.232228,-0.765552,0.078414,-0.796148,0.000000,-0.796148,0.000000,-0.800000,-0.600000,-0.800000,
-0.603843,-0.796157,-0.639018,-0.796157,-0.711114,-0.766294,-0.766294,-0.711114,-0.796157,-0.639018,-0.796157,-0.603843,-0.800000,-0.600000,-0.800000,0.600000,-0.796157,0.603843,-0.796157,0.639018,-0.766294,0.711114,-0.711114,0.766294,-0.639018,0.796157,-0.603843,0.796157,-0.600000,0.800000,0.000000,0.800000,0.000000,0.796148,0.000000,0.796148,$1*%
G04 Aperture macros list end*
%ADD10C,4.000000*%
%ADD11C,3.987800*%
%ADD12C,2.200000*%
%ADD13C,1.850000*%
%ADD14RoundRect,0.200000X-0.600000X-0.600000X0.600000X-0.600000X0.600000X0.600000X-0.600000X0.600000X0*%
%ADD15C,1.600000*%
%ADD16FreePoly0,0.000000*%
%ADD17FreePoly1,0.000000*%
%ADD18C,1.750000*%
%ADD19C,3.300000*%
%ADD20RoundRect,0.250000X1.025000X1.000000X-1.025000X1.000000X-1.025000X-1.000000X1.025000X-1.000000X0*%
%ADD21RoundRect,0.225000X0.375000X-0.225000X0.375000X0.225000X-0.375000X0.225000X-0.375000X-0.225000X0*%
%ADD22RoundRect,0.225000X0.225000X0.375000X-0.225000X0.375000X-0.225000X-0.375000X0.225000X-0.375000X0*%
G04 APERTURE END LIST*
D10*
%TO.C,S3*%
X309562500Y-102235000D03*
D11*
X309562500Y-86995000D03*
D10*
X285750000Y-102235000D03*
D11*
X285750000Y-86995000D03*
%TD*%
D10*
%TO.C,S2*%
X326231250Y-64135000D03*
D11*
X326231250Y-48895000D03*
D10*
X302418750Y-64135000D03*
D11*
X302418750Y-48895000D03*
%TD*%
D10*
%TO.C,S1*%
X219075000Y-140335000D03*
D11*
X219075000Y-125095000D03*
D10*
X119062500Y-140335000D03*
D11*
X119062500Y-125095000D03*
%TD*%
D12*
%TO.C,A1*%
X361583300Y-29177900D03*
D13*
X361883300Y-32207900D03*
X366733300Y-32207900D03*
D12*
X367033300Y-29177900D03*
D14*
X355418300Y-29047900D03*
D15*
X355418300Y-31587900D03*
D16*
X355418300Y-34127900D03*
D15*
X355418300Y-36667900D03*
X355418300Y-39207900D03*
X355418300Y-41747900D03*
X355418300Y-44287900D03*
D16*
X355418300Y-46827900D03*
D15*
X355418300Y-49367900D03*
X355418300Y-51907900D03*
X355418300Y-54447900D03*
X355418300Y-56987900D03*
D16*
X355418300Y-59527900D03*
D15*
X355418300Y-62067900D03*
X355418300Y-64607900D03*
X355418300Y-67147900D03*
X355418300Y-69687900D03*
D16*
X355418300Y-72227900D03*
D15*
X355418300Y-74767900D03*
X355418300Y-77307900D03*
X373198300Y-77307900D03*
X373198300Y-74767900D03*
D17*
X373198300Y-72227900D03*
D15*
X373198300Y-69687900D03*
X373198300Y-67147900D03*
X373198300Y-64607900D03*
X373198300Y-62067900D03*
D17*
X373198300Y-59527900D03*
D15*
X373198300Y-56987900D03*
X373198300Y-54447900D03*
X373198300Y-51907900D03*
X373198300Y-49367900D03*
D17*
X373198300Y-46827900D03*
D15*
X373198300Y-44287900D03*
X373198300Y-41747900D03*
X373198300Y-39207900D03*
X373198300Y-36667900D03*
D17*
X373198300Y-34127900D03*
D15*
X373198300Y-31587900D03*
X373198300Y-29047900D03*
%TD*%
D10*
%TO.C,S4*%
X290494200Y-121436100D03*
D11*
X290494200Y-106196100D03*
D10*
X266681700Y-121436100D03*
D11*
X266681700Y-106196100D03*
%TD*%
D18*
%TO.C,MX73*%
X78898750Y-133350000D03*
D11*
X73818750Y-133350000D03*
D18*
X68738750Y-133350000D03*
D19*
X70008750Y-130810000D03*
D20*
X66458750Y-130810000D03*
X79908750Y-128270000D03*
D19*
X76358750Y-128270000D03*
%TD*%
D18*
%TO.C,MX11*%
X252730000Y-38100000D03*
D11*
X247650000Y-38100000D03*
D18*
X242570000Y-38100000D03*
D19*
X243840000Y-35560000D03*
D20*
X240290000Y-35560000D03*
X253740000Y-33020000D03*
D19*
X250190000Y-33020000D03*
%TD*%
D18*
%TO.C,MX51*%
X176530000Y-95250000D03*
D11*
X171450000Y-95250000D03*
D18*
X166370000Y-95250000D03*
D19*
X167640000Y-92710000D03*
D20*
X164090000Y-92710000D03*
X177540000Y-90170000D03*
D19*
X173990000Y-90170000D03*
%TD*%
D21*
%TO.C,D6*%
X161121100Y-39016500D03*
X161121100Y-35716500D03*
%TD*%
D18*
%TO.C,MX58*%
X338455000Y-95250000D03*
D11*
X333375000Y-95250000D03*
D18*
X328295000Y-95250000D03*
D19*
X329565000Y-92710000D03*
D20*
X326015000Y-92710000D03*
X339465000Y-90170000D03*
D19*
X335915000Y-90170000D03*
%TD*%
D18*
%TO.C,MX61*%
X100330000Y-114300000D03*
D11*
X95250000Y-114300000D03*
D18*
X90170000Y-114300000D03*
D19*
X91440000Y-111760000D03*
D20*
X87890000Y-111760000D03*
X101340000Y-109220000D03*
D19*
X97790000Y-109220000D03*
%TD*%
D21*
%TO.C,D1*%
X65877100Y-39016500D03*
X65877100Y-35716500D03*
%TD*%
D18*
%TO.C,MX77*%
X262255000Y-133350000D03*
D11*
X257175000Y-133350000D03*
D18*
X252095000Y-133350000D03*
D19*
X253365000Y-130810000D03*
D20*
X249815000Y-130810000D03*
X263265000Y-128270000D03*
D19*
X259715000Y-128270000D03*
%TD*%
D21*
%TO.C,D35*%
X161121100Y-77845200D03*
X161121100Y-74545200D03*
%TD*%
%TO.C,D45*%
X60321200Y-93719200D03*
X60321200Y-90419200D03*
%TD*%
D18*
%TO.C,MX44*%
X338434000Y-76195200D03*
D11*
X333354000Y-76195200D03*
D18*
X328274000Y-76195200D03*
D19*
X329544000Y-73655200D03*
D20*
X325994000Y-73655200D03*
X339444000Y-71115200D03*
D19*
X335894000Y-71115200D03*
%TD*%
D18*
%TO.C,MX15*%
X328930000Y-38100000D03*
D11*
X323850000Y-38100000D03*
D18*
X318770000Y-38100000D03*
D19*
X320040000Y-35560000D03*
D20*
X316490000Y-35560000D03*
X329940000Y-33020000D03*
D19*
X326390000Y-33020000D03*
%TD*%
D21*
%TO.C,D10*%
X237316300Y-38953900D03*
X237316300Y-35653900D03*
%TD*%
D18*
%TO.C,MX60*%
X81280000Y-114300000D03*
D11*
X76200000Y-114300000D03*
D18*
X71120000Y-114300000D03*
D19*
X72390000Y-111760000D03*
D20*
X68840000Y-111760000D03*
X82290000Y-109220000D03*
D19*
X78740000Y-109220000D03*
%TD*%
D21*
%TO.C,D14*%
X313511500Y-38953900D03*
X313511500Y-35653900D03*
%TD*%
D18*
%TO.C,MX16*%
X62230000Y-57150000D03*
D11*
X57150000Y-57150000D03*
D18*
X52070000Y-57150000D03*
D19*
X53340000Y-54610000D03*
D20*
X49790000Y-54610000D03*
X63240000Y-52070000D03*
D19*
X59690000Y-52070000D03*
%TD*%
D18*
%TO.C,MX57*%
X302736250Y-95250000D03*
D11*
X297656250Y-95250000D03*
D18*
X292576250Y-95250000D03*
D19*
X293846250Y-92710000D03*
D20*
X290296250Y-92710000D03*
X303746250Y-90170000D03*
D19*
X300196250Y-90170000D03*
%TD*%
D18*
%TO.C,MX81*%
X338455000Y-133350000D03*
D11*
X333375000Y-133350000D03*
D18*
X328295000Y-133350000D03*
D19*
X329565000Y-130810000D03*
D20*
X326015000Y-130810000D03*
X339465000Y-128270000D03*
D19*
X335915000Y-128270000D03*
%TD*%
D21*
%TO.C,D65*%
X180169900Y-115942800D03*
X180169900Y-112642800D03*
%TD*%
D18*
%TO.C,MX74*%
X102711250Y-133350000D03*
D11*
X97631250Y-133350000D03*
D18*
X92551250Y-133350000D03*
D19*
X93821250Y-130810000D03*
D20*
X90271250Y-130810000D03*
X103721250Y-128270000D03*
D19*
X100171250Y-128270000D03*
%TD*%
D21*
%TO.C,D66*%
X199218700Y-115942800D03*
X199218700Y-112642800D03*
%TD*%
%TO.C,D61*%
X103974700Y-115942800D03*
X103974700Y-112642800D03*
%TD*%
%TO.C,D78*%
X284938300Y-134991600D03*
X284938300Y-131691600D03*
%TD*%
%TO.C,D42*%
X296050100Y-77845200D03*
X296050100Y-74545200D03*
%TD*%
%TO.C,D32*%
X103974700Y-77845200D03*
X103974700Y-74545200D03*
%TD*%
D18*
%TO.C,MX45*%
X55086250Y-95250000D03*
D11*
X50006250Y-95250000D03*
D18*
X44926250Y-95250000D03*
D19*
X46196250Y-92710000D03*
D20*
X42646250Y-92710000D03*
X56096250Y-90170000D03*
D19*
X52546250Y-90170000D03*
%TD*%
D21*
%TO.C,D26*%
X256365100Y-58796400D03*
X256365100Y-55496400D03*
%TD*%
%TO.C,D5*%
X142072300Y-38953900D03*
X142072300Y-35653900D03*
%TD*%
%TO.C,D16*%
X65877100Y-58796400D03*
X65877100Y-55496400D03*
%TD*%
D18*
%TO.C,MX13*%
X290830000Y-38100000D03*
D11*
X285750000Y-38100000D03*
D18*
X280670000Y-38100000D03*
D19*
X281940000Y-35560000D03*
D20*
X278390000Y-35560000D03*
X291840000Y-33020000D03*
D19*
X288290000Y-33020000D03*
%TD*%
D21*
%TO.C,D3*%
X103974700Y-38953900D03*
X103974700Y-35653900D03*
%TD*%
%TO.C,D33*%
X123023500Y-77845200D03*
X123023500Y-74545200D03*
%TD*%
D18*
%TO.C,MX54*%
X233680000Y-95250000D03*
D11*
X228600000Y-95250000D03*
D18*
X223520000Y-95250000D03*
D19*
X224790000Y-92710000D03*
D20*
X221240000Y-92710000D03*
X234690000Y-90170000D03*
D19*
X231140000Y-90170000D03*
%TD*%
D18*
%TO.C,MX6*%
X157480000Y-38100000D03*
D11*
X152400000Y-38100000D03*
D18*
X147320000Y-38100000D03*
D19*
X148590000Y-35560000D03*
D20*
X145040000Y-35560000D03*
X158490000Y-33020000D03*
D19*
X154940000Y-33020000D03*
%TD*%
D21*
%TO.C,D79*%
X303987100Y-134991600D03*
X303987100Y-131691600D03*
%TD*%
D18*
%TO.C,MX48*%
X119380000Y-95250000D03*
D11*
X114300000Y-95250000D03*
D18*
X109220000Y-95250000D03*
D19*
X110490000Y-92710000D03*
D20*
X106940000Y-92710000D03*
X120390000Y-90170000D03*
D19*
X116840000Y-90170000D03*
%TD*%
D18*
%TO.C,MX65*%
X176530000Y-114300000D03*
D11*
X171450000Y-114300000D03*
D18*
X166370000Y-114300000D03*
D19*
X167640000Y-111760000D03*
D20*
X164090000Y-111760000D03*
X177540000Y-109220000D03*
D19*
X173990000Y-109220000D03*
%TD*%
D21*
%TO.C,D24*%
X218267500Y-58796400D03*
X218267500Y-55496400D03*
%TD*%
D18*
%TO.C,MX69*%
X252730000Y-114300000D03*
D11*
X247650000Y-114300000D03*
D18*
X242570000Y-114300000D03*
D19*
X243840000Y-111760000D03*
D20*
X240290000Y-111760000D03*
X253740000Y-109220000D03*
D19*
X250190000Y-109220000D03*
%TD*%
D18*
%TO.C,MX66*%
X195580000Y-114300000D03*
D11*
X190500000Y-114300000D03*
D18*
X185420000Y-114300000D03*
D19*
X186690000Y-111760000D03*
D20*
X183140000Y-111760000D03*
X196590000Y-109220000D03*
D19*
X193040000Y-109220000D03*
%TD*%
D21*
%TO.C,D25*%
X237316300Y-58859000D03*
X237316300Y-55559000D03*
%TD*%
D18*
%TO.C,MX28*%
X290830000Y-57150000D03*
D11*
X285750000Y-57150000D03*
D18*
X280670000Y-57150000D03*
D19*
X281940000Y-54610000D03*
D20*
X278390000Y-54610000D03*
X291840000Y-52070000D03*
D19*
X288290000Y-52070000D03*
%TD*%
D21*
%TO.C,D20*%
X142072300Y-58796400D03*
X142072300Y-55496400D03*
%TD*%
D18*
%TO.C,MX10*%
X233680000Y-38100000D03*
D11*
X228600000Y-38100000D03*
D18*
X223520000Y-38100000D03*
D19*
X224790000Y-35560000D03*
D20*
X221240000Y-35560000D03*
X234690000Y-33020000D03*
D19*
X231140000Y-33020000D03*
%TD*%
D18*
%TO.C,MX22*%
X176530000Y-57150000D03*
D11*
X171450000Y-57150000D03*
D18*
X166370000Y-57150000D03*
D19*
X167640000Y-54610000D03*
D20*
X164090000Y-54610000D03*
X177540000Y-52070000D03*
D19*
X173990000Y-52070000D03*
%TD*%
D21*
%TO.C,D68*%
X237316300Y-115942800D03*
X237316300Y-112642800D03*
%TD*%
D18*
%TO.C,MX23*%
X195580000Y-57150000D03*
D11*
X190500000Y-57150000D03*
D18*
X185420000Y-57150000D03*
D19*
X186690000Y-54610000D03*
D20*
X183140000Y-54610000D03*
X196590000Y-52070000D03*
D19*
X193040000Y-52070000D03*
%TD*%
D18*
%TO.C,MX79*%
X300355000Y-133350000D03*
D11*
X295275000Y-133350000D03*
D18*
X290195000Y-133350000D03*
D19*
X291465000Y-130810000D03*
D20*
X287915000Y-130810000D03*
X301365000Y-128270000D03*
D19*
X297815000Y-128270000D03*
%TD*%
D21*
%TO.C,D57*%
X316686300Y-93719200D03*
X316686300Y-90419200D03*
%TD*%
D18*
%TO.C,MX41*%
X271780000Y-76200000D03*
D11*
X266700000Y-76200000D03*
D18*
X261620000Y-76200000D03*
D19*
X262890000Y-73660000D03*
D20*
X259340000Y-73660000D03*
X272790000Y-71120000D03*
D19*
X269240000Y-71120000D03*
%TD*%
D21*
%TO.C,D37*%
X199218700Y-77845200D03*
X199218700Y-74545200D03*
%TD*%
D18*
%TO.C,MX46*%
X81280000Y-95250000D03*
D11*
X76200000Y-95250000D03*
D18*
X71120000Y-95250000D03*
D19*
X72390000Y-92710000D03*
D20*
X68840000Y-92710000D03*
X82290000Y-90170000D03*
D19*
X78740000Y-90170000D03*
%TD*%
D21*
%TO.C,D38*%
X218267500Y-77845200D03*
X218267500Y-74545200D03*
%TD*%
%TO.C,D15*%
X334147700Y-39016500D03*
X334147700Y-35716500D03*
%TD*%
%TO.C,D12*%
X275413900Y-39016500D03*
X275413900Y-35716500D03*
%TD*%
D18*
%TO.C,MX76*%
X243205000Y-133350000D03*
D11*
X238125000Y-133350000D03*
D18*
X233045000Y-133350000D03*
D19*
X234315000Y-130810000D03*
D20*
X230765000Y-130810000D03*
X244215000Y-128270000D03*
D19*
X240665000Y-128270000D03*
%TD*%
D18*
%TO.C,MX18*%
X100330000Y-57150000D03*
D11*
X95250000Y-57150000D03*
D18*
X90170000Y-57150000D03*
D19*
X91440000Y-54610000D03*
D20*
X87890000Y-54610000D03*
X101340000Y-52070000D03*
D19*
X97790000Y-52070000D03*
%TD*%
D18*
%TO.C,MX64*%
X157480000Y-114300000D03*
D11*
X152400000Y-114300000D03*
D18*
X147320000Y-114300000D03*
D19*
X148590000Y-111760000D03*
D20*
X145040000Y-111760000D03*
X158490000Y-109220000D03*
D19*
X154940000Y-109220000D03*
%TD*%
D21*
%TO.C,D34*%
X142072300Y-77845200D03*
X142072300Y-74545200D03*
%TD*%
D18*
%TO.C,MX36*%
X176530000Y-76200000D03*
D11*
X171450000Y-76200000D03*
D18*
X166370000Y-76200000D03*
D19*
X167640000Y-73660000D03*
D20*
X164090000Y-73660000D03*
X177540000Y-71120000D03*
D19*
X173990000Y-71120000D03*
%TD*%
D21*
%TO.C,D67*%
X218267500Y-115942800D03*
X218267500Y-112642800D03*
%TD*%
%TO.C,D48*%
X123023500Y-96894000D03*
X123023500Y-93594000D03*
%TD*%
D18*
%TO.C,MX75*%
X174148750Y-133350000D03*
D11*
X169068750Y-133350000D03*
D18*
X163988750Y-133350000D03*
D19*
X165258750Y-130810000D03*
D20*
X161708750Y-130810000D03*
X175158750Y-128270000D03*
D19*
X171608750Y-128270000D03*
%TD*%
D18*
%TO.C,MX24*%
X214630000Y-57150000D03*
D11*
X209550000Y-57150000D03*
D18*
X204470000Y-57150000D03*
D19*
X205740000Y-54610000D03*
D20*
X202190000Y-54610000D03*
X215640000Y-52070000D03*
D19*
X212090000Y-52070000D03*
%TD*%
D21*
%TO.C,D50*%
X161121100Y-96894000D03*
X161121100Y-93594000D03*
%TD*%
D18*
%TO.C,MX71*%
X319405000Y-114300000D03*
D11*
X314325000Y-114300000D03*
D18*
X309245000Y-114300000D03*
D19*
X310515000Y-111760000D03*
D20*
X306965000Y-111760000D03*
X320415000Y-109220000D03*
D19*
X316865000Y-109220000D03*
%TD*%
D21*
%TO.C,D73*%
X84132200Y-134197900D03*
X84132200Y-130897900D03*
%TD*%
%TO.C,D55*%
X256365100Y-96894000D03*
X256365100Y-93594000D03*
%TD*%
%TO.C,D40*%
X256365100Y-77845200D03*
X256365100Y-74545200D03*
%TD*%
D18*
%TO.C,MX27*%
X271780000Y-57150000D03*
D11*
X266700000Y-57150000D03*
D18*
X261620000Y-57150000D03*
D19*
X262890000Y-54610000D03*
D20*
X259340000Y-54610000D03*
X272790000Y-52070000D03*
D19*
X269240000Y-52070000D03*
%TD*%
D18*
%TO.C,MX80*%
X319405000Y-133350000D03*
D11*
X314325000Y-133350000D03*
D18*
X309245000Y-133350000D03*
D19*
X310515000Y-130810000D03*
D20*
X306965000Y-130810000D03*
X320415000Y-128270000D03*
D19*
X316865000Y-128270000D03*
%TD*%
D18*
%TO.C,MX70*%
X283686250Y-114300000D03*
D11*
X278606250Y-114300000D03*
D18*
X273526250Y-114300000D03*
D19*
X274796250Y-111760000D03*
D20*
X271246250Y-111760000D03*
X284696250Y-109220000D03*
D19*
X281146250Y-109220000D03*
%TD*%
D18*
%TO.C,MX5*%
X138430000Y-38100000D03*
D11*
X133350000Y-38100000D03*
D18*
X128270000Y-38100000D03*
D19*
X129540000Y-35560000D03*
D20*
X125990000Y-35560000D03*
X139440000Y-33020000D03*
D19*
X135890000Y-33020000D03*
%TD*%
D21*
%TO.C,D18*%
X103974700Y-58859000D03*
X103974700Y-55559000D03*
%TD*%
%TO.C,D41*%
X275413900Y-77845200D03*
X275413900Y-74545200D03*
%TD*%
D18*
%TO.C,MX19*%
X119380000Y-57150000D03*
D11*
X114300000Y-57150000D03*
D18*
X109220000Y-57150000D03*
D19*
X110490000Y-54610000D03*
D20*
X106940000Y-54610000D03*
X120390000Y-52070000D03*
D19*
X116840000Y-52070000D03*
%TD*%
D21*
%TO.C,D21*%
X161121100Y-58796400D03*
X161121100Y-55496400D03*
%TD*%
%TO.C,D23*%
X199218700Y-58796400D03*
X199218700Y-55496400D03*
%TD*%
D18*
%TO.C,MX59*%
X55086250Y-114300000D03*
D11*
X50006250Y-114300000D03*
D18*
X44926250Y-114300000D03*
D19*
X46196250Y-111760000D03*
D20*
X42646250Y-111760000D03*
X56096250Y-109220000D03*
D19*
X52546250Y-109220000D03*
%TD*%
D18*
%TO.C,MX7*%
X176530000Y-38100000D03*
D11*
X171450000Y-38100000D03*
D18*
X166370000Y-38100000D03*
D19*
X167640000Y-35560000D03*
D20*
X164090000Y-35560000D03*
X177540000Y-33020000D03*
D19*
X173990000Y-33020000D03*
%TD*%
D21*
%TO.C,D72*%
X60321200Y-134991600D03*
X60321200Y-131691600D03*
%TD*%
%TO.C,D4*%
X123023500Y-38953900D03*
X123023500Y-35653900D03*
%TD*%
D18*
%TO.C,MX43*%
X314642500Y-76200000D03*
D11*
X309562500Y-76200000D03*
D18*
X304482500Y-76200000D03*
D19*
X305752500Y-73660000D03*
D20*
X302202500Y-73660000D03*
X315652500Y-71120000D03*
D19*
X312102500Y-71120000D03*
%TD*%
D18*
%TO.C,MX32*%
X100330000Y-76200000D03*
D11*
X95250000Y-76200000D03*
D18*
X90170000Y-76200000D03*
D19*
X91440000Y-73660000D03*
D20*
X87890000Y-73660000D03*
X101340000Y-71120000D03*
D19*
X97790000Y-71120000D03*
%TD*%
D18*
%TO.C,MX78*%
X281305000Y-133350000D03*
D11*
X276225000Y-133350000D03*
D18*
X271145000Y-133350000D03*
D19*
X272415000Y-130810000D03*
D20*
X268865000Y-130810000D03*
X282315000Y-128270000D03*
D19*
X278765000Y-128270000D03*
%TD*%
D21*
%TO.C,D36*%
X180169900Y-77845200D03*
X180169900Y-74545200D03*
%TD*%
%TO.C,D64*%
X161121100Y-115942800D03*
X161121100Y-112642800D03*
%TD*%
D18*
%TO.C,MX17*%
X81280000Y-57150000D03*
D11*
X76200000Y-57150000D03*
D18*
X71120000Y-57150000D03*
D19*
X72390000Y-54610000D03*
D20*
X68840000Y-54610000D03*
X82290000Y-52070000D03*
D19*
X78740000Y-52070000D03*
%TD*%
D18*
%TO.C,MX4*%
X119380000Y-38100000D03*
D11*
X114300000Y-38100000D03*
D18*
X109220000Y-38100000D03*
D19*
X110490000Y-35560000D03*
D20*
X106940000Y-35560000D03*
X120390000Y-33020000D03*
D19*
X116840000Y-33020000D03*
%TD*%
D21*
%TO.C,D31*%
X84925900Y-77845200D03*
X84925900Y-74545200D03*
%TD*%
D22*
%TO.C,D58*%
X342941000Y-86513300D03*
X339641000Y-86513300D03*
%TD*%
D18*
%TO.C,MX39*%
X233680000Y-76200000D03*
D11*
X228600000Y-76200000D03*
D18*
X223520000Y-76200000D03*
D19*
X224790000Y-73660000D03*
D20*
X221240000Y-73660000D03*
X234690000Y-71120000D03*
D19*
X231140000Y-71120000D03*
%TD*%
D21*
%TO.C,D80*%
X323035900Y-134991600D03*
X323035900Y-131691600D03*
%TD*%
D18*
%TO.C,MX3*%
X100330000Y-38100000D03*
D11*
X95250000Y-38100000D03*
D18*
X90170000Y-38100000D03*
D19*
X91440000Y-35560000D03*
D20*
X87890000Y-35560000D03*
X101340000Y-33020000D03*
D19*
X97790000Y-33020000D03*
%TD*%
D21*
%TO.C,D49*%
X142072300Y-96894000D03*
X142072300Y-93594000D03*
%TD*%
%TO.C,D9*%
X218267500Y-39016500D03*
X218267500Y-35716500D03*
%TD*%
%TO.C,D56*%
X277001300Y-93719200D03*
X277001300Y-90419200D03*
%TD*%
D18*
%TO.C,MX42*%
X290830000Y-76200000D03*
D11*
X285750000Y-76200000D03*
D18*
X280670000Y-76200000D03*
D19*
X281940000Y-73660000D03*
D20*
X278390000Y-73660000D03*
X291840000Y-71120000D03*
D19*
X288290000Y-71120000D03*
%TD*%
D18*
%TO.C,MX63*%
X138430000Y-114300000D03*
D11*
X133350000Y-114300000D03*
D18*
X128270000Y-114300000D03*
D19*
X129540000Y-111760000D03*
D20*
X125990000Y-111760000D03*
X139440000Y-109220000D03*
D19*
X135890000Y-109220000D03*
%TD*%
D21*
%TO.C,D69*%
X257952500Y-115942800D03*
X257952500Y-112642800D03*
%TD*%
%TO.C,D74*%
X108736900Y-132610500D03*
X108736900Y-129310500D03*
%TD*%
D18*
%TO.C,MX26*%
X252730000Y-57150000D03*
D11*
X247650000Y-57150000D03*
D18*
X242570000Y-57150000D03*
D19*
X243840000Y-54610000D03*
D20*
X240290000Y-54610000D03*
X253740000Y-52070000D03*
D19*
X250190000Y-52070000D03*
%TD*%
D21*
%TO.C,D22*%
X180169900Y-58796400D03*
X180169900Y-55496400D03*
%TD*%
D18*
%TO.C,MX8*%
X195580000Y-38100000D03*
D11*
X190500000Y-38100000D03*
D18*
X185420000Y-38100000D03*
D19*
X186690000Y-35560000D03*
D20*
X183140000Y-35560000D03*
X196590000Y-33020000D03*
D19*
X193040000Y-33020000D03*
%TD*%
D18*
%TO.C,MX33*%
X119380000Y-76200000D03*
D11*
X114300000Y-76200000D03*
D18*
X109220000Y-76200000D03*
D19*
X110490000Y-73660000D03*
D20*
X106940000Y-73660000D03*
X120390000Y-71120000D03*
D19*
X116840000Y-71120000D03*
%TD*%
D18*
%TO.C,MX55*%
X252730000Y-95250000D03*
D11*
X247650000Y-95250000D03*
D18*
X242570000Y-95250000D03*
D19*
X243840000Y-92710000D03*
D20*
X240290000Y-92710000D03*
X253740000Y-90170000D03*
D19*
X250190000Y-90170000D03*
%TD*%
D22*
%TO.C,D44*%
X342147300Y-80957400D03*
X338847300Y-80957400D03*
%TD*%
D18*
%TO.C,MX40*%
X252730000Y-76200000D03*
D11*
X247650000Y-76200000D03*
D18*
X242570000Y-76200000D03*
D19*
X243840000Y-73660000D03*
D20*
X240290000Y-73660000D03*
X253740000Y-71120000D03*
D19*
X250190000Y-71120000D03*
%TD*%
D18*
%TO.C,MX72*%
X55086250Y-133350000D03*
D11*
X50006250Y-133350000D03*
D18*
X44926250Y-133350000D03*
D19*
X46196250Y-130810000D03*
D20*
X42646250Y-130810000D03*
X56096250Y-128270000D03*
D19*
X52546250Y-128270000D03*
%TD*%
D18*
%TO.C,MX35*%
X157480000Y-76200000D03*
D11*
X152400000Y-76200000D03*
D18*
X147320000Y-76200000D03*
D19*
X148590000Y-73660000D03*
D20*
X145040000Y-73660000D03*
X158490000Y-71120000D03*
D19*
X154940000Y-71120000D03*
%TD*%
D21*
%TO.C,D19*%
X123023500Y-58796400D03*
X123023500Y-55496400D03*
%TD*%
D18*
%TO.C,MX53*%
X214630000Y-95250000D03*
D11*
X209550000Y-95250000D03*
D18*
X204470000Y-95250000D03*
D19*
X205740000Y-92710000D03*
D20*
X202190000Y-92710000D03*
X215640000Y-90170000D03*
D19*
X212090000Y-90170000D03*
%TD*%
D21*
%TO.C,D28*%
X296050100Y-58796400D03*
X296050100Y-55496400D03*
%TD*%
%TO.C,D53*%
X218267500Y-96894000D03*
X218267500Y-93594000D03*
%TD*%
D18*
%TO.C,MX20*%
X138430000Y-57150000D03*
D11*
X133350000Y-57150000D03*
D18*
X128270000Y-57150000D03*
D19*
X129540000Y-54610000D03*
D20*
X125990000Y-54610000D03*
X139440000Y-52070000D03*
D19*
X135890000Y-52070000D03*
%TD*%
D18*
%TO.C,MX12*%
X271780000Y-38100000D03*
D11*
X266700000Y-38100000D03*
D18*
X261620000Y-38100000D03*
D19*
X262890000Y-35560000D03*
D20*
X259340000Y-35560000D03*
X272790000Y-33020000D03*
D19*
X269240000Y-33020000D03*
%TD*%
D21*
%TO.C,D71*%
X324623300Y-114355400D03*
X324623300Y-111055400D03*
%TD*%
%TO.C,D81*%
X343672100Y-132610500D03*
X343672100Y-129310500D03*
%TD*%
%TO.C,D62*%
X123023500Y-115942800D03*
X123023500Y-112642800D03*
%TD*%
D18*
%TO.C,MX67*%
X214630000Y-114300000D03*
D11*
X209550000Y-114300000D03*
D18*
X204470000Y-114300000D03*
D19*
X205740000Y-111760000D03*
D20*
X202190000Y-111760000D03*
X215640000Y-109220000D03*
D19*
X212090000Y-109220000D03*
%TD*%
D18*
%TO.C,MX29*%
X319405000Y-57150000D03*
D11*
X314325000Y-57150000D03*
D18*
X309245000Y-57150000D03*
D19*
X310515000Y-54610000D03*
D20*
X306965000Y-54610000D03*
X320415000Y-52070000D03*
D19*
X316865000Y-52070000D03*
%TD*%
D18*
%TO.C,MX50*%
X157480000Y-95250000D03*
D11*
X152400000Y-95250000D03*
D18*
X147320000Y-95250000D03*
D19*
X148590000Y-92710000D03*
D20*
X145040000Y-92710000D03*
X158490000Y-90170000D03*
D19*
X154940000Y-90170000D03*
%TD*%
D18*
%TO.C,MX30*%
X57467500Y-76200000D03*
D11*
X52387500Y-76200000D03*
D18*
X47307500Y-76200000D03*
D19*
X48577500Y-73660000D03*
D20*
X45027500Y-73660000D03*
X58477500Y-71120000D03*
D19*
X54927500Y-71120000D03*
%TD*%
D21*
%TO.C,D46*%
X84925900Y-96894000D03*
X84925900Y-93594000D03*
%TD*%
%TO.C,D43*%
X319861100Y-77845200D03*
X319861100Y-74545200D03*
%TD*%
%TO.C,D39*%
X237316300Y-77845200D03*
X237316300Y-74545200D03*
%TD*%
%TO.C,D29*%
X330972900Y-55621600D03*
X330972900Y-52321600D03*
%TD*%
D18*
%TO.C,MX34*%
X138430000Y-76200000D03*
D11*
X133350000Y-76200000D03*
D18*
X128270000Y-76200000D03*
D19*
X129540000Y-73660000D03*
D20*
X125990000Y-73660000D03*
X139440000Y-71120000D03*
D19*
X135890000Y-71120000D03*
%TD*%
D21*
%TO.C,D47*%
X103974700Y-96894000D03*
X103974700Y-93594000D03*
%TD*%
D18*
%TO.C,MX38*%
X214630000Y-76200000D03*
D11*
X209550000Y-76200000D03*
D18*
X204470000Y-76200000D03*
D19*
X205740000Y-73660000D03*
D20*
X202190000Y-73660000D03*
X215640000Y-71120000D03*
D19*
X212090000Y-71120000D03*
%TD*%
D21*
%TO.C,D17*%
X84925900Y-58796400D03*
X84925900Y-55496400D03*
%TD*%
D18*
%TO.C,MX49*%
X138430000Y-95250000D03*
D11*
X133350000Y-95250000D03*
D18*
X128270000Y-95250000D03*
D19*
X129540000Y-92710000D03*
D20*
X125990000Y-92710000D03*
X139440000Y-90170000D03*
D19*
X135890000Y-90170000D03*
%TD*%
D21*
%TO.C,D51*%
X180169900Y-96894000D03*
X180169900Y-93594000D03*
%TD*%
%TO.C,D52*%
X199218700Y-96894000D03*
X199218700Y-93594000D03*
%TD*%
%TO.C,D75*%
X179376200Y-134991600D03*
X179376200Y-131691600D03*
%TD*%
D18*
%TO.C,MX62*%
X119380000Y-114300000D03*
D11*
X114300000Y-114300000D03*
D18*
X109220000Y-114300000D03*
D19*
X110490000Y-111760000D03*
D20*
X106940000Y-111760000D03*
X120390000Y-109220000D03*
D19*
X116840000Y-109220000D03*
%TD*%
D21*
%TO.C,D70*%
X298431200Y-112768000D03*
X298431200Y-109468000D03*
%TD*%
%TO.C,D54*%
X237316300Y-96894000D03*
X237316300Y-93594000D03*
%TD*%
D18*
%TO.C,MX47*%
X100330000Y-95250000D03*
D11*
X95250000Y-95250000D03*
D18*
X90170000Y-95250000D03*
D19*
X91440000Y-92710000D03*
D20*
X87890000Y-92710000D03*
X101340000Y-90170000D03*
D19*
X97790000Y-90170000D03*
%TD*%
D21*
%TO.C,D2*%
X84925900Y-39016500D03*
X84925900Y-35716500D03*
%TD*%
D18*
%TO.C,MX14*%
X309880000Y-38100000D03*
D11*
X304800000Y-38100000D03*
D18*
X299720000Y-38100000D03*
D19*
X300990000Y-35560000D03*
D20*
X297440000Y-35560000D03*
X310890000Y-33020000D03*
D19*
X307340000Y-33020000D03*
%TD*%
D21*
%TO.C,D60*%
X84925900Y-115942800D03*
X84925900Y-112642800D03*
%TD*%
D18*
%TO.C,MX56*%
X271780000Y-95250000D03*
D11*
X266700000Y-95250000D03*
D18*
X261620000Y-95250000D03*
D19*
X262890000Y-92710000D03*
D20*
X259340000Y-92710000D03*
X272790000Y-90170000D03*
D19*
X269240000Y-90170000D03*
%TD*%
D18*
%TO.C,MX25*%
X233680000Y-57150000D03*
D11*
X228600000Y-57150000D03*
D18*
X223520000Y-57150000D03*
D19*
X224790000Y-54610000D03*
D20*
X221240000Y-54610000D03*
X234690000Y-52070000D03*
D19*
X231140000Y-52070000D03*
%TD*%
D18*
%TO.C,MX21*%
X157480000Y-57150000D03*
D11*
X152400000Y-57150000D03*
D18*
X147320000Y-57150000D03*
D19*
X148590000Y-54610000D03*
D20*
X145040000Y-54610000D03*
X158490000Y-52070000D03*
D19*
X154940000Y-52070000D03*
%TD*%
D18*
%TO.C,MX31*%
X81280000Y-76200000D03*
D11*
X76200000Y-76200000D03*
D18*
X71120000Y-76200000D03*
D19*
X72390000Y-73660000D03*
D20*
X68840000Y-73660000D03*
X82290000Y-71120000D03*
D19*
X78740000Y-71120000D03*
%TD*%
D18*
%TO.C,MX1*%
X62230000Y-38100000D03*
D11*
X57150000Y-38100000D03*
D18*
X52070000Y-38100000D03*
D19*
X53340000Y-35560000D03*
D20*
X49790000Y-35560000D03*
X63240000Y-33020000D03*
D19*
X59690000Y-33020000D03*
%TD*%
D21*
%TO.C,D7*%
X180169900Y-39016500D03*
X180169900Y-35716500D03*
%TD*%
D18*
%TO.C,MX37*%
X195580000Y-76200000D03*
D11*
X190500000Y-76200000D03*
D18*
X185420000Y-76200000D03*
D19*
X186690000Y-73660000D03*
D20*
X183140000Y-73660000D03*
X196590000Y-71120000D03*
D19*
X193040000Y-71120000D03*
%TD*%
D18*
%TO.C,MX52*%
X195580000Y-95250000D03*
D11*
X190500000Y-95250000D03*
D18*
X185420000Y-95250000D03*
D19*
X186690000Y-92710000D03*
D20*
X183140000Y-92710000D03*
X196590000Y-90170000D03*
D19*
X193040000Y-90170000D03*
%TD*%
D18*
%TO.C,MX68*%
X233680000Y-114300000D03*
D11*
X228600000Y-114300000D03*
D18*
X223520000Y-114300000D03*
D19*
X224790000Y-111760000D03*
D20*
X221240000Y-111760000D03*
X234690000Y-109220000D03*
D19*
X231140000Y-109220000D03*
%TD*%
D18*
%TO.C,MX2*%
X81280000Y-38100000D03*
D11*
X76200000Y-38100000D03*
D18*
X71120000Y-38100000D03*
D19*
X72390000Y-35560000D03*
D20*
X68840000Y-35560000D03*
X82290000Y-33020000D03*
D19*
X78740000Y-33020000D03*
%TD*%
D21*
%TO.C,D30*%
X62702300Y-77845200D03*
X62702300Y-74545200D03*
%TD*%
%TO.C,D77*%
X265889500Y-134991600D03*
X265889500Y-131691600D03*
%TD*%
%TO.C,D27*%
X275413900Y-58796400D03*
X275413900Y-55496400D03*
%TD*%
%TO.C,D13*%
X294462700Y-38953900D03*
X294462700Y-35653900D03*
%TD*%
%TO.C,D8*%
X199218700Y-39016500D03*
X199218700Y-35716500D03*
%TD*%
%TO.C,D11*%
X256365100Y-38953900D03*
X256365100Y-35653900D03*
%TD*%
D18*
%TO.C,MX9*%
X214630000Y-38100000D03*
D11*
X209550000Y-38100000D03*
D18*
X204470000Y-38100000D03*
D19*
X205740000Y-35560000D03*
D20*
X202190000Y-35560000D03*
X215640000Y-33020000D03*
D19*
X212090000Y-33020000D03*
%TD*%
D21*
%TO.C,D76*%
X246840700Y-134991600D03*
X246840700Y-131691600D03*
%TD*%
%TO.C,D59*%
X60321200Y-112768000D03*
X60321200Y-109468000D03*
%TD*%
%TO.C,D63*%
X142072300Y-115942800D03*
X142072300Y-112642800D03*
%TD*%
M02*
