ISO-10303-21;
HEADER;
/* Generated by software containing ST-Developer
 * from STEP Tools, Inc. (www.steptools.com) 
 */
/* OPTION: using custom renumber hook */

FILE_DESCRIPTION(
/* description */ ('STEP AP242 Edition 2',
'CAx-IF Rec.Pracs.---Representation and Presentation of Product Manufa
cturing Information (PMI)---4.0---2014-10-13',
'CAx-IF Rec.Pracs.---3D Tessellated Geometry---0.4---2014-09-14','2;1',
'CAx-IF Rec.Pracs.---User Defined Attributes---1.5---2016-08-15'),
/* implementation_level */ '2;1');

FILE_NAME(
/* name */ 'Part Studio 1 - Part 2',
/* time_stamp */ '2026-09-28T20:15:44Z',
/* author */ (''),
/* organization */ (''),
/* preprocessor_version */ 'ST-DEVELOPER v20',
/* originating_system */ 'ONSHAPE BY PTC INC, 1.221',
/* authorisation */ '  ');

FILE_SCHEMA (('AP242_MANAGED_MODEL_BASED_3D_ENGINEERING_MIM_LF { 1 0 10303 442 3 1 4 }'));
ENDSEC;

DATA;
#10=SHAPE_REPRESENTATION_RELATIONSHIP('','',#793,#11);
#11=ADVANCED_BREP_SHAPE_REPRESENTATION('',(#791),#1351);
#12=TOROIDAL_SURFACE('',#865,0.0075,0.004);
#13=TOROIDAL_SURFACE('',#866,0.0075,0.004);
#14=TOROIDAL_SURFACE('',#867,0.0075,0.004);
#15=TOROIDAL_SURFACE('',#868,0.0075,0.004);
#16=TOROIDAL_SURFACE('',#869,0.0075,0.004);
#17=TOROIDAL_SURFACE('',#870,0.0075,0.004);
#18=TOROIDAL_SURFACE('',#871,0.0075,0.004);
#19=ELLIPSE('',#851,0.00282842712474619,0.002);
#20=ELLIPSE('',#852,0.00282842712474619,0.002);
#21=ELLIPSE('',#854,0.00282842712474619,0.002);
#22=ELLIPSE('',#856,0.00282842712474619,0.002);
#23=CYLINDRICAL_SURFACE('',#846,0.002);
#24=CYLINDRICAL_SURFACE('',#847,0.002);
#25=CYLINDRICAL_SURFACE('',#848,0.002);
#26=CYLINDRICAL_SURFACE('',#849,0.002);
#27=CYLINDRICAL_SURFACE('',#850,0.002);
#28=CYLINDRICAL_SURFACE('',#853,0.002);
#29=CYLINDRICAL_SURFACE('',#855,0.002);
#30=CYLINDRICAL_SURFACE('',#857,0.002);
#31=CYLINDRICAL_SURFACE('',#862,0.003);
#32=CYLINDRICAL_SURFACE('',#872,0.0015);
#33=CYLINDRICAL_SURFACE('',#875,0.0015);
#34=CYLINDRICAL_SURFACE('',#878,0.0015);
#35=CYLINDRICAL_SURFACE('',#881,0.0015);
#36=CYLINDRICAL_SURFACE('',#884,0.0015);
#37=CYLINDRICAL_SURFACE('',#887,0.0015);
#38=LINE('',#1150,#90);
#39=LINE('',#1153,#91);
#40=LINE('',#1155,#92);
#41=LINE('',#1157,#93);
#42=LINE('',#1159,#94);
#43=LINE('',#1162,#95);
#44=LINE('',#1164,#96);
#45=LINE('',#1166,#97);
#46=LINE('',#1168,#98);
#47=LINE('',#1171,#99);
#48=LINE('',#1172,#100);
#49=LINE('',#1174,#101);
#50=LINE('',#1177,#102);
#51=LINE('',#1178,#103);
#52=LINE('',#1180,#104);
#53=LINE('',#1185,#105);
#54=LINE('',#1189,#106);
#55=LINE('',#1193,#107);
#56=LINE('',#1196,#108);
#57=LINE('',#1197,#109);
#58=LINE('',#1235,#110);
#59=LINE('',#1237,#111);
#60=LINE('',#1239,#112);
#61=LINE('',#1241,#113);
#62=LINE('',#1246,#114);
#63=LINE('',#1251,#115);
#64=LINE('',#1254,#116);
#65=LINE('',#1256,#117);
#66=LINE('',#1258,#118);
#67=LINE('',#1260,#119);
#68=LINE('',#1262,#120);
#69=LINE('',#1264,#121);
#70=LINE('',#1266,#122);
#71=LINE('',#1268,#123);
#72=LINE('',#1270,#124);
#73=LINE('',#1271,#125);
#74=LINE('',#1273,#126);
#75=LINE('',#1276,#127);
#76=LINE('',#1278,#128);
#77=LINE('',#1280,#129);
#78=LINE('',#1281,#130);
#79=LINE('',#1284,#131);
#80=LINE('',#1286,#132);
#81=LINE('',#1288,#133);
#82=LINE('',#1290,#134);
#83=LINE('',#1291,#135);
#84=LINE('',#1293,#136);
#85=LINE('',#1294,#137);
#86=LINE('',#1308,#138);
#87=LINE('',#1309,#139);
#88=LINE('',#1311,#140);
#89=LINE('',#1313,#141);
#90=VECTOR('',#908,1.);
#91=VECTOR('',#909,1.);
#92=VECTOR('',#910,1.);
#93=VECTOR('',#911,1.);
#94=VECTOR('',#914,1.);
#95=VECTOR('',#915,1.);
#96=VECTOR('',#916,1.);
#97=VECTOR('',#917,1.);
#98=VECTOR('',#920,1.);
#99=VECTOR('',#921,1.);
#100=VECTOR('',#922,1.);
#101=VECTOR('',#925,1.);
#102=VECTOR('',#926,1.);
#103=VECTOR('',#927,1.);
#104=VECTOR('',#930,1.);
#105=VECTOR('',#933,1.);
#106=VECTOR('',#936,1.);
#107=VECTOR('',#939,1.);
#108=VECTOR('',#942,1.);
#109=VECTOR('',#943,1.);
#110=VECTOR('',#990,1.);
#111=VECTOR('',#991,1.);
#112=VECTOR('',#992,1.);
#113=VECTOR('',#995,1.);
#114=VECTOR('',#998,1.);
#115=VECTOR('',#1003,1.);
#116=VECTOR('',#1006,1.);
#117=VECTOR('',#1007,1.);
#118=VECTOR('',#1008,1.);
#119=VECTOR('',#1011,1.);
#120=VECTOR('',#1012,1.);
#121=VECTOR('',#1015,1.);
#122=VECTOR('',#1016,1.);
#123=VECTOR('',#1019,1.);
#124=VECTOR('',#1022,1.);
#125=VECTOR('',#1023,1.);
#126=VECTOR('',#1026,1.);
#127=VECTOR('',#1027,1.);
#128=VECTOR('',#1028,1.);
#129=VECTOR('',#1029,1.);
#130=VECTOR('',#1030,1.);
#131=VECTOR('',#1031,1.);
#132=VECTOR('',#1032,1.);
#133=VECTOR('',#1033,1.);
#134=VECTOR('',#1036,1.);
#135=VECTOR('',#1037,1.);
#136=VECTOR('',#1040,1.);
#137=VECTOR('',#1041,1.);
#138=VECTOR('',#1068,1.);
#139=VECTOR('',#1069,1.);
#140=VECTOR('',#1072,1.);
#141=VECTOR('',#1075,1.);
#142=ORIENTED_EDGE('',*,*,#326,.T.);
#143=ORIENTED_EDGE('',*,*,#327,.T.);
#144=ORIENTED_EDGE('',*,*,#328,.T.);
#145=ORIENTED_EDGE('',*,*,#329,.T.);
#146=ORIENTED_EDGE('',*,*,#330,.T.);
#147=ORIENTED_EDGE('',*,*,#331,.T.);
#148=ORIENTED_EDGE('',*,*,#332,.T.);
#149=ORIENTED_EDGE('',*,*,#333,.T.);
#150=ORIENTED_EDGE('',*,*,#334,.F.);
#151=ORIENTED_EDGE('',*,*,#335,.T.);
#152=ORIENTED_EDGE('',*,*,#336,.T.);
#153=ORIENTED_EDGE('',*,*,#337,.T.);
#154=ORIENTED_EDGE('',*,*,#338,.T.);
#155=ORIENTED_EDGE('',*,*,#339,.F.);
#156=ORIENTED_EDGE('',*,*,#340,.F.);
#157=ORIENTED_EDGE('',*,*,#341,.T.);
#158=ORIENTED_EDGE('',*,*,#342,.T.);
#159=ORIENTED_EDGE('',*,*,#337,.F.);
#160=ORIENTED_EDGE('',*,*,#343,.T.);
#161=ORIENTED_EDGE('',*,*,#344,.T.);
#162=ORIENTED_EDGE('',*,*,#345,.T.);
#163=ORIENTED_EDGE('',*,*,#341,.F.);
#164=ORIENTED_EDGE('',*,*,#346,.T.);
#165=ORIENTED_EDGE('',*,*,#347,.F.);
#166=ORIENTED_EDGE('',*,*,#348,.T.);
#167=ORIENTED_EDGE('',*,*,#349,.T.);
#168=ORIENTED_EDGE('',*,*,#350,.T.);
#169=ORIENTED_EDGE('',*,*,#351,.T.);
#170=ORIENTED_EDGE('',*,*,#352,.T.);
#171=ORIENTED_EDGE('',*,*,#353,.F.);
#172=ORIENTED_EDGE('',*,*,#354,.T.);
#173=ORIENTED_EDGE('',*,*,#339,.T.);
#174=ORIENTED_EDGE('',*,*,#355,.T.);
#175=ORIENTED_EDGE('',*,*,#344,.F.);
#176=ORIENTED_EDGE('',*,*,#356,.F.);
#177=ORIENTED_EDGE('',*,*,#340,.T.);
#178=ORIENTED_EDGE('',*,*,#356,.T.);
#179=ORIENTED_EDGE('',*,*,#346,.F.);
#180=ORIENTED_EDGE('',*,*,#343,.F.);
#181=ORIENTED_EDGE('',*,*,#357,.F.);
#182=ORIENTED_EDGE('',*,*,#358,.T.);
#183=ORIENTED_EDGE('',*,*,#359,.F.);
#184=ORIENTED_EDGE('',*,*,#360,.T.);
#185=ORIENTED_EDGE('',*,*,#361,.F.);
#186=ORIENTED_EDGE('',*,*,#362,.T.);
#187=ORIENTED_EDGE('',*,*,#363,.F.);
#188=ORIENTED_EDGE('',*,*,#364,.T.);
#189=ORIENTED_EDGE('',*,*,#365,.F.);
#190=ORIENTED_EDGE('',*,*,#366,.T.);
#191=ORIENTED_EDGE('',*,*,#367,.F.);
#192=ORIENTED_EDGE('',*,*,#368,.T.);
#193=ORIENTED_EDGE('',*,*,#369,.F.);
#194=ORIENTED_EDGE('',*,*,#370,.T.);
#195=ORIENTED_EDGE('',*,*,#347,.T.);
#196=ORIENTED_EDGE('',*,*,#371,.T.);
#197=ORIENTED_EDGE('',*,*,#372,.F.);
#198=ORIENTED_EDGE('',*,*,#373,.T.);
#199=ORIENTED_EDGE('',*,*,#374,.F.);
#200=ORIENTED_EDGE('',*,*,#375,.T.);
#201=ORIENTED_EDGE('',*,*,#376,.F.);
#202=ORIENTED_EDGE('',*,*,#377,.T.);
#203=ORIENTED_EDGE('',*,*,#372,.T.);
#204=ORIENTED_EDGE('',*,*,#378,.T.);
#205=ORIENTED_EDGE('',*,*,#379,.T.);
#206=ORIENTED_EDGE('',*,*,#380,.T.);
#207=ORIENTED_EDGE('',*,*,#381,.F.);
#208=ORIENTED_EDGE('',*,*,#382,.T.);
#209=ORIENTED_EDGE('',*,*,#383,.T.);
#210=ORIENTED_EDGE('',*,*,#334,.T.);
#211=ORIENTED_EDGE('',*,*,#384,.F.);
#212=ORIENTED_EDGE('',*,*,#385,.T.);
#213=ORIENTED_EDGE('',*,*,#381,.T.);
#214=ORIENTED_EDGE('',*,*,#333,.F.);
#215=ORIENTED_EDGE('',*,*,#386,.F.);
#216=ORIENTED_EDGE('',*,*,#387,.T.);
#217=ORIENTED_EDGE('',*,*,#384,.T.);
#218=ORIENTED_EDGE('',*,*,#336,.F.);
#219=ORIENTED_EDGE('',*,*,#383,.F.);
#220=ORIENTED_EDGE('',*,*,#388,.T.);
#221=ORIENTED_EDGE('',*,*,#386,.T.);
#222=ORIENTED_EDGE('',*,*,#335,.F.);
#223=ORIENTED_EDGE('',*,*,#374,.T.);
#224=ORIENTED_EDGE('',*,*,#389,.T.);
#225=ORIENTED_EDGE('',*,*,#351,.F.);
#226=ORIENTED_EDGE('',*,*,#390,.T.);
#227=ORIENTED_EDGE('',*,*,#391,.T.);
#228=ORIENTED_EDGE('',*,*,#392,.T.);
#229=ORIENTED_EDGE('',*,*,#393,.T.);
#230=ORIENTED_EDGE('',*,*,#394,.T.);
#231=ORIENTED_EDGE('',*,*,#395,.T.);
#232=ORIENTED_EDGE('',*,*,#396,.T.);
#233=ORIENTED_EDGE('',*,*,#397,.T.);
#234=ORIENTED_EDGE('',*,*,#398,.T.);
#235=ORIENTED_EDGE('',*,*,#379,.F.);
#236=ORIENTED_EDGE('',*,*,#399,.T.);
#237=ORIENTED_EDGE('',*,*,#353,.T.);
#238=ORIENTED_EDGE('',*,*,#400,.T.);
#239=ORIENTED_EDGE('',*,*,#349,.F.);
#240=ORIENTED_EDGE('',*,*,#401,.T.);
#241=ORIENTED_EDGE('',*,*,#376,.T.);
#242=ORIENTED_EDGE('',*,*,#402,.T.);
#243=ORIENTED_EDGE('',*,*,#354,.F.);
#244=ORIENTED_EDGE('',*,*,#399,.F.);
#245=ORIENTED_EDGE('',*,*,#378,.F.);
#246=ORIENTED_EDGE('',*,*,#371,.F.);
#247=ORIENTED_EDGE('',*,*,#377,.F.);
#248=ORIENTED_EDGE('',*,*,#401,.F.);
#249=ORIENTED_EDGE('',*,*,#348,.F.);
#250=ORIENTED_EDGE('',*,*,#373,.F.);
#251=ORIENTED_EDGE('',*,*,#352,.F.);
#252=ORIENTED_EDGE('',*,*,#389,.F.);
#253=ORIENTED_EDGE('',*,*,#380,.F.);
#254=ORIENTED_EDGE('',*,*,#400,.F.);
#255=ORIENTED_EDGE('',*,*,#375,.F.);
#256=ORIENTED_EDGE('',*,*,#390,.F.);
#257=ORIENTED_EDGE('',*,*,#350,.F.);
#258=ORIENTED_EDGE('',*,*,#402,.F.);
#259=ORIENTED_EDGE('',*,*,#403,.F.);
#260=ORIENTED_EDGE('',*,*,#338,.F.);
#261=ORIENTED_EDGE('',*,*,#404,.F.);
#262=ORIENTED_EDGE('',*,*,#398,.F.);
#263=ORIENTED_EDGE('',*,*,#404,.T.);
#264=ORIENTED_EDGE('',*,*,#342,.F.);
#265=ORIENTED_EDGE('',*,*,#405,.F.);
#266=ORIENTED_EDGE('',*,*,#395,.F.);
#267=ORIENTED_EDGE('',*,*,#403,.T.);
#268=ORIENTED_EDGE('',*,*,#397,.F.);
#269=ORIENTED_EDGE('',*,*,#406,.F.);
#270=ORIENTED_EDGE('',*,*,#355,.F.);
#271=ORIENTED_EDGE('',*,*,#405,.T.);
#272=ORIENTED_EDGE('',*,*,#345,.F.);
#273=ORIENTED_EDGE('',*,*,#406,.T.);
#274=ORIENTED_EDGE('',*,*,#396,.F.);
#275=ORIENTED_EDGE('',*,*,#407,.F.);
#276=ORIENTED_EDGE('',*,*,#394,.F.);
#277=ORIENTED_EDGE('',*,*,#408,.F.);
#278=ORIENTED_EDGE('',*,*,#387,.F.);
#279=ORIENTED_EDGE('',*,*,#408,.T.);
#280=ORIENTED_EDGE('',*,*,#393,.F.);
#281=ORIENTED_EDGE('',*,*,#409,.F.);
#282=ORIENTED_EDGE('',*,*,#385,.F.);
#283=ORIENTED_EDGE('',*,*,#407,.T.);
#284=ORIENTED_EDGE('',*,*,#388,.F.);
#285=ORIENTED_EDGE('',*,*,#410,.F.);
#286=ORIENTED_EDGE('',*,*,#391,.F.);
#287=ORIENTED_EDGE('',*,*,#409,.T.);
#288=ORIENTED_EDGE('',*,*,#392,.F.);
#289=ORIENTED_EDGE('',*,*,#410,.T.);
#290=ORIENTED_EDGE('',*,*,#382,.F.);
#291=ORIENTED_EDGE('',*,*,#411,.F.);
#292=ORIENTED_EDGE('',*,*,#367,.T.);
#293=ORIENTED_EDGE('',*,*,#411,.T.);
#294=ORIENTED_EDGE('',*,*,#326,.F.);
#295=ORIENTED_EDGE('',*,*,#360,.F.);
#296=ORIENTED_EDGE('',*,*,#327,.F.);
#297=ORIENTED_EDGE('',*,*,#370,.F.);
#298=ORIENTED_EDGE('',*,*,#328,.F.);
#299=ORIENTED_EDGE('',*,*,#358,.F.);
#300=ORIENTED_EDGE('',*,*,#329,.F.);
#301=ORIENTED_EDGE('',*,*,#362,.F.);
#302=ORIENTED_EDGE('',*,*,#330,.F.);
#303=ORIENTED_EDGE('',*,*,#366,.F.);
#304=ORIENTED_EDGE('',*,*,#331,.F.);
#305=ORIENTED_EDGE('',*,*,#364,.F.);
#306=ORIENTED_EDGE('',*,*,#332,.F.);
#307=ORIENTED_EDGE('',*,*,#368,.F.);
#308=ORIENTED_EDGE('',*,*,#412,.F.);
#309=ORIENTED_EDGE('',*,*,#369,.T.);
#310=ORIENTED_EDGE('',*,*,#412,.T.);
#311=ORIENTED_EDGE('',*,*,#413,.F.);
#312=ORIENTED_EDGE('',*,*,#365,.T.);
#313=ORIENTED_EDGE('',*,*,#413,.T.);
#314=ORIENTED_EDGE('',*,*,#414,.F.);
#315=ORIENTED_EDGE('',*,*,#363,.T.);
#316=ORIENTED_EDGE('',*,*,#414,.T.);
#317=ORIENTED_EDGE('',*,*,#415,.F.);
#318=ORIENTED_EDGE('',*,*,#361,.T.);
#319=ORIENTED_EDGE('',*,*,#415,.T.);
#320=ORIENTED_EDGE('',*,*,#416,.F.);
#321=ORIENTED_EDGE('',*,*,#359,.T.);
#322=ORIENTED_EDGE('',*,*,#416,.T.);
#323=ORIENTED_EDGE('',*,*,#417,.F.);
#324=ORIENTED_EDGE('',*,*,#357,.T.);
#325=ORIENTED_EDGE('',*,*,#417,.T.);
#326=EDGE_CURVE('',#418,#418,#486,.F.);
#327=EDGE_CURVE('',#419,#419,#487,.F.);
#328=EDGE_CURVE('',#420,#420,#488,.F.);
#329=EDGE_CURVE('',#421,#421,#489,.F.);
#330=EDGE_CURVE('',#422,#422,#490,.F.);
#331=EDGE_CURVE('',#423,#423,#491,.F.);
#332=EDGE_CURVE('',#424,#424,#492,.F.);
#333=EDGE_CURVE('',#425,#426,#38,.T.);
#334=EDGE_CURVE('',#427,#426,#39,.T.);
#335=EDGE_CURVE('',#427,#428,#40,.T.);
#336=EDGE_CURVE('',#428,#425,#41,.T.);
#337=EDGE_CURVE('',#429,#430,#42,.T.);
#338=EDGE_CURVE('',#430,#431,#43,.T.);
#339=EDGE_CURVE('',#432,#431,#44,.T.);
#340=EDGE_CURVE('',#429,#432,#45,.T.);
#341=EDGE_CURVE('',#433,#434,#46,.T.);
#342=EDGE_CURVE('',#434,#430,#47,.F.);
#343=EDGE_CURVE('',#429,#433,#48,.T.);
#344=EDGE_CURVE('',#435,#436,#49,.T.);
#345=EDGE_CURVE('',#436,#434,#50,.F.);
#346=EDGE_CURVE('',#433,#435,#51,.T.);
#347=EDGE_CURVE('',#437,#438,#52,.T.);
#348=EDGE_CURVE('',#437,#439,#493,.T.);
#349=EDGE_CURVE('',#439,#440,#53,.T.);
#350=EDGE_CURVE('',#440,#441,#494,.T.);
#351=EDGE_CURVE('',#441,#442,#54,.T.);
#352=EDGE_CURVE('',#442,#443,#495,.T.);
#353=EDGE_CURVE('',#444,#443,#55,.T.);
#354=EDGE_CURVE('',#444,#438,#496,.T.);
#355=EDGE_CURVE('',#431,#436,#56,.T.);
#356=EDGE_CURVE('',#432,#435,#57,.T.);
#357=EDGE_CURVE('',#445,#445,#497,.T.);
#358=EDGE_CURVE('',#446,#446,#498,.T.);
#359=EDGE_CURVE('',#447,#447,#499,.T.);
#360=EDGE_CURVE('',#448,#448,#500,.T.);
#361=EDGE_CURVE('',#449,#449,#501,.T.);
#362=EDGE_CURVE('',#450,#450,#502,.T.);
#363=EDGE_CURVE('',#451,#451,#503,.T.);
#364=EDGE_CURVE('',#452,#452,#504,.T.);
#365=EDGE_CURVE('',#453,#453,#505,.T.);
#366=EDGE_CURVE('',#454,#454,#506,.T.);
#367=EDGE_CURVE('',#455,#455,#507,.T.);
#368=EDGE_CURVE('',#456,#456,#508,.T.);
#369=EDGE_CURVE('',#457,#457,#509,.T.);
#370=EDGE_CURVE('',#458,#458,#510,.T.);
#371=EDGE_CURVE('',#438,#459,#58,.T.);
#372=EDGE_CURVE('',#460,#459,#59,.T.);
#373=EDGE_CURVE('',#460,#437,#60,.T.);
#374=EDGE_CURVE('',#461,#462,#61,.T.);
#375=EDGE_CURVE('',#461,#463,#511,.F.);
#376=EDGE_CURVE('',#464,#463,#62,.T.);
#377=EDGE_CURVE('',#464,#460,#512,.F.);
#378=EDGE_CURVE('',#459,#465,#513,.F.);
#379=EDGE_CURVE('',#465,#466,#63,.T.);
#380=EDGE_CURVE('',#466,#462,#514,.F.);
#381=EDGE_CURVE('',#467,#426,#64,.T.);
#382=EDGE_CURVE('',#467,#468,#65,.T.);
#383=EDGE_CURVE('',#468,#427,#66,.T.);
#384=EDGE_CURVE('',#469,#425,#67,.T.);
#385=EDGE_CURVE('',#469,#467,#68,.T.);
#386=EDGE_CURVE('',#470,#428,#69,.T.);
#387=EDGE_CURVE('',#470,#469,#70,.T.);
#388=EDGE_CURVE('',#468,#470,#71,.T.);
#389=EDGE_CURVE('',#462,#442,#72,.F.);
#390=EDGE_CURVE('',#441,#461,#73,.F.);
#391=EDGE_CURVE('',#471,#472,#74,.T.);
#392=EDGE_CURVE('',#472,#473,#75,.T.);
#393=EDGE_CURVE('',#473,#474,#76,.T.);
#394=EDGE_CURVE('',#474,#471,#77,.T.);
#395=EDGE_CURVE('',#475,#476,#78,.T.);
#396=EDGE_CURVE('',#476,#477,#79,.T.);
#397=EDGE_CURVE('',#477,#478,#80,.F.);
#398=EDGE_CURVE('',#478,#475,#81,.F.);
#399=EDGE_CURVE('',#465,#444,#82,.F.);
#400=EDGE_CURVE('',#443,#466,#83,.T.);
#401=EDGE_CURVE('',#439,#464,#84,.F.);
#402=EDGE_CURVE('',#463,#440,#85,.T.);
#403=EDGE_CURVE('',#431,#478,#19,.F.);
#404=EDGE_CURVE('',#475,#430,#20,.T.);
#405=EDGE_CURVE('',#476,#434,#21,.T.);
#406=EDGE_CURVE('',#436,#477,#22,.F.);
#407=EDGE_CURVE('',#471,#470,#86,.T.);
#408=EDGE_CURVE('',#469,#474,#87,.F.);
#409=EDGE_CURVE('',#467,#473,#88,.F.);
#410=EDGE_CURVE('',#472,#468,#89,.F.);
#411=EDGE_CURVE('',#479,#479,#515,.T.);
#412=EDGE_CURVE('',#480,#480,#516,.T.);
#413=EDGE_CURVE('',#481,#481,#517,.T.);
#414=EDGE_CURVE('',#482,#482,#518,.T.);
#415=EDGE_CURVE('',#483,#483,#519,.T.);
#416=EDGE_CURVE('',#484,#484,#520,.T.);
#417=EDGE_CURVE('',#485,#485,#521,.T.);
#418=VERTEX_POINT('',#1137);
#419=VERTEX_POINT('',#1139);
#420=VERTEX_POINT('',#1141);
#421=VERTEX_POINT('',#1143);
#422=VERTEX_POINT('',#1145);
#423=VERTEX_POINT('',#1147);
#424=VERTEX_POINT('',#1149);
#425=VERTEX_POINT('',#1151);
#426=VERTEX_POINT('',#1152);
#427=VERTEX_POINT('',#1154);
#428=VERTEX_POINT('',#1156);
#429=VERTEX_POINT('',#1160);
#430=VERTEX_POINT('',#1161);
#431=VERTEX_POINT('',#1163);
#432=VERTEX_POINT('',#1165);
#433=VERTEX_POINT('',#1169);
#434=VERTEX_POINT('',#1170);
#435=VERTEX_POINT('',#1175);
#436=VERTEX_POINT('',#1176);
#437=VERTEX_POINT('',#1181);
#438=VERTEX_POINT('',#1182);
#439=VERTEX_POINT('',#1184);
#440=VERTEX_POINT('',#1186);
#441=VERTEX_POINT('',#1188);
#442=VERTEX_POINT('',#1190);
#443=VERTEX_POINT('',#1192);
#444=VERTEX_POINT('',#1194);
#445=VERTEX_POINT('',#1201);
#446=VERTEX_POINT('',#1203);
#447=VERTEX_POINT('',#1206);
#448=VERTEX_POINT('',#1208);
#449=VERTEX_POINT('',#1211);
#450=VERTEX_POINT('',#1213);
#451=VERTEX_POINT('',#1216);
#452=VERTEX_POINT('',#1218);
#453=VERTEX_POINT('',#1221);
#454=VERTEX_POINT('',#1223);
#455=VERTEX_POINT('',#1226);
#456=VERTEX_POINT('',#1228);
#457=VERTEX_POINT('',#1231);
#458=VERTEX_POINT('',#1233);
#459=VERTEX_POINT('',#1236);
#460=VERTEX_POINT('',#1238);
#461=VERTEX_POINT('',#1242);
#462=VERTEX_POINT('',#1243);
#463=VERTEX_POINT('',#1245);
#464=VERTEX_POINT('',#1247);
#465=VERTEX_POINT('',#1250);
#466=VERTEX_POINT('',#1252);
#467=VERTEX_POINT('',#1255);
#468=VERTEX_POINT('',#1257);
#469=VERTEX_POINT('',#1261);
#470=VERTEX_POINT('',#1265);
#471=VERTEX_POINT('',#1274);
#472=VERTEX_POINT('',#1275);
#473=VERTEX_POINT('',#1277);
#474=VERTEX_POINT('',#1279);
#475=VERTEX_POINT('',#1282);
#476=VERTEX_POINT('',#1283);
#477=VERTEX_POINT('',#1285);
#478=VERTEX_POINT('',#1287);
#479=VERTEX_POINT('',#1317);
#480=VERTEX_POINT('',#1328);
#481=VERTEX_POINT('',#1332);
#482=VERTEX_POINT('',#1336);
#483=VERTEX_POINT('',#1340);
#484=VERTEX_POINT('',#1344);
#485=VERTEX_POINT('',#1348);
#486=CIRCLE('',#796,0.0075);
#487=CIRCLE('',#797,0.0075);
#488=CIRCLE('',#798,0.0075);
#489=CIRCLE('',#799,0.0075);
#490=CIRCLE('',#800,0.0075);
#491=CIRCLE('',#801,0.0075);
#492=CIRCLE('',#802,0.0075);
#493=CIRCLE('',#807,0.002);
#494=CIRCLE('',#808,0.002);
#495=CIRCLE('',#809,0.002);
#496=CIRCLE('',#810,0.002);
#497=CIRCLE('',#813,0.0015);
#498=CIRCLE('',#814,0.0035);
#499=CIRCLE('',#816,0.0015);
#500=CIRCLE('',#817,0.0035);
#501=CIRCLE('',#819,0.0015);
#502=CIRCLE('',#820,0.0035);
#503=CIRCLE('',#822,0.0015);
#504=CIRCLE('',#823,0.0035);
#505=CIRCLE('',#825,0.0015);
#506=CIRCLE('',#826,0.0035);
#507=CIRCLE('',#828,0.003);
#508=CIRCLE('',#829,0.0035);
#509=CIRCLE('',#831,0.0015);
#510=CIRCLE('',#832,0.0035);
#511=CIRCLE('',#835,0.002);
#512=CIRCLE('',#836,0.002);
#513=CIRCLE('',#837,0.002);
#514=CIRCLE('',#838,0.002);
#515=CIRCLE('',#863,0.003);
#516=CIRCLE('',#873,0.0015);
#517=CIRCLE('',#876,0.0015);
#518=CIRCLE('',#879,0.0015);
#519=CIRCLE('',#882,0.0015);
#520=CIRCLE('',#885,0.0015);
#521=CIRCLE('',#888,0.0015);
#522=EDGE_LOOP('',(#142));
#523=EDGE_LOOP('',(#143));
#524=EDGE_LOOP('',(#144));
#525=EDGE_LOOP('',(#145));
#526=EDGE_LOOP('',(#146));
#527=EDGE_LOOP('',(#147));
#528=EDGE_LOOP('',(#148));
#529=EDGE_LOOP('',(#149,#150,#151,#152));
#530=EDGE_LOOP('',(#153,#154,#155,#156));
#531=EDGE_LOOP('',(#157,#158,#159,#160));
#532=EDGE_LOOP('',(#161,#162,#163,#164));
#533=EDGE_LOOP('',(#165,#166,#167,#168,#169,#170,#171,#172));
#534=EDGE_LOOP('',(#173,#174,#175,#176));
#535=EDGE_LOOP('',(#177,#178,#179,#180));
#536=EDGE_LOOP('',(#181));
#537=EDGE_LOOP('',(#182));
#538=EDGE_LOOP('',(#183));
#539=EDGE_LOOP('',(#184));
#540=EDGE_LOOP('',(#185));
#541=EDGE_LOOP('',(#186));
#542=EDGE_LOOP('',(#187));
#543=EDGE_LOOP('',(#188));
#544=EDGE_LOOP('',(#189));
#545=EDGE_LOOP('',(#190));
#546=EDGE_LOOP('',(#191));
#547=EDGE_LOOP('',(#192));
#548=EDGE_LOOP('',(#193));
#549=EDGE_LOOP('',(#194));
#550=EDGE_LOOP('',(#195,#196,#197,#198));
#551=EDGE_LOOP('',(#199,#200,#201,#202,#203,#204,#205,#206));
#552=EDGE_LOOP('',(#207,#208,#209,#210));
#553=EDGE_LOOP('',(#211,#212,#213,#214));
#554=EDGE_LOOP('',(#215,#216,#217,#218));
#555=EDGE_LOOP('',(#219,#220,#221,#222));
#556=EDGE_LOOP('',(#223,#224,#225,#226));
#557=EDGE_LOOP('',(#227,#228,#229,#230));
#558=EDGE_LOOP('',(#231,#232,#233,#234));
#559=EDGE_LOOP('',(#235,#236,#237,#238));
#560=EDGE_LOOP('',(#239,#240,#241,#242));
#561=EDGE_LOOP('',(#243,#244,#245,#246));
#562=EDGE_LOOP('',(#247,#248,#249,#250));
#563=EDGE_LOOP('',(#251,#252,#253,#254));
#564=EDGE_LOOP('',(#255,#256,#257,#258));
#565=EDGE_LOOP('',(#259,#260,#261,#262));
#566=EDGE_LOOP('',(#263,#264,#265,#266));
#567=EDGE_LOOP('',(#267,#268,#269,#270));
#568=EDGE_LOOP('',(#271,#272,#273,#274));
#569=EDGE_LOOP('',(#275,#276,#277,#278));
#570=EDGE_LOOP('',(#279,#280,#281,#282));
#571=EDGE_LOOP('',(#283,#284,#285,#286));
#572=EDGE_LOOP('',(#287,#288,#289,#290));
#573=EDGE_LOOP('',(#291));
#574=EDGE_LOOP('',(#292));
#575=EDGE_LOOP('',(#293));
#576=EDGE_LOOP('',(#294));
#577=EDGE_LOOP('',(#295));
#578=EDGE_LOOP('',(#296));
#579=EDGE_LOOP('',(#297));
#580=EDGE_LOOP('',(#298));
#581=EDGE_LOOP('',(#299));
#582=EDGE_LOOP('',(#300));
#583=EDGE_LOOP('',(#301));
#584=EDGE_LOOP('',(#302));
#585=EDGE_LOOP('',(#303));
#586=EDGE_LOOP('',(#304));
#587=EDGE_LOOP('',(#305));
#588=EDGE_LOOP('',(#306));
#589=EDGE_LOOP('',(#307));
#590=EDGE_LOOP('',(#308));
#591=EDGE_LOOP('',(#309));
#592=EDGE_LOOP('',(#310));
#593=EDGE_LOOP('',(#311));
#594=EDGE_LOOP('',(#312));
#595=EDGE_LOOP('',(#313));
#596=EDGE_LOOP('',(#314));
#597=EDGE_LOOP('',(#315));
#598=EDGE_LOOP('',(#316));
#599=EDGE_LOOP('',(#317));
#600=EDGE_LOOP('',(#318));
#601=EDGE_LOOP('',(#319));
#602=EDGE_LOOP('',(#320));
#603=EDGE_LOOP('',(#321));
#604=EDGE_LOOP('',(#322));
#605=EDGE_LOOP('',(#323));
#606=EDGE_LOOP('',(#324));
#607=EDGE_LOOP('',(#325));
#608=FACE_BOUND('',#522,.T.);
#609=FACE_BOUND('',#523,.T.);
#610=FACE_BOUND('',#524,.T.);
#611=FACE_BOUND('',#525,.T.);
#612=FACE_BOUND('',#526,.T.);
#613=FACE_BOUND('',#527,.T.);
#614=FACE_BOUND('',#528,.T.);
#615=FACE_BOUND('',#529,.T.);
#616=FACE_BOUND('',#530,.T.);
#617=FACE_BOUND('',#531,.T.);
#618=FACE_BOUND('',#532,.T.);
#619=FACE_BOUND('',#533,.T.);
#620=FACE_BOUND('',#534,.T.);
#621=FACE_BOUND('',#535,.T.);
#622=FACE_BOUND('',#536,.T.);
#623=FACE_BOUND('',#537,.T.);
#624=FACE_BOUND('',#538,.T.);
#625=FACE_BOUND('',#539,.T.);
#626=FACE_BOUND('',#540,.T.);
#627=FACE_BOUND('',#541,.T.);
#628=FACE_BOUND('',#542,.T.);
#629=FACE_BOUND('',#543,.T.);
#630=FACE_BOUND('',#544,.T.);
#631=FACE_BOUND('',#545,.T.);
#632=FACE_BOUND('',#546,.T.);
#633=FACE_BOUND('',#547,.T.);
#634=FACE_BOUND('',#548,.T.);
#635=FACE_BOUND('',#549,.T.);
#636=FACE_BOUND('',#550,.T.);
#637=FACE_BOUND('',#551,.T.);
#638=FACE_BOUND('',#552,.T.);
#639=FACE_BOUND('',#553,.T.);
#640=FACE_BOUND('',#554,.T.);
#641=FACE_BOUND('',#555,.T.);
#642=FACE_BOUND('',#556,.T.);
#643=FACE_BOUND('',#557,.T.);
#644=FACE_BOUND('',#558,.T.);
#645=FACE_BOUND('',#559,.T.);
#646=FACE_BOUND('',#560,.T.);
#647=FACE_BOUND('',#561,.T.);
#648=FACE_BOUND('',#562,.T.);
#649=FACE_BOUND('',#563,.T.);
#650=FACE_BOUND('',#564,.T.);
#651=FACE_BOUND('',#565,.T.);
#652=FACE_BOUND('',#566,.T.);
#653=FACE_BOUND('',#567,.T.);
#654=FACE_BOUND('',#568,.T.);
#655=FACE_BOUND('',#569,.T.);
#656=FACE_BOUND('',#570,.T.);
#657=FACE_BOUND('',#571,.T.);
#658=FACE_BOUND('',#572,.T.);
#659=FACE_BOUND('',#573,.T.);
#660=FACE_BOUND('',#574,.T.);
#661=FACE_BOUND('',#575,.T.);
#662=FACE_BOUND('',#576,.T.);
#663=FACE_BOUND('',#577,.T.);
#664=FACE_BOUND('',#578,.T.);
#665=FACE_BOUND('',#579,.T.);
#666=FACE_BOUND('',#580,.T.);
#667=FACE_BOUND('',#581,.T.);
#668=FACE_BOUND('',#582,.T.);
#669=FACE_BOUND('',#583,.T.);
#670=FACE_BOUND('',#584,.T.);
#671=FACE_BOUND('',#585,.T.);
#672=FACE_BOUND('',#586,.T.);
#673=FACE_BOUND('',#587,.T.);
#674=FACE_BOUND('',#588,.T.);
#675=FACE_BOUND('',#589,.T.);
#676=FACE_BOUND('',#590,.T.);
#677=FACE_BOUND('',#591,.T.);
#678=FACE_BOUND('',#592,.T.);
#679=FACE_BOUND('',#593,.T.);
#680=FACE_BOUND('',#594,.T.);
#681=FACE_BOUND('',#595,.T.);
#682=FACE_BOUND('',#596,.T.);
#683=FACE_BOUND('',#597,.T.);
#684=FACE_BOUND('',#598,.T.);
#685=FACE_BOUND('',#599,.T.);
#686=FACE_BOUND('',#600,.T.);
#687=FACE_BOUND('',#601,.T.);
#688=FACE_BOUND('',#602,.T.);
#689=FACE_BOUND('',#603,.T.);
#690=FACE_BOUND('',#604,.T.);
#691=FACE_BOUND('',#605,.T.);
#692=FACE_BOUND('',#606,.T.);
#693=FACE_BOUND('',#607,.T.);
#694=PLANE('',#795);
#695=PLANE('',#803);
#696=PLANE('',#804);
#697=PLANE('',#805);
#698=PLANE('',#806);
#699=PLANE('',#811);
#700=PLANE('',#812);
#701=PLANE('',#815);
#702=PLANE('',#818);
#703=PLANE('',#821);
#704=PLANE('',#824);
#705=PLANE('',#827);
#706=PLANE('',#830);
#707=PLANE('',#833);
#708=PLANE('',#834);
#709=PLANE('',#839);
#710=PLANE('',#840);
#711=PLANE('',#841);
#712=PLANE('',#842);
#713=PLANE('',#843);
#714=PLANE('',#844);
#715=PLANE('',#845);
#716=PLANE('',#858);
#717=PLANE('',#859);
#718=PLANE('',#860);
#719=PLANE('',#861);
#720=PLANE('',#864);
#721=PLANE('',#874);
#722=PLANE('',#877);
#723=PLANE('',#880);
#724=PLANE('',#883);
#725=PLANE('',#886);
#726=PLANE('',#889);
#727=ADVANCED_FACE('',(#608,#609,#610,#611,#612,#613,#614,#615),#694,.T.);
#728=ADVANCED_FACE('',(#616),#695,.F.);
#729=ADVANCED_FACE('',(#617),#696,.T.);
#730=ADVANCED_FACE('',(#618),#697,.T.);
#731=ADVANCED_FACE('',(#619,#620),#698,.F.);
#732=ADVANCED_FACE('',(#621),#699,.F.);
#733=ADVANCED_FACE('',(#622,#623),#700,.T.);
#734=ADVANCED_FACE('',(#624,#625),#701,.T.);
#735=ADVANCED_FACE('',(#626,#627),#702,.T.);
#736=ADVANCED_FACE('',(#628,#629),#703,.T.);
#737=ADVANCED_FACE('',(#630,#631),#704,.T.);
#738=ADVANCED_FACE('',(#632,#633),#705,.T.);
#739=ADVANCED_FACE('',(#634,#635),#706,.T.);
#740=ADVANCED_FACE('',(#636),#707,.F.);
#741=ADVANCED_FACE('',(#637,#638),#708,.T.);
#742=ADVANCED_FACE('',(#639),#709,.T.);
#743=ADVANCED_FACE('',(#640),#710,.T.);
#744=ADVANCED_FACE('',(#641),#711,.T.);
#745=ADVANCED_FACE('',(#642),#712,.T.);
#746=ADVANCED_FACE('',(#643,#644),#713,.T.);
#747=ADVANCED_FACE('',(#645),#714,.F.);
#748=ADVANCED_FACE('',(#646),#715,.F.);
#749=ADVANCED_FACE('',(#647),#23,.F.);
#750=ADVANCED_FACE('',(#648),#24,.F.);
#751=ADVANCED_FACE('',(#649),#25,.F.);
#752=ADVANCED_FACE('',(#650),#26,.F.);
#753=ADVANCED_FACE('',(#651),#27,.T.);
#754=ADVANCED_FACE('',(#652),#28,.T.);
#755=ADVANCED_FACE('',(#653),#29,.T.);
#756=ADVANCED_FACE('',(#654),#30,.T.);
#757=ADVANCED_FACE('',(#655),#716,.F.);
#758=ADVANCED_FACE('',(#656),#717,.F.);
#759=ADVANCED_FACE('',(#657),#718,.F.);
#760=ADVANCED_FACE('',(#658),#719,.F.);
#761=ADVANCED_FACE('',(#659,#660),#31,.T.);
#762=ADVANCED_FACE('',(#661),#720,.T.);
#763=ADVANCED_FACE('',(#662,#663),#12,.F.);
#764=ADVANCED_FACE('',(#664,#665),#13,.F.);
#765=ADVANCED_FACE('',(#666,#667),#14,.F.);
#766=ADVANCED_FACE('',(#668,#669),#15,.F.);
#767=ADVANCED_FACE('',(#670,#671),#16,.F.);
#768=ADVANCED_FACE('',(#672,#673),#17,.F.);
#769=ADVANCED_FACE('',(#674,#675),#18,.F.);
#770=ADVANCED_FACE('',(#676,#677),#32,.F.);
#771=ADVANCED_FACE('',(#678),#721,.T.);
#772=ADVANCED_FACE('',(#679,#680),#33,.F.);
#773=ADVANCED_FACE('',(#681),#722,.T.);
#774=ADVANCED_FACE('',(#682,#683),#34,.F.);
#775=ADVANCED_FACE('',(#684),#723,.T.);
#776=ADVANCED_FACE('',(#685,#686),#35,.F.);
#777=ADVANCED_FACE('',(#687),#724,.T.);
#778=ADVANCED_FACE('',(#688,#689),#36,.F.);
#779=ADVANCED_FACE('',(#690),#725,.T.);
#780=ADVANCED_FACE('',(#691,#692),#37,.F.);
#781=ADVANCED_FACE('',(#693),#726,.T.);
#782=CLOSED_SHELL('',(#727,#728,#729,#730,#731,#732,#733,#734,#735,#736,
#737,#738,#739,#740,#741,#742,#743,#744,#745,#746,#747,#748,#749,#750,#751,
#752,#753,#754,#755,#756,#757,#758,#759,#760,#761,#762,#763,#764,#765,#766,
#767,#768,#769,#770,#771,#772,#773,#774,#775,#776,#777,#778,#779,#780,#781));
#783=STYLED_ITEM('',(#784),#791);
#784=PRESENTATION_STYLE_ASSIGNMENT((#785));
#785=SURFACE_STYLE_USAGE(.BOTH.,#786);
#786=SURFACE_SIDE_STYLE('',(#787));
#787=SURFACE_STYLE_FILL_AREA(#788);
#788=FILL_AREA_STYLE('',(#789));
#789=FILL_AREA_STYLE_COLOUR('',#790);
#790=COLOUR_RGB('',0.647058823529412,0.647058823529412,0.647058823529412);
#791=MANIFOLD_SOLID_BREP('Part 2',#782);
#792=SHAPE_DEFINITION_REPRESENTATION(#1356,#793);
#793=SHAPE_REPRESENTATION('Part 2',(#794),#1351);
#794=AXIS2_PLACEMENT_3D('',#1134,#890,#891);
#795=AXIS2_PLACEMENT_3D('',#1135,#892,#893);
#796=AXIS2_PLACEMENT_3D('',#1136,#894,#895);
#797=AXIS2_PLACEMENT_3D('',#1138,#896,#897);
#798=AXIS2_PLACEMENT_3D('',#1140,#898,#899);
#799=AXIS2_PLACEMENT_3D('',#1142,#900,#901);
#800=AXIS2_PLACEMENT_3D('',#1144,#902,#903);
#801=AXIS2_PLACEMENT_3D('',#1146,#904,#905);
#802=AXIS2_PLACEMENT_3D('',#1148,#906,#907);
#803=AXIS2_PLACEMENT_3D('',#1158,#912,#913);
#804=AXIS2_PLACEMENT_3D('',#1167,#918,#919);
#805=AXIS2_PLACEMENT_3D('',#1173,#923,#924);
#806=AXIS2_PLACEMENT_3D('',#1179,#928,#929);
#807=AXIS2_PLACEMENT_3D('',#1183,#931,#932);
#808=AXIS2_PLACEMENT_3D('',#1187,#934,#935);
#809=AXIS2_PLACEMENT_3D('',#1191,#937,#938);
#810=AXIS2_PLACEMENT_3D('',#1195,#940,#941);
#811=AXIS2_PLACEMENT_3D('',#1198,#944,#945);
#812=AXIS2_PLACEMENT_3D('',#1199,#946,#947);
#813=AXIS2_PLACEMENT_3D('',#1200,#948,#949);
#814=AXIS2_PLACEMENT_3D('',#1202,#950,#951);
#815=AXIS2_PLACEMENT_3D('',#1204,#952,#953);
#816=AXIS2_PLACEMENT_3D('',#1205,#954,#955);
#817=AXIS2_PLACEMENT_3D('',#1207,#956,#957);
#818=AXIS2_PLACEMENT_3D('',#1209,#958,#959);
#819=AXIS2_PLACEMENT_3D('',#1210,#960,#961);
#820=AXIS2_PLACEMENT_3D('',#1212,#962,#963);
#821=AXIS2_PLACEMENT_3D('',#1214,#964,#965);
#822=AXIS2_PLACEMENT_3D('',#1215,#966,#967);
#823=AXIS2_PLACEMENT_3D('',#1217,#968,#969);
#824=AXIS2_PLACEMENT_3D('',#1219,#970,#971);
#825=AXIS2_PLACEMENT_3D('',#1220,#972,#973);
#826=AXIS2_PLACEMENT_3D('',#1222,#974,#975);
#827=AXIS2_PLACEMENT_3D('',#1224,#976,#977);
#828=AXIS2_PLACEMENT_3D('',#1225,#978,#979);
#829=AXIS2_PLACEMENT_3D('',#1227,#980,#981);
#830=AXIS2_PLACEMENT_3D('',#1229,#982,#983);
#831=AXIS2_PLACEMENT_3D('',#1230,#984,#985);
#832=AXIS2_PLACEMENT_3D('',#1232,#986,#987);
#833=AXIS2_PLACEMENT_3D('',#1234,#988,#989);
#834=AXIS2_PLACEMENT_3D('',#1240,#993,#994);
#835=AXIS2_PLACEMENT_3D('',#1244,#996,#997);
#836=AXIS2_PLACEMENT_3D('',#1248,#999,#1000);
#837=AXIS2_PLACEMENT_3D('',#1249,#1001,#1002);
#838=AXIS2_PLACEMENT_3D('',#1253,#1004,#1005);
#839=AXIS2_PLACEMENT_3D('',#1259,#1009,#1010);
#840=AXIS2_PLACEMENT_3D('',#1263,#1013,#1014);
#841=AXIS2_PLACEMENT_3D('',#1267,#1017,#1018);
#842=AXIS2_PLACEMENT_3D('',#1269,#1020,#1021);
#843=AXIS2_PLACEMENT_3D('',#1272,#1024,#1025);
#844=AXIS2_PLACEMENT_3D('',#1289,#1034,#1035);
#845=AXIS2_PLACEMENT_3D('',#1292,#1038,#1039);
#846=AXIS2_PLACEMENT_3D('',#1295,#1042,#1043);
#847=AXIS2_PLACEMENT_3D('',#1296,#1044,#1045);
#848=AXIS2_PLACEMENT_3D('',#1297,#1046,#1047);
#849=AXIS2_PLACEMENT_3D('',#1298,#1048,#1049);
#850=AXIS2_PLACEMENT_3D('',#1299,#1050,#1051);
#851=AXIS2_PLACEMENT_3D('',#1300,#1052,#1053);
#852=AXIS2_PLACEMENT_3D('',#1301,#1054,#1055);
#853=AXIS2_PLACEMENT_3D('',#1302,#1056,#1057);
#854=AXIS2_PLACEMENT_3D('',#1303,#1058,#1059);
#855=AXIS2_PLACEMENT_3D('',#1304,#1060,#1061);
#856=AXIS2_PLACEMENT_3D('',#1305,#1062,#1063);
#857=AXIS2_PLACEMENT_3D('',#1306,#1064,#1065);
#858=AXIS2_PLACEMENT_3D('',#1307,#1066,#1067);
#859=AXIS2_PLACEMENT_3D('',#1310,#1070,#1071);
#860=AXIS2_PLACEMENT_3D('',#1312,#1073,#1074);
#861=AXIS2_PLACEMENT_3D('',#1314,#1076,#1077);
#862=AXIS2_PLACEMENT_3D('',#1315,#1078,#1079);
#863=AXIS2_PLACEMENT_3D('',#1316,#1080,#1081);
#864=AXIS2_PLACEMENT_3D('',#1318,#1082,#1083);
#865=AXIS2_PLACEMENT_3D('',#1319,#1084,#1085);
#866=AXIS2_PLACEMENT_3D('',#1320,#1086,#1087);
#867=AXIS2_PLACEMENT_3D('',#1321,#1088,#1089);
#868=AXIS2_PLACEMENT_3D('',#1322,#1090,#1091);
#869=AXIS2_PLACEMENT_3D('',#1323,#1092,#1093);
#870=AXIS2_PLACEMENT_3D('',#1324,#1094,#1095);
#871=AXIS2_PLACEMENT_3D('',#1325,#1096,#1097);
#872=AXIS2_PLACEMENT_3D('',#1326,#1098,#1099);
#873=AXIS2_PLACEMENT_3D('',#1327,#1100,#1101);
#874=AXIS2_PLACEMENT_3D('',#1329,#1102,#1103);
#875=AXIS2_PLACEMENT_3D('',#1330,#1104,#1105);
#876=AXIS2_PLACEMENT_3D('',#1331,#1106,#1107);
#877=AXIS2_PLACEMENT_3D('',#1333,#1108,#1109);
#878=AXIS2_PLACEMENT_3D('',#1334,#1110,#1111);
#879=AXIS2_PLACEMENT_3D('',#1335,#1112,#1113);
#880=AXIS2_PLACEMENT_3D('',#1337,#1114,#1115);
#881=AXIS2_PLACEMENT_3D('',#1338,#1116,#1117);
#882=AXIS2_PLACEMENT_3D('',#1339,#1118,#1119);
#883=AXIS2_PLACEMENT_3D('',#1341,#1120,#1121);
#884=AXIS2_PLACEMENT_3D('',#1342,#1122,#1123);
#885=AXIS2_PLACEMENT_3D('',#1343,#1124,#1125);
#886=AXIS2_PLACEMENT_3D('',#1345,#1126,#1127);
#887=AXIS2_PLACEMENT_3D('',#1346,#1128,#1129);
#888=AXIS2_PLACEMENT_3D('',#1347,#1130,#1131);
#889=AXIS2_PLACEMENT_3D('',#1349,#1132,#1133);
#890=DIRECTION('',(0.,0.,1.));
#891=DIRECTION('',(1.,0.,0.));
#892=DIRECTION('',(0.,0.,1.));
#893=DIRECTION('',(1.,0.,0.));
#894=DIRECTION('',(0.,0.,1.));
#895=DIRECTION('',(1.,0.,0.));
#896=DIRECTION('',(0.,0.,1.));
#897=DIRECTION('',(1.,0.,0.));
#898=DIRECTION('',(0.,0.,1.));
#899=DIRECTION('',(1.,0.,0.));
#900=DIRECTION('',(0.,0.,1.));
#901=DIRECTION('',(1.,0.,0.));
#902=DIRECTION('',(0.,0.,1.));
#903=DIRECTION('',(1.,0.,0.));
#904=DIRECTION('',(0.,0.,1.));
#905=DIRECTION('',(1.,0.,0.));
#906=DIRECTION('',(0.,0.,1.));
#907=DIRECTION('',(1.,0.,0.));
#908=DIRECTION('',(0.,1.,0.));
#909=DIRECTION('',(1.,0.,0.));
#910=DIRECTION('',(0.,-1.,0.));
#911=DIRECTION('',(1.,0.,0.));
#912=DIRECTION('',(1.,1.99651500966921E-16,0.));
#913=DIRECTION('',(-1.99651500966921E-16,1.,0.));
#914=DIRECTION('',(0.,0.,1.));
#915=DIRECTION('',(-1.99651500966921E-16,1.,0.));
#916=DIRECTION('',(0.,0.,1.));
#917=DIRECTION('',(-1.99651500966921E-16,1.,0.));
#918=DIRECTION('',(0.,-1.,0.));
#919=DIRECTION('',(0.,0.,-1.));
#920=DIRECTION('',(0.,0.,1.));
#921=DIRECTION('',(1.,0.,0.));
#922=DIRECTION('',(1.,0.,0.));
#923=DIRECTION('',(1.,1.99651500966921E-16,0.));
#924=DIRECTION('',(-1.99651500966921E-16,1.,0.));
#925=DIRECTION('',(0.,0.,1.));
#926=DIRECTION('',(-1.99651500966921E-16,1.,0.));
#927=DIRECTION('',(-1.99651500966921E-16,1.,0.));
#928=DIRECTION('',(0.,-1.,0.));
#929=DIRECTION('',(0.,0.,-1.));
#930=DIRECTION('',(0.,0.,-1.));
#931=DIRECTION('',(0.,-1.,0.));
#932=DIRECTION('',(0.,0.,-1.));
#933=DIRECTION('',(-1.,0.,0.));
#934=DIRECTION('',(0.,-1.,0.));
#935=DIRECTION('',(0.,0.,-1.));
#936=DIRECTION('',(0.,0.,-1.));
#937=DIRECTION('',(0.,-1.,0.));
#938=DIRECTION('',(0.,0.,-1.));
#939=DIRECTION('',(-1.,0.,0.));
#940=DIRECTION('',(0.,-1.,0.));
#941=DIRECTION('',(0.,0.,-1.));
#942=DIRECTION('',(1.,0.,0.));
#943=DIRECTION('',(1.,0.,0.));
#944=DIRECTION('',(0.,0.,1.));
#945=DIRECTION('',(1.,0.,0.));
#946=DIRECTION('',(0.,0.,1.));
#947=DIRECTION('',(1.,0.,0.));
#948=DIRECTION('',(0.,0.,1.));
#949=DIRECTION('',(1.,0.,0.));
#950=DIRECTION('',(0.,0.,1.));
#951=DIRECTION('',(1.,0.,0.));
#952=DIRECTION('',(0.,0.,1.));
#953=DIRECTION('',(1.,0.,0.));
#954=DIRECTION('',(0.,0.,1.));
#955=DIRECTION('',(1.,0.,0.));
#956=DIRECTION('',(0.,0.,1.));
#957=DIRECTION('',(1.,0.,0.));
#958=DIRECTION('',(0.,0.,1.));
#959=DIRECTION('',(1.,0.,0.));
#960=DIRECTION('',(0.,0.,1.));
#961=DIRECTION('',(1.,0.,0.));
#962=DIRECTION('',(0.,0.,1.));
#963=DIRECTION('',(1.,0.,0.));
#964=DIRECTION('',(0.,0.,1.));
#965=DIRECTION('',(1.,0.,0.));
#966=DIRECTION('',(0.,0.,1.));
#967=DIRECTION('',(1.,-7.22801448323669E-17,0.));
#968=DIRECTION('',(0.,0.,1.));
#969=DIRECTION('',(1.,-6.19544098563145E-17,0.));
#970=DIRECTION('',(0.,0.,1.));
#971=DIRECTION('',(1.,0.,0.));
#972=DIRECTION('',(0.,0.,1.));
#973=DIRECTION('',(1.,0.,0.));
#974=DIRECTION('',(0.,0.,1.));
#975=DIRECTION('',(1.,0.,0.));
#976=DIRECTION('',(0.,0.,1.));
#977=DIRECTION('',(1.,0.,0.));
#978=DIRECTION('',(0.,0.,1.));
#979=DIRECTION('',(1.,0.,0.));
#980=DIRECTION('',(0.,0.,1.));
#981=DIRECTION('',(1.,0.,0.));
#982=DIRECTION('',(0.,0.,1.));
#983=DIRECTION('',(1.,0.,0.));
#984=DIRECTION('',(0.,0.,1.));
#985=DIRECTION('',(1.,0.,0.));
#986=DIRECTION('',(0.,0.,1.));
#987=DIRECTION('',(1.,0.,0.));
#988=DIRECTION('',(1.,0.,0.));
#989=DIRECTION('',(0.,0.,-1.));
#990=DIRECTION('',(0.,-1.,-1.44560289664734E-16));
#991=DIRECTION('',(0.,0.,-1.));
#992=DIRECTION('',(0.,1.,0.));
#993=DIRECTION('',(0.,-1.,0.));
#994=DIRECTION('',(0.,0.,-1.));
#995=DIRECTION('',(0.,0.,-1.));
#996=DIRECTION('',(0.,-1.,0.));
#997=DIRECTION('',(0.,0.,-1.));
#998=DIRECTION('',(-1.,0.,0.));
#999=DIRECTION('',(0.,-1.,0.));
#1000=DIRECTION('',(0.,0.,-1.));
#1001=DIRECTION('',(0.,-1.,0.));
#1002=DIRECTION('',(0.,0.,-1.));
#1003=DIRECTION('',(-1.,0.,0.));
#1004=DIRECTION('',(0.,-1.,0.));
#1005=DIRECTION('',(0.,0.,-1.));
#1006=DIRECTION('',(0.,0.,-1.));
#1007=DIRECTION('',(-1.,0.,0.));
#1008=DIRECTION('',(0.,0.,-1.));
#1009=DIRECTION('',(-1.,0.,0.));
#1010=DIRECTION('',(0.,0.,1.));
#1011=DIRECTION('',(0.,0.,-1.));
#1012=DIRECTION('',(0.,1.,0.));
#1013=DIRECTION('',(0.,1.,0.));
#1014=DIRECTION('',(0.,0.,1.));
#1015=DIRECTION('',(0.,0.,-1.));
#1016=DIRECTION('',(1.,0.,0.));
#1017=DIRECTION('',(1.,0.,0.));
#1018=DIRECTION('',(0.,0.,-1.));
#1019=DIRECTION('',(0.,-1.,0.));
#1020=DIRECTION('',(1.,0.,0.));
#1021=DIRECTION('',(0.,0.,-1.));
#1022=DIRECTION('',(0.,-1.,-1.44560289664734E-16));
#1023=DIRECTION('',(0.,1.,0.));
#1024=DIRECTION('',(0.,0.,1.));
#1025=DIRECTION('',(1.,0.,0.));
#1026=DIRECTION('',(0.,1.,0.));
#1027=DIRECTION('',(1.,0.,0.));
#1028=DIRECTION('',(0.,-1.,0.));
#1029=DIRECTION('',(-1.,0.,0.));
#1030=DIRECTION('',(1.,0.,0.));
#1031=DIRECTION('',(-1.99651500966921E-16,1.,0.));
#1032=DIRECTION('',(1.,0.,0.));
#1033=DIRECTION('',(-1.99651500966921E-16,1.,0.));
#1034=DIRECTION('',(0.,1.44560289664734E-16,-1.));
#1035=DIRECTION('',(0.,1.,1.44560289664734E-16));
#1036=DIRECTION('',(0.,-1.,-1.44560289664734E-16));
#1037=DIRECTION('',(0.,-1.,-1.44560289664734E-16));
#1038=DIRECTION('',(0.,0.,1.));
#1039=DIRECTION('',(1.,0.,0.));
#1040=DIRECTION('',(0.,1.,0.));
#1041=DIRECTION('',(0.,1.,0.));
#1042=DIRECTION('',(0.,1.,1.44560289664734E-16));
#1043=DIRECTION('',(0.,-1.44560289664734E-16,1.));
#1044=DIRECTION('',(0.,-1.,0.));
#1045=DIRECTION('',(0.,0.,-1.));
#1046=DIRECTION('',(0.,-1.,-1.44560289664734E-16));
#1047=DIRECTION('',(0.,1.44560289664734E-16,-1.));
#1048=DIRECTION('',(0.,1.,0.));
#1049=DIRECTION('',(0.,0.,1.));
#1050=DIRECTION('',(1.99651500966921E-16,-1.,0.));
#1051=DIRECTION('',(1.,1.99651500966921E-16,0.));
#1052=DIRECTION('',(-0.707106781186548,-0.707106781186548,0.));
#1053=DIRECTION('',(0.707106781186548,-0.707106781186548,0.));
#1054=DIRECTION('',(0.707106781186548,-0.707106781186548,0.));
#1055=DIRECTION('',(0.707106781186548,0.707106781186548,0.));
#1056=DIRECTION('',(1.,0.,0.));
#1057=DIRECTION('',(0.,0.,-1.));
#1058=DIRECTION('',(0.707106781186548,0.707106781186548,0.));
#1059=DIRECTION('',(0.707106781186548,-0.707106781186548,0.));
#1060=DIRECTION('',(-1.,0.,0.));
#1061=DIRECTION('',(0.,0.,1.));
#1062=DIRECTION('',(-0.707106781186548,0.707106781186548,0.));
#1063=DIRECTION('',(-0.707106781186548,-0.707106781186548,0.));
#1064=DIRECTION('',(-1.99651500966921E-16,1.,0.));
#1065=DIRECTION('',(-1.,-1.99651500966921E-16,0.));
#1066=DIRECTION('',(0.,-0.707106781186548,-0.707106781186547));
#1067=DIRECTION('',(1.,0.,0.));
#1068=DIRECTION('',(0.577350269189627,0.577350269189625,-0.577350269189626));
#1069=DIRECTION('',(-0.577350269189627,0.577350269189625,-0.577350269189626));
#1070=DIRECTION('',(0.707106781186547,0.,-0.707106781186548));
#1071=DIRECTION('',(0.,1.,0.));
#1072=DIRECTION('',(-0.577350269189626,-0.577350269189626,-0.577350269189625));
#1073=DIRECTION('',(-0.707106781186547,0.,-0.707106781186548));
#1074=DIRECTION('',(0.,-1.,0.));
#1075=DIRECTION('',(-0.577350269189626,0.577350269189626,0.577350269189625));
#1076=DIRECTION('',(0.,0.707106781186547,-0.707106781186548));
#1077=DIRECTION('',(-1.,0.,0.));
#1078=DIRECTION('',(0.,0.,-1.));
#1079=DIRECTION('',(-1.,0.,0.));
#1080=DIRECTION('',(0.,0.,1.));
#1081=DIRECTION('',(1.,0.,0.));
#1082=DIRECTION('',(0.,0.,1.));
#1083=DIRECTION('',(1.,0.,0.));
#1084=DIRECTION('',(0.,0.,1.));
#1085=DIRECTION('',(1.,0.,0.));
#1086=DIRECTION('',(0.,0.,1.));
#1087=DIRECTION('',(1.,0.,0.));
#1088=DIRECTION('',(0.,0.,1.));
#1089=DIRECTION('',(1.,0.,0.));
#1090=DIRECTION('',(0.,0.,1.));
#1091=DIRECTION('',(1.,0.,0.));
#1092=DIRECTION('',(0.,0.,1.));
#1093=DIRECTION('',(1.,0.,0.));
#1094=DIRECTION('',(0.,0.,1.));
#1095=DIRECTION('',(1.,0.,0.));
#1096=DIRECTION('',(0.,0.,1.));
#1097=DIRECTION('',(1.,0.,0.));
#1098=DIRECTION('',(0.,0.,1.));
#1099=DIRECTION('',(1.,0.,0.));
#1100=DIRECTION('',(0.,0.,1.));
#1101=DIRECTION('',(1.,0.,0.));
#1102=DIRECTION('',(0.,0.,1.));
#1103=DIRECTION('',(1.,0.,0.));
#1104=DIRECTION('',(0.,0.,1.));
#1105=DIRECTION('',(1.,0.,0.));
#1106=DIRECTION('',(0.,0.,1.));
#1107=DIRECTION('',(1.,0.,0.));
#1108=DIRECTION('',(0.,0.,1.));
#1109=DIRECTION('',(1.,0.,0.));
#1110=DIRECTION('',(0.,0.,1.));
#1111=DIRECTION('',(1.,0.,0.));
#1112=DIRECTION('',(0.,0.,1.));
#1113=DIRECTION('',(1.,-7.22801448323669E-17,0.));
#1114=DIRECTION('',(0.,0.,1.));
#1115=DIRECTION('',(1.,0.,0.));
#1116=DIRECTION('',(0.,0.,1.));
#1117=DIRECTION('',(1.,0.,0.));
#1118=DIRECTION('',(0.,0.,1.));
#1119=DIRECTION('',(1.,0.,0.));
#1120=DIRECTION('',(0.,0.,1.));
#1121=DIRECTION('',(1.,0.,0.));
#1122=DIRECTION('',(0.,0.,1.));
#1123=DIRECTION('',(1.,0.,0.));
#1124=DIRECTION('',(0.,0.,1.));
#1125=DIRECTION('',(1.,0.,0.));
#1126=DIRECTION('',(0.,0.,1.));
#1127=DIRECTION('',(1.,0.,0.));
#1128=DIRECTION('',(0.,0.,1.));
#1129=DIRECTION('',(1.,0.,0.));
#1130=DIRECTION('',(0.,0.,1.));
#1131=DIRECTION('',(1.,0.,0.));
#1132=DIRECTION('',(0.,0.,1.));
#1133=DIRECTION('',(1.,0.,0.));
#1134=CARTESIAN_POINT('',(0.,0.,0.));
#1135=CARTESIAN_POINT('',(-0.0133444458206081,0.00253365945136046,-0.005));
#1136=CARTESIAN_POINT('',(-0.173275586242053,-0.0534292906152612,-0.005));
#1137=CARTESIAN_POINT('',(-0.165775586242053,-0.0534292906152612,-0.005));
#1138=CARTESIAN_POINT('',(-0.178053014197394,0.0584837377549658,-0.005));
#1139=CARTESIAN_POINT('',(-0.170553014197394,0.0584837377549658,-0.005));
#1140=CARTESIAN_POINT('',(-0.0431243251426601,0.00292,-0.005));
#1141=CARTESIAN_POINT('',(-0.0356243251426601,0.00292,-0.005));
#1142=CARTESIAN_POINT('',(0.0521023405233747,0.00292092529255225,-0.005));
#1143=CARTESIAN_POINT('',(0.0596023405233747,0.00292092529255225,-0.005));
#1144=CARTESIAN_POINT('',(0.148169518836874,-0.0518466394237938,-0.005));
#1145=CARTESIAN_POINT('',(0.155669518836874,-0.0518466394237938,-0.005));
#1146=CARTESIAN_POINT('',(0.150574348815875,0.000535570077499576,-0.005));
#1147=CARTESIAN_POINT('',(0.158074348815875,0.000535570077499576,-0.005));
#1148=CARTESIAN_POINT('',(0.140233477774476,0.0227502716674991,-0.005));
#1149=CARTESIAN_POINT('',(0.147733477774476,0.0227502716674991,-0.005));
#1150=CARTESIAN_POINT('',(0.159695433501444,0.00253365945136046,-0.005));
#1151=CARTESIAN_POINT('',(0.159695433501444,-0.0609764005311778,-0.005));
#1152=CARTESIAN_POINT('',(0.159695433501444,0.0660437194338987,-0.005));
#1153=CARTESIAN_POINT('',(-0.0263361517417812,0.0660437194338987,-0.005));
#1154=CARTESIAN_POINT('',(-0.18638432514266,0.0660437194338987,-0.005));
#1155=CARTESIAN_POINT('',(-0.18638432514266,0.00253365945136046,-0.005));
#1156=CARTESIAN_POINT('',(-0.18638432514266,-0.0609764005311778,-0.005));
#1157=CARTESIAN_POINT('',(-0.0133444458206081,-0.0609764005311778,-0.005));
#1158=CARTESIAN_POINT('',(-0.19238432514266,0.00253365945136046,-0.01));
#1159=CARTESIAN_POINT('',(-0.19238432514266,-0.0669764005311778,-0.01));
#1160=CARTESIAN_POINT('',(-0.19238432514266,-0.0669764005311778,-0.01));
#1161=CARTESIAN_POINT('',(-0.19238432514266,-0.0669764005311778,0.0165));
#1162=CARTESIAN_POINT('',(-0.19238432514266,0.0720437194338987,0.0165));
#1163=CARTESIAN_POINT('',(-0.19238432514266,0.0720437194338987,0.0165));
#1164=CARTESIAN_POINT('',(-0.19238432514266,0.0720437194338987,-0.01));
#1165=CARTESIAN_POINT('',(-0.19238432514266,0.0720437194338987,-0.01));
#1166=CARTESIAN_POINT('',(-0.19238432514266,0.00253365945136046,-0.01));
#1167=CARTESIAN_POINT('',(-0.0133444458206081,-0.0669764005311778,-0.01));
#1168=CARTESIAN_POINT('',(0.165695433501444,-0.0669764005311778,-0.01));
#1169=CARTESIAN_POINT('',(0.165695433501444,-0.0669764005311778,-0.01));
#1170=CARTESIAN_POINT('',(0.165695433501444,-0.0669764005311778,0.0165));
#1171=CARTESIAN_POINT('',(-0.0133444458206081,-0.0669764005311778,0.0165));
#1172=CARTESIAN_POINT('',(-0.0133444458206081,-0.0669764005311778,-0.01));
#1173=CARTESIAN_POINT('',(0.165695433501444,0.00253365945136046,-0.01));
#1174=CARTESIAN_POINT('',(0.165695433501444,0.0720437194338987,-0.01));
#1175=CARTESIAN_POINT('',(0.165695433501444,0.0720437194338987,-0.01));
#1176=CARTESIAN_POINT('',(0.165695433501444,0.0720437194338987,0.0165));
#1177=CARTESIAN_POINT('',(0.165695433501444,0.00253365945136046,0.0165));
#1178=CARTESIAN_POINT('',(0.165695433501444,0.00253365945136046,-0.01));
#1179=CARTESIAN_POINT('',(-0.0133444458206081,0.0720437194338987,-0.01));
#1180=CARTESIAN_POINT('',(0.146714433501444,0.0720437194338987,0.0185));
#1181=CARTESIAN_POINT('',(0.146714433501444,0.0720437194338987,0.006));
#1182=CARTESIAN_POINT('',(0.146714433501444,0.0720437194338987,0.0035));
#1183=CARTESIAN_POINT('',(0.144714433501444,0.0720437194338987,0.006));
#1184=CARTESIAN_POINT('',(0.144714433501444,0.0720437194338987,0.008));
#1185=CARTESIAN_POINT('',(0.146712021659098,0.0720437194338987,0.008));
#1186=CARTESIAN_POINT('',(0.135712021659098,0.0720437194338987,0.008));
#1187=CARTESIAN_POINT('',(0.135712021659098,0.0720437194338987,0.006));
#1188=CARTESIAN_POINT('',(0.133712021659098,0.0720437194338987,0.006));
#1189=CARTESIAN_POINT('',(0.133712021659098,0.0720437194338987,0.0185));
#1190=CARTESIAN_POINT('',(0.133712021659098,0.0720437194338987,0.0035));
#1191=CARTESIAN_POINT('',(0.135712021659098,0.0720437194338987,0.0035));
#1192=CARTESIAN_POINT('',(0.135712021659098,0.0720437194338987,0.0015));
#1193=CARTESIAN_POINT('',(0.146712021659098,0.0720437194338987,0.0015));
#1194=CARTESIAN_POINT('',(0.144714433501444,0.0720437194338987,0.0015));
#1195=CARTESIAN_POINT('',(0.144714433501444,0.0720437194338987,0.0035));
#1196=CARTESIAN_POINT('',(0.165695433501444,0.0720437194338987,0.0165));
#1197=CARTESIAN_POINT('',(-0.0133444458206081,0.0720437194338987,-0.01));
#1198=CARTESIAN_POINT('',(-0.0133444458206081,0.00253365945136046,-0.01));
#1199=CARTESIAN_POINT('',(-0.0133444458206081,0.00253365945136046,-0.001));
#1200=CARTESIAN_POINT('',(-0.0431243251426601,0.00292,-0.001));
#1201=CARTESIAN_POINT('',(-0.0416243251426601,0.00292,-0.001));
#1202=CARTESIAN_POINT('',(-0.0431243251426601,0.00292,-0.001));
#1203=CARTESIAN_POINT('',(-0.0396243251426601,0.00292,-0.001));
#1204=CARTESIAN_POINT('',(-0.0133444458206081,0.00253365945136046,-0.001));
#1205=CARTESIAN_POINT('',(-0.173275586242053,-0.0534292906152612,-0.001));
#1206=CARTESIAN_POINT('',(-0.171775586242053,-0.0534292906152612,-0.001));
#1207=CARTESIAN_POINT('',(-0.173275586242053,-0.0534292906152612,-0.001));
#1208=CARTESIAN_POINT('',(-0.169775586242053,-0.0534292906152612,-0.001));
#1209=CARTESIAN_POINT('',(-0.0133444458206081,0.00253365945136046,-0.001));
#1210=CARTESIAN_POINT('',(0.0521023405233747,0.00292092529255225,-0.001));
#1211=CARTESIAN_POINT('',(0.0536023405233747,0.00292092529255225,-0.001));
#1212=CARTESIAN_POINT('',(0.0521023405233747,0.00292092529255225,-0.001));
#1213=CARTESIAN_POINT('',(0.0556023405233747,0.00292092529255225,-0.001));
#1214=CARTESIAN_POINT('',(-0.0133444458206081,0.00253365945136046,-0.001));
#1215=CARTESIAN_POINT('',(0.150574348815875,0.000535570077499576,-0.001));
#1216=CARTESIAN_POINT('',(0.152074348815875,0.000535570077499576,-0.001));
#1217=CARTESIAN_POINT('',(0.150574348815875,0.000535570077499576,-0.001));
#1218=CARTESIAN_POINT('',(0.154074348815875,0.000535570077499576,-0.001));
#1219=CARTESIAN_POINT('',(-0.0133444458206081,0.00253365945136046,-0.001));
#1220=CARTESIAN_POINT('',(0.148169518836874,-0.0518466394237938,-0.001));
#1221=CARTESIAN_POINT('',(0.149669518836874,-0.0518466394237938,-0.001));
#1222=CARTESIAN_POINT('',(0.148169518836874,-0.0518466394237938,-0.001));
#1223=CARTESIAN_POINT('',(0.151669518836874,-0.0518466394237938,-0.001));
#1224=CARTESIAN_POINT('',(-0.0133444458206081,0.00253365945136046,-0.001));
#1225=CARTESIAN_POINT('',(0.140233477774476,0.0227502716674991,-0.001));
#1226=CARTESIAN_POINT('',(0.143233477774476,0.0227502716674991,-0.001));
#1227=CARTESIAN_POINT('',(0.140233477774476,0.0227502716674991,-0.001));
#1228=CARTESIAN_POINT('',(0.143733477774476,0.0227502716674991,-0.001));
#1229=CARTESIAN_POINT('',(-0.0133444458206081,0.00253365945136046,-0.001));
#1230=CARTESIAN_POINT('',(-0.178053014197394,0.0584837377549658,-0.001));
#1231=CARTESIAN_POINT('',(-0.176553014197394,0.0584837377549658,-0.001));
#1232=CARTESIAN_POINT('',(-0.178053014197394,0.0584837377549658,-0.001));
#1233=CARTESIAN_POINT('',(-0.174553014197394,0.0584837377549658,-0.001));
#1234=CARTESIAN_POINT('',(0.146714433501444,0.0690437194338987,0.0185));
#1235=CARTESIAN_POINT('',(0.146714433501444,0.0660437194338987,0.0035));
#1236=CARTESIAN_POINT('',(0.146714433501444,0.0660437194338987,0.0035));
#1237=CARTESIAN_POINT('',(0.146714433501444,0.0660437194338987,0.0185));
#1238=CARTESIAN_POINT('',(0.146714433501444,0.0660437194338987,0.006));
#1239=CARTESIAN_POINT('',(0.146714433501444,0.0720437194338987,0.006));
#1240=CARTESIAN_POINT('',(0.153204933501444,0.0660437194338987,0.0185));
#1241=CARTESIAN_POINT('',(0.133712021659098,0.0660437194338987,0.0185));
#1242=CARTESIAN_POINT('',(0.133712021659098,0.0660437194338987,0.006));
#1243=CARTESIAN_POINT('',(0.133712021659098,0.0660437194338987,0.0035));
#1244=CARTESIAN_POINT('',(0.135712021659098,0.0660437194338987,0.006));
#1245=CARTESIAN_POINT('',(0.135712021659098,0.0660437194338987,0.008));
#1246=CARTESIAN_POINT('',(0.146712021659098,0.0660437194338987,0.008));
#1247=CARTESIAN_POINT('',(0.144714433501444,0.0660437194338987,0.008));
#1248=CARTESIAN_POINT('',(0.144714433501444,0.0660437194338987,0.006));
#1249=CARTESIAN_POINT('',(0.144714433501444,0.0660437194338987,0.0035));
#1250=CARTESIAN_POINT('',(0.144714433501444,0.0660437194338987,0.0015));
#1251=CARTESIAN_POINT('',(0.146712021659098,0.0660437194338987,0.0015));
#1252=CARTESIAN_POINT('',(0.135712021659098,0.0660437194338987,0.0015));
#1253=CARTESIAN_POINT('',(0.135712021659098,0.0660437194338987,0.0035));
#1254=CARTESIAN_POINT('',(0.159695433501444,0.0660437194338987,0.0185));
#1255=CARTESIAN_POINT('',(0.159695433501444,0.0660437194338987,0.016));
#1256=CARTESIAN_POINT('',(0.153204933501444,0.0660437194338987,0.016));
#1257=CARTESIAN_POINT('',(-0.18638432514266,0.0660437194338987,0.016));
#1258=CARTESIAN_POINT('',(-0.18638432514266,0.0660437194338987,0.0185));
#1259=CARTESIAN_POINT('',(0.159695433501444,0.00253365945136046,0.0185));
#1260=CARTESIAN_POINT('',(0.159695433501444,-0.0609764005311778,0.0185));
#1261=CARTESIAN_POINT('',(0.159695433501444,-0.0609764005311778,0.016));
#1262=CARTESIAN_POINT('',(0.159695433501444,0.00253365945136046,0.016));
#1263=CARTESIAN_POINT('',(-0.0133444458206081,-0.0609764005311778,0.0185));
#1264=CARTESIAN_POINT('',(-0.18638432514266,-0.0609764005311778,0.0185));
#1265=CARTESIAN_POINT('',(-0.18638432514266,-0.0609764005311778,0.016));
#1266=CARTESIAN_POINT('',(-0.0133444458206081,-0.0609764005311778,0.016));
#1267=CARTESIAN_POINT('',(-0.18638432514266,0.00253365945136046,0.0185));
#1268=CARTESIAN_POINT('',(-0.18638432514266,0.00253365945136046,0.016));
#1269=CARTESIAN_POINT('',(0.133712021659098,0.0690437194338987,0.0185));
#1270=CARTESIAN_POINT('',(0.133712021659098,0.0690437194338987,0.0035));
#1271=CARTESIAN_POINT('',(0.133712021659098,0.0690437194338987,0.006));
#1272=CARTESIAN_POINT('',(-0.0133444458206081,0.00253365945136046,0.0185));
#1273=CARTESIAN_POINT('',(-0.18888432514266,0.00253365945136046,0.0185));
#1274=CARTESIAN_POINT('',(-0.18888432514266,-0.0634764005311778,0.0185));
#1275=CARTESIAN_POINT('',(-0.18888432514266,0.0685437194338987,0.0185));
#1276=CARTESIAN_POINT('',(-0.0133444458206081,0.0685437194338987,0.0185));
#1277=CARTESIAN_POINT('',(0.162195433501444,0.0685437194338987,0.0185));
#1278=CARTESIAN_POINT('',(0.162195433501444,0.00253365945136046,0.0185));
#1279=CARTESIAN_POINT('',(0.162195433501444,-0.0634764005311778,0.0185));
#1280=CARTESIAN_POINT('',(-0.0133444458206081,-0.0634764005311778,0.0185));
#1281=CARTESIAN_POINT('',(-0.0133444458206081,-0.0649764005311778,0.0185));
#1282=CARTESIAN_POINT('',(-0.19038432514266,-0.0649764005311778,0.0185));
#1283=CARTESIAN_POINT('',(0.163695433501444,-0.0649764005311778,0.0185));
#1284=CARTESIAN_POINT('',(0.163695433501444,0.00253365945136049,0.0185));
#1285=CARTESIAN_POINT('',(0.163695433501444,0.0700437194338987,0.0185));
#1286=CARTESIAN_POINT('',(-0.19238432514266,0.0700437194338987,0.0185));
#1287=CARTESIAN_POINT('',(-0.19038432514266,0.0700437194338987,0.0185));
#1288=CARTESIAN_POINT('',(-0.19038432514266,-0.0669764005311778,0.0185));
#1289=CARTESIAN_POINT('',(0.146712021659098,0.0690437194338987,0.0015));
#1290=CARTESIAN_POINT('',(0.144714433501444,0.0720437194338987,0.0015));
#1291=CARTESIAN_POINT('',(0.135712021659098,0.0690437194338987,0.0015));
#1292=CARTESIAN_POINT('',(0.146712021659098,0.0690437194338987,0.008));
#1293=CARTESIAN_POINT('',(0.144714433501444,0.0660437194338987,0.008));
#1294=CARTESIAN_POINT('',(0.135712021659098,0.0690437194338987,0.008));
#1295=CARTESIAN_POINT('',(0.144714433501444,0.0690437194338987,0.0035));
#1296=CARTESIAN_POINT('',(0.144714433501444,0.0690437194338987,0.006));
#1297=CARTESIAN_POINT('',(0.135712021659098,0.0690437194338987,0.0035));
#1298=CARTESIAN_POINT('',(0.135712021659098,0.0690437194338987,0.006));
#1299=CARTESIAN_POINT('',(-0.19038432514266,0.00253365945136046,0.0165));
#1300=CARTESIAN_POINT('',(-0.19038432514266,0.0700437194338987,0.0165));
#1301=CARTESIAN_POINT('',(-0.19038432514266,-0.0649764005311778,0.0165));
#1302=CARTESIAN_POINT('',(-0.0133444458206081,-0.0649764005311778,0.0165));
#1303=CARTESIAN_POINT('',(0.163695433501444,-0.0649764005311778,0.0165));
#1304=CARTESIAN_POINT('',(-0.0133444458206081,0.0700437194338987,0.0165));
#1305=CARTESIAN_POINT('',(0.163695433501444,0.0700437194338987,0.0165));
#1306=CARTESIAN_POINT('',(0.163695433501444,0.00253365945136049,0.0165));
#1307=CARTESIAN_POINT('',(-0.0133444458206081,-0.0609764005311778,0.016));
#1308=CARTESIAN_POINT('',(-0.128704365368643,-0.00329644075716041,-0.0416799597740174));
#1309=CARTESIAN_POINT('',(0.138525413507264,-0.0398063805369985,-0.00517001999417938));
#1310=CARTESIAN_POINT('',(0.159695433501444,0.00253365945136046,0.016));
#1311=CARTESIAN_POINT('',(0.157531933501444,0.0638802194338987,0.0138365));
#1312=CARTESIAN_POINT('',(-0.18638432514266,0.00253365945136046,0.016));
#1313=CARTESIAN_POINT('',(-0.0731879055946254,-0.0471527001141361,-0.0971964195480347));
#1314=CARTESIAN_POINT('',(0.153204933501444,0.0660437194338987,0.016));
#1315=CARTESIAN_POINT('',(0.140233477774476,0.0227502716674991,0.0005));
#1316=CARTESIAN_POINT('',(0.140233477774476,0.0227502716674991,0.0005));
#1317=CARTESIAN_POINT('',(0.143233477774476,0.0227502716674991,0.0005));
#1318=CARTESIAN_POINT('',(0.140233477774476,0.0227502716674991,0.0005));
#1319=CARTESIAN_POINT('',(-0.173275586242053,-0.0534292906152612,-0.001));
#1320=CARTESIAN_POINT('',(-0.178053014197394,0.0584837377549658,-0.001));
#1321=CARTESIAN_POINT('',(-0.0431243251426601,0.00292,-0.001));
#1322=CARTESIAN_POINT('',(0.0521023405233747,0.00292092529255225,-0.001));
#1323=CARTESIAN_POINT('',(0.148169518836874,-0.0518466394237938,-0.001));
#1324=CARTESIAN_POINT('',(0.150574348815875,0.000535570077499576,-0.001));
#1325=CARTESIAN_POINT('',(0.140233477774476,0.0227502716674991,-0.001));
#1326=CARTESIAN_POINT('',(-0.178053014197394,0.0584837377549658,-0.006));
#1327=CARTESIAN_POINT('',(-0.178053014197394,0.0584837377549658,-0.006));
#1328=CARTESIAN_POINT('',(-0.176553014197394,0.0584837377549658,-0.006));
#1329=CARTESIAN_POINT('',(-0.178053014197394,0.0584837377549658,-0.006));
#1330=CARTESIAN_POINT('',(0.148169518836874,-0.0518466394237938,-0.006));
#1331=CARTESIAN_POINT('',(0.148169518836874,-0.0518466394237938,-0.006));
#1332=CARTESIAN_POINT('',(0.149669518836874,-0.0518466394237938,-0.006));
#1333=CARTESIAN_POINT('',(-0.0113506187130893,-0.0242546453076306,-0.006));
#1334=CARTESIAN_POINT('',(0.150574348815875,0.000535570077499576,-0.006));
#1335=CARTESIAN_POINT('',(0.150574348815875,0.000535570077499576,-0.006));
#1336=CARTESIAN_POINT('',(0.152074348815875,0.000535570077499576,-0.006));
#1337=CARTESIAN_POINT('',(-0.0113506187130893,-0.0242546453076306,-0.006));
#1338=CARTESIAN_POINT('',(0.0521023405233747,0.00292092529255225,-0.006));
#1339=CARTESIAN_POINT('',(0.0521023405233747,0.00292092529255225,-0.006));
#1340=CARTESIAN_POINT('',(0.0536023405233747,0.00292092529255225,-0.006));
#1341=CARTESIAN_POINT('',(-0.0113506187130893,-0.0242546453076306,-0.006));
#1342=CARTESIAN_POINT('',(-0.173275586242053,-0.0534292906152612,-0.006));
#1343=CARTESIAN_POINT('',(-0.173275586242053,-0.0534292906152612,-0.006));
#1344=CARTESIAN_POINT('',(-0.171775586242053,-0.0534292906152612,-0.006));
#1345=CARTESIAN_POINT('',(-0.0113506187130893,-0.0242546453076306,-0.006));
#1346=CARTESIAN_POINT('',(-0.0431243251426601,0.00292,-0.006));
#1347=CARTESIAN_POINT('',(-0.0431243251426601,0.00292,-0.006));
#1348=CARTESIAN_POINT('',(-0.0416243251426601,0.00292,-0.006));
#1349=CARTESIAN_POINT('',(-0.0113506187130893,-0.0242546453076306,-0.006));
#1350=MECHANICAL_DESIGN_GEOMETRIC_PRESENTATION_REPRESENTATION('',(#783),
#1351);
#1351=(
GEOMETRIC_REPRESENTATION_CONTEXT(3)
GLOBAL_UNCERTAINTY_ASSIGNED_CONTEXT((#1352))
GLOBAL_UNIT_ASSIGNED_CONTEXT((#1355,#1354,#1353))
REPRESENTATION_CONTEXT('Part 2','TOP_LEVEL_ASSEMBLY_PART')
);
#1352=UNCERTAINTY_MEASURE_WITH_UNIT(LENGTH_MEASURE(1.E-8),#1355,
'DISTANCE_ACCURACY_VALUE','Maximum Tolerance applied to model');
#1353=(
NAMED_UNIT(*)
SI_UNIT($,.STERADIAN.)
SOLID_ANGLE_UNIT()
);
#1354=(
NAMED_UNIT(*)
PLANE_ANGLE_UNIT()
SI_UNIT($,.RADIAN.)
);
#1355=(
LENGTH_UNIT()
NAMED_UNIT(*)
SI_UNIT($,.METRE.)
);
#1356=PRODUCT_DEFINITION_SHAPE('','',#1357);
#1357=PRODUCT_DEFINITION('','',#1359,#1358);
#1358=PRODUCT_DEFINITION_CONTEXT('',#1365,'design');
#1359=PRODUCT_DEFINITION_FORMATION_WITH_SPECIFIED_SOURCE('','',#1361,
 .NOT_KNOWN.);
#1360=PRODUCT_RELATED_PRODUCT_CATEGORY('','',(#1361));
#1361=PRODUCT('Part 2','Part 2','Part 2',(#1363));
#1362=PRODUCT_CATEGORY('','');
#1363=PRODUCT_CONTEXT('',#1365,'mechanical');
#1364=APPLICATION_PROTOCOL_DEFINITION('international standard',
'ap242_managed_model_based_3d_engineering',2020,#1365);
#1365=APPLICATION_CONTEXT('managed model based 3d engineering');
ENDSEC;
END-ISO-10303-21;
