%TF.GenerationSoftware,KiCad,Pcbnew,10.0.4*%
%TF.CreationDate,2026-08-20T21:29:58-04:00*%
%TF.ProjectId,Keyboard,4b657962-6f61-4726-942e-6b696361645f,rev?*%
%TF.SameCoordinates,Original*%
%TF.FileFunction,Profile,NP*%
%FSLAX46Y46*%
G04 Gerber Fmt 4.6, Leading zero omitted, Abs format (unit mm)*
G04 Created by KiCad (PCBNEW 10.0.4) date 2026-08-20 21:29:58*
%MOMM*%
%LPD*%
G01*
G04 APERTURE LIST*
%TA.AperFunction,Profile*%
%ADD10C,0.050000*%
%TD*%
G04 APERTURE END LIST*
D10*
X39685000Y-28604700D02*
G75*
G02*
X43685000Y-24604700I4000000J0D01*
G01*
X39685000Y-143628200D02*
X39685000Y-28604700D01*
X43685000Y-24604700D02*
X377769700Y-24604700D01*
X43685000Y-147628200D02*
G75*
G02*
X39685000Y-143628200I0J4000000D01*
G01*
X49209400Y-30160600D02*
G75*
G02*
X42859800Y-30160600I-3174800J0D01*
G01*
X42859800Y-30160600D02*
G75*
G02*
X49209400Y-30160600I3174800J0D01*
G01*
X53971600Y-142072300D02*
G75*
G02*
X47622000Y-142072300I-3174800J0D01*
G01*
X47622000Y-142072300D02*
G75*
G02*
X53971600Y-142072300I3174800J0D01*
G01*
X184138400Y-85719600D02*
G75*
G02*
X177788800Y-85719600I-3174800J0D01*
G01*
X177788800Y-85719600D02*
G75*
G02*
X184138400Y-85719600I3174800J0D01*
G01*
X279382400Y-85719600D02*
G75*
G02*
X273032800Y-85719600I-3174800J0D01*
G01*
X273032800Y-85719600D02*
G75*
G02*
X279382400Y-85719600I3174800J0D01*
G01*
X367483100Y-65877100D02*
G75*
G02*
X361133500Y-65877100I-3174800J0D01*
G01*
X361133500Y-65877100D02*
G75*
G02*
X367483100Y-65877100I3174800J0D01*
G01*
X375420100Y-140484900D02*
G75*
G02*
X369070500Y-140484900I-3174800J0D01*
G01*
X369070500Y-140484900D02*
G75*
G02*
X375420100Y-140484900I3174800J0D01*
G01*
X377801200Y-88100700D02*
G75*
G02*
X371451600Y-88100700I-3174800J0D01*
G01*
X371451600Y-88100700D02*
G75*
G02*
X377801200Y-88100700I3174800J0D01*
G01*
X377769700Y-24604700D02*
G75*
G02*
X381769700Y-28604700I0J-4000000D01*
G01*
X377769700Y-147628200D02*
X43685000Y-147628200D01*
X381769700Y-28604700D02*
X381769700Y-143628200D01*
X381769700Y-143628200D02*
G75*
G02*
X377769700Y-147628200I-4000000J0D01*
G01*
M02*
