%TF.GenerationSoftware,KiCad,Pcbnew,10.0.4*%
%TF.CreationDate,2026-08-21T20:46:43-04:00*%
%TF.ProjectId,Keyboard,4b657962-6f61-4726-942e-6b696361645f,rev?*%
%TF.SameCoordinates,Original*%
%TF.FileFunction,Legend,Top*%
%TF.FilePolarity,Positive*%
%FSLAX46Y46*%
G04 Gerber Fmt 4.6, Leading zero omitted, Abs format (unit mm)*
G04 Created by KiCad (PCBNEW 10.0.4) date 2026-08-21 20:46:43*
%MOMM*%
%LPD*%
G01*
G04 APERTURE LIST*
%ADD10C,0.100000*%
%ADD11C,5.000000*%
%ADD12C,0.150000*%
%ADD13C,0.120000*%
G04 APERTURE END LIST*
D10*
X378349536Y-135641087D02*
X378397156Y-135688706D01*
X378397156Y-135688706D02*
X378444775Y-135831563D01*
X378444775Y-135831563D02*
X378444775Y-135926801D01*
X378444775Y-135926801D02*
X378397156Y-136069658D01*
X378397156Y-136069658D02*
X378301917Y-136164896D01*
X378301917Y-136164896D02*
X378206679Y-136212515D01*
X378206679Y-136212515D02*
X378016203Y-136260134D01*
X378016203Y-136260134D02*
X377873346Y-136260134D01*
X377873346Y-136260134D02*
X377682870Y-136212515D01*
X377682870Y-136212515D02*
X377587632Y-136164896D01*
X377587632Y-136164896D02*
X377492394Y-136069658D01*
X377492394Y-136069658D02*
X377444775Y-135926801D01*
X377444775Y-135926801D02*
X377444775Y-135831563D01*
X377444775Y-135831563D02*
X377492394Y-135688706D01*
X377492394Y-135688706D02*
X377540013Y-135641087D01*
X378444775Y-135212515D02*
X377778108Y-135212515D01*
X377968584Y-135212515D02*
X377873346Y-135164896D01*
X377873346Y-135164896D02*
X377825727Y-135117277D01*
X377825727Y-135117277D02*
X377778108Y-135022039D01*
X377778108Y-135022039D02*
X377778108Y-134926801D01*
X378397156Y-134212515D02*
X378444775Y-134307753D01*
X378444775Y-134307753D02*
X378444775Y-134498229D01*
X378444775Y-134498229D02*
X378397156Y-134593467D01*
X378397156Y-134593467D02*
X378301917Y-134641086D01*
X378301917Y-134641086D02*
X377920965Y-134641086D01*
X377920965Y-134641086D02*
X377825727Y-134593467D01*
X377825727Y-134593467D02*
X377778108Y-134498229D01*
X377778108Y-134498229D02*
X377778108Y-134307753D01*
X377778108Y-134307753D02*
X377825727Y-134212515D01*
X377825727Y-134212515D02*
X377920965Y-134164896D01*
X377920965Y-134164896D02*
X378016203Y-134164896D01*
X378016203Y-134164896D02*
X378111441Y-134641086D01*
X378444775Y-133307753D02*
X377920965Y-133307753D01*
X377920965Y-133307753D02*
X377825727Y-133355372D01*
X377825727Y-133355372D02*
X377778108Y-133450610D01*
X377778108Y-133450610D02*
X377778108Y-133641086D01*
X377778108Y-133641086D02*
X377825727Y-133736324D01*
X378397156Y-133307753D02*
X378444775Y-133402991D01*
X378444775Y-133402991D02*
X378444775Y-133641086D01*
X378444775Y-133641086D02*
X378397156Y-133736324D01*
X378397156Y-133736324D02*
X378301917Y-133783943D01*
X378301917Y-133783943D02*
X378206679Y-133783943D01*
X378206679Y-133783943D02*
X378111441Y-133736324D01*
X378111441Y-133736324D02*
X378063822Y-133641086D01*
X378063822Y-133641086D02*
X378063822Y-133402991D01*
X378063822Y-133402991D02*
X378016203Y-133307753D01*
X377778108Y-132974419D02*
X377778108Y-132593467D01*
X377444775Y-132831562D02*
X378301917Y-132831562D01*
X378301917Y-132831562D02*
X378397156Y-132783943D01*
X378397156Y-132783943D02*
X378444775Y-132688705D01*
X378444775Y-132688705D02*
X378444775Y-132593467D01*
X378397156Y-131879181D02*
X378444775Y-131974419D01*
X378444775Y-131974419D02*
X378444775Y-132164895D01*
X378444775Y-132164895D02*
X378397156Y-132260133D01*
X378397156Y-132260133D02*
X378301917Y-132307752D01*
X378301917Y-132307752D02*
X377920965Y-132307752D01*
X377920965Y-132307752D02*
X377825727Y-132260133D01*
X377825727Y-132260133D02*
X377778108Y-132164895D01*
X377778108Y-132164895D02*
X377778108Y-131974419D01*
X377778108Y-131974419D02*
X377825727Y-131879181D01*
X377825727Y-131879181D02*
X377920965Y-131831562D01*
X377920965Y-131831562D02*
X378016203Y-131831562D01*
X378016203Y-131831562D02*
X378111441Y-132307752D01*
X378444775Y-130974419D02*
X377444775Y-130974419D01*
X378397156Y-130974419D02*
X378444775Y-131069657D01*
X378444775Y-131069657D02*
X378444775Y-131260133D01*
X378444775Y-131260133D02*
X378397156Y-131355371D01*
X378397156Y-131355371D02*
X378349536Y-131402990D01*
X378349536Y-131402990D02*
X378254298Y-131450609D01*
X378254298Y-131450609D02*
X377968584Y-131450609D01*
X377968584Y-131450609D02*
X377873346Y-131402990D01*
X377873346Y-131402990D02*
X377825727Y-131355371D01*
X377825727Y-131355371D02*
X377778108Y-131260133D01*
X377778108Y-131260133D02*
X377778108Y-131069657D01*
X377778108Y-131069657D02*
X377825727Y-130974419D01*
X378444775Y-129736323D02*
X377444775Y-129736323D01*
X377825727Y-129736323D02*
X377778108Y-129641085D01*
X377778108Y-129641085D02*
X377778108Y-129450609D01*
X377778108Y-129450609D02*
X377825727Y-129355371D01*
X377825727Y-129355371D02*
X377873346Y-129307752D01*
X377873346Y-129307752D02*
X377968584Y-129260133D01*
X377968584Y-129260133D02*
X378254298Y-129260133D01*
X378254298Y-129260133D02*
X378349536Y-129307752D01*
X378349536Y-129307752D02*
X378397156Y-129355371D01*
X378397156Y-129355371D02*
X378444775Y-129450609D01*
X378444775Y-129450609D02*
X378444775Y-129641085D01*
X378444775Y-129641085D02*
X378397156Y-129736323D01*
X377778108Y-128926799D02*
X378444775Y-128688704D01*
X377778108Y-128450609D02*
X378444775Y-128688704D01*
X378444775Y-128688704D02*
X378682870Y-128783942D01*
X378682870Y-128783942D02*
X378730489Y-128831561D01*
X378730489Y-128831561D02*
X378778108Y-128926799D01*
X377920965Y-126974418D02*
X377920965Y-127307751D01*
X378444775Y-127307751D02*
X377444775Y-127307751D01*
X377444775Y-127307751D02*
X377444775Y-126831561D01*
X378444775Y-126022037D02*
X377920965Y-126022037D01*
X377920965Y-126022037D02*
X377825727Y-126069656D01*
X377825727Y-126069656D02*
X377778108Y-126164894D01*
X377778108Y-126164894D02*
X377778108Y-126355370D01*
X377778108Y-126355370D02*
X377825727Y-126450608D01*
X378397156Y-126022037D02*
X378444775Y-126117275D01*
X378444775Y-126117275D02*
X378444775Y-126355370D01*
X378444775Y-126355370D02*
X378397156Y-126450608D01*
X378397156Y-126450608D02*
X378301917Y-126498227D01*
X378301917Y-126498227D02*
X378206679Y-126498227D01*
X378206679Y-126498227D02*
X378111441Y-126450608D01*
X378111441Y-126450608D02*
X378063822Y-126355370D01*
X378063822Y-126355370D02*
X378063822Y-126117275D01*
X378063822Y-126117275D02*
X378016203Y-126022037D01*
X378397156Y-125593465D02*
X378444775Y-125498227D01*
X378444775Y-125498227D02*
X378444775Y-125307751D01*
X378444775Y-125307751D02*
X378397156Y-125212513D01*
X378397156Y-125212513D02*
X378301917Y-125164894D01*
X378301917Y-125164894D02*
X378254298Y-125164894D01*
X378254298Y-125164894D02*
X378159060Y-125212513D01*
X378159060Y-125212513D02*
X378111441Y-125307751D01*
X378111441Y-125307751D02*
X378111441Y-125450608D01*
X378111441Y-125450608D02*
X378063822Y-125545846D01*
X378063822Y-125545846D02*
X377968584Y-125593465D01*
X377968584Y-125593465D02*
X377920965Y-125593465D01*
X377920965Y-125593465D02*
X377825727Y-125545846D01*
X377825727Y-125545846D02*
X377778108Y-125450608D01*
X377778108Y-125450608D02*
X377778108Y-125307751D01*
X377778108Y-125307751D02*
X377825727Y-125212513D01*
X377778108Y-124879179D02*
X377778108Y-124498227D01*
X377444775Y-124736322D02*
X378301917Y-124736322D01*
X378301917Y-124736322D02*
X378397156Y-124688703D01*
X378397156Y-124688703D02*
X378444775Y-124593465D01*
X378444775Y-124593465D02*
X378444775Y-124498227D01*
X377778108Y-124307750D02*
X377778108Y-123926798D01*
X377444775Y-124164893D02*
X378301917Y-124164893D01*
X378301917Y-124164893D02*
X378397156Y-124117274D01*
X378397156Y-124117274D02*
X378444775Y-124022036D01*
X378444775Y-124022036D02*
X378444775Y-123926798D01*
X377778108Y-123164893D02*
X378444775Y-123164893D01*
X377778108Y-123593464D02*
X378301917Y-123593464D01*
X378301917Y-123593464D02*
X378397156Y-123545845D01*
X378397156Y-123545845D02*
X378444775Y-123450607D01*
X378444775Y-123450607D02*
X378444775Y-123307750D01*
X378444775Y-123307750D02*
X378397156Y-123212512D01*
X378397156Y-123212512D02*
X378349536Y-123164893D01*
X378444775Y-122688702D02*
X377778108Y-122688702D01*
X377968584Y-122688702D02*
X377873346Y-122641083D01*
X377873346Y-122641083D02*
X377825727Y-122593464D01*
X377825727Y-122593464D02*
X377778108Y-122498226D01*
X377778108Y-122498226D02*
X377778108Y-122402988D01*
X377778108Y-122212511D02*
X377778108Y-121831559D01*
X377444775Y-122069654D02*
X378301917Y-122069654D01*
X378301917Y-122069654D02*
X378397156Y-122022035D01*
X378397156Y-122022035D02*
X378444775Y-121926797D01*
X378444775Y-121926797D02*
X378444775Y-121831559D01*
X378444775Y-121355368D02*
X378397156Y-121450606D01*
X378397156Y-121450606D02*
X378301917Y-121498225D01*
X378301917Y-121498225D02*
X377444775Y-121498225D01*
X378397156Y-120593463D02*
X378444775Y-120688701D01*
X378444775Y-120688701D02*
X378444775Y-120879177D01*
X378444775Y-120879177D02*
X378397156Y-120974415D01*
X378397156Y-120974415D02*
X378301917Y-121022034D01*
X378301917Y-121022034D02*
X377920965Y-121022034D01*
X377920965Y-121022034D02*
X377825727Y-120974415D01*
X377825727Y-120974415D02*
X377778108Y-120879177D01*
X377778108Y-120879177D02*
X377778108Y-120688701D01*
X377778108Y-120688701D02*
X377825727Y-120593463D01*
X377825727Y-120593463D02*
X377920965Y-120545844D01*
X377920965Y-120545844D02*
X378016203Y-120545844D01*
X378016203Y-120545844D02*
X378111441Y-121022034D01*
X377540013Y-120164891D02*
X377492394Y-120117272D01*
X377492394Y-120117272D02*
X377444775Y-120022034D01*
X377444775Y-120022034D02*
X377444775Y-119783939D01*
X377444775Y-119783939D02*
X377492394Y-119688701D01*
X377492394Y-119688701D02*
X377540013Y-119641082D01*
X377540013Y-119641082D02*
X377635251Y-119593463D01*
X377635251Y-119593463D02*
X377730489Y-119593463D01*
X377730489Y-119593463D02*
X377873346Y-119641082D01*
X377873346Y-119641082D02*
X378444775Y-120212510D01*
X378444775Y-120212510D02*
X378444775Y-119593463D01*
X377444775Y-118688701D02*
X377444775Y-119164891D01*
X377444775Y-119164891D02*
X377920965Y-119212510D01*
X377920965Y-119212510D02*
X377873346Y-119164891D01*
X377873346Y-119164891D02*
X377825727Y-119069653D01*
X377825727Y-119069653D02*
X377825727Y-118831558D01*
X377825727Y-118831558D02*
X377873346Y-118736320D01*
X377873346Y-118736320D02*
X377920965Y-118688701D01*
X377920965Y-118688701D02*
X378016203Y-118641082D01*
X378016203Y-118641082D02*
X378254298Y-118641082D01*
X378254298Y-118641082D02*
X378349536Y-118688701D01*
X378349536Y-118688701D02*
X378397156Y-118736320D01*
X378397156Y-118736320D02*
X378444775Y-118831558D01*
X378444775Y-118831558D02*
X378444775Y-119069653D01*
X378444775Y-119069653D02*
X378397156Y-119164891D01*
X378397156Y-119164891D02*
X378349536Y-119212510D01*
X379054719Y-136355372D02*
X379054719Y-135783944D01*
X380054719Y-136069658D02*
X379054719Y-136069658D01*
X380054719Y-135450610D02*
X379054719Y-135450610D01*
X380054719Y-135022039D02*
X379530909Y-135022039D01*
X379530909Y-135022039D02*
X379435671Y-135069658D01*
X379435671Y-135069658D02*
X379388052Y-135164896D01*
X379388052Y-135164896D02*
X379388052Y-135307753D01*
X379388052Y-135307753D02*
X379435671Y-135402991D01*
X379435671Y-135402991D02*
X379483290Y-135450610D01*
X380054719Y-134117277D02*
X379530909Y-134117277D01*
X379530909Y-134117277D02*
X379435671Y-134164896D01*
X379435671Y-134164896D02*
X379388052Y-134260134D01*
X379388052Y-134260134D02*
X379388052Y-134450610D01*
X379388052Y-134450610D02*
X379435671Y-134545848D01*
X380007100Y-134117277D02*
X380054719Y-134212515D01*
X380054719Y-134212515D02*
X380054719Y-134450610D01*
X380054719Y-134450610D02*
X380007100Y-134545848D01*
X380007100Y-134545848D02*
X379911861Y-134593467D01*
X379911861Y-134593467D02*
X379816623Y-134593467D01*
X379816623Y-134593467D02*
X379721385Y-134545848D01*
X379721385Y-134545848D02*
X379673766Y-134450610D01*
X379673766Y-134450610D02*
X379673766Y-134212515D01*
X379673766Y-134212515D02*
X379626147Y-134117277D01*
X379388052Y-133641086D02*
X380054719Y-133641086D01*
X379483290Y-133641086D02*
X379435671Y-133593467D01*
X379435671Y-133593467D02*
X379388052Y-133498229D01*
X379388052Y-133498229D02*
X379388052Y-133355372D01*
X379388052Y-133355372D02*
X379435671Y-133260134D01*
X379435671Y-133260134D02*
X379530909Y-133212515D01*
X379530909Y-133212515D02*
X380054719Y-133212515D01*
X380054719Y-132736324D02*
X379054719Y-132736324D01*
X379673766Y-132641086D02*
X380054719Y-132355372D01*
X379388052Y-132355372D02*
X379769004Y-132736324D01*
X379388052Y-131260133D02*
X380054719Y-131022038D01*
X379388052Y-130783943D02*
X380054719Y-131022038D01*
X380054719Y-131022038D02*
X380292814Y-131117276D01*
X380292814Y-131117276D02*
X380340433Y-131164895D01*
X380340433Y-131164895D02*
X380388052Y-131260133D01*
X380054719Y-130260133D02*
X380007100Y-130355371D01*
X380007100Y-130355371D02*
X379959480Y-130402990D01*
X379959480Y-130402990D02*
X379864242Y-130450609D01*
X379864242Y-130450609D02*
X379578528Y-130450609D01*
X379578528Y-130450609D02*
X379483290Y-130402990D01*
X379483290Y-130402990D02*
X379435671Y-130355371D01*
X379435671Y-130355371D02*
X379388052Y-130260133D01*
X379388052Y-130260133D02*
X379388052Y-130117276D01*
X379388052Y-130117276D02*
X379435671Y-130022038D01*
X379435671Y-130022038D02*
X379483290Y-129974419D01*
X379483290Y-129974419D02*
X379578528Y-129926800D01*
X379578528Y-129926800D02*
X379864242Y-129926800D01*
X379864242Y-129926800D02*
X379959480Y-129974419D01*
X379959480Y-129974419D02*
X380007100Y-130022038D01*
X380007100Y-130022038D02*
X380054719Y-130117276D01*
X380054719Y-130117276D02*
X380054719Y-130260133D01*
X379388052Y-129069657D02*
X380054719Y-129069657D01*
X379388052Y-129498228D02*
X379911861Y-129498228D01*
X379911861Y-129498228D02*
X380007100Y-129450609D01*
X380007100Y-129450609D02*
X380054719Y-129355371D01*
X380054719Y-129355371D02*
X380054719Y-129212514D01*
X380054719Y-129212514D02*
X380007100Y-129117276D01*
X380007100Y-129117276D02*
X379959480Y-129069657D01*
X379388052Y-127974418D02*
X379388052Y-127593466D01*
X379054719Y-127831561D02*
X379911861Y-127831561D01*
X379911861Y-127831561D02*
X380007100Y-127783942D01*
X380007100Y-127783942D02*
X380054719Y-127688704D01*
X380054719Y-127688704D02*
X380054719Y-127593466D01*
X380054719Y-127117275D02*
X380007100Y-127212513D01*
X380007100Y-127212513D02*
X379959480Y-127260132D01*
X379959480Y-127260132D02*
X379864242Y-127307751D01*
X379864242Y-127307751D02*
X379578528Y-127307751D01*
X379578528Y-127307751D02*
X379483290Y-127260132D01*
X379483290Y-127260132D02*
X379435671Y-127212513D01*
X379435671Y-127212513D02*
X379388052Y-127117275D01*
X379388052Y-127117275D02*
X379388052Y-126974418D01*
X379388052Y-126974418D02*
X379435671Y-126879180D01*
X379435671Y-126879180D02*
X379483290Y-126831561D01*
X379483290Y-126831561D02*
X379578528Y-126783942D01*
X379578528Y-126783942D02*
X379864242Y-126783942D01*
X379864242Y-126783942D02*
X379959480Y-126831561D01*
X379959480Y-126831561D02*
X380007100Y-126879180D01*
X380007100Y-126879180D02*
X380054719Y-126974418D01*
X380054719Y-126974418D02*
X380054719Y-127117275D01*
X380054719Y-125593465D02*
X379054719Y-125593465D01*
X379530909Y-125593465D02*
X379530909Y-125022037D01*
X380054719Y-125022037D02*
X379054719Y-125022037D01*
X380054719Y-124117275D02*
X379530909Y-124117275D01*
X379530909Y-124117275D02*
X379435671Y-124164894D01*
X379435671Y-124164894D02*
X379388052Y-124260132D01*
X379388052Y-124260132D02*
X379388052Y-124450608D01*
X379388052Y-124450608D02*
X379435671Y-124545846D01*
X380007100Y-124117275D02*
X380054719Y-124212513D01*
X380054719Y-124212513D02*
X380054719Y-124450608D01*
X380054719Y-124450608D02*
X380007100Y-124545846D01*
X380007100Y-124545846D02*
X379911861Y-124593465D01*
X379911861Y-124593465D02*
X379816623Y-124593465D01*
X379816623Y-124593465D02*
X379721385Y-124545846D01*
X379721385Y-124545846D02*
X379673766Y-124450608D01*
X379673766Y-124450608D02*
X379673766Y-124212513D01*
X379673766Y-124212513D02*
X379626147Y-124117275D01*
X380007100Y-123212513D02*
X380054719Y-123307751D01*
X380054719Y-123307751D02*
X380054719Y-123498227D01*
X380054719Y-123498227D02*
X380007100Y-123593465D01*
X380007100Y-123593465D02*
X379959480Y-123641084D01*
X379959480Y-123641084D02*
X379864242Y-123688703D01*
X379864242Y-123688703D02*
X379578528Y-123688703D01*
X379578528Y-123688703D02*
X379483290Y-123641084D01*
X379483290Y-123641084D02*
X379435671Y-123593465D01*
X379435671Y-123593465D02*
X379388052Y-123498227D01*
X379388052Y-123498227D02*
X379388052Y-123307751D01*
X379388052Y-123307751D02*
X379435671Y-123212513D01*
X380054719Y-122783941D02*
X379054719Y-122783941D01*
X379673766Y-122688703D02*
X380054719Y-122402989D01*
X379388052Y-122402989D02*
X379769004Y-122783941D01*
X380007100Y-121545846D02*
X380054719Y-121641084D01*
X380054719Y-121641084D02*
X380054719Y-121831560D01*
X380054719Y-121831560D02*
X380007100Y-121926798D01*
X380007100Y-121926798D02*
X379959480Y-121974417D01*
X379959480Y-121974417D02*
X379864242Y-122022036D01*
X379864242Y-122022036D02*
X379578528Y-122022036D01*
X379578528Y-122022036D02*
X379483290Y-121974417D01*
X379483290Y-121974417D02*
X379435671Y-121926798D01*
X379435671Y-121926798D02*
X379388052Y-121831560D01*
X379388052Y-121831560D02*
X379388052Y-121641084D01*
X379388052Y-121641084D02*
X379435671Y-121545846D01*
X380054719Y-120974417D02*
X380007100Y-121069655D01*
X380007100Y-121069655D02*
X379911861Y-121117274D01*
X379911861Y-121117274D02*
X379054719Y-121117274D01*
X379388052Y-120164893D02*
X380054719Y-120164893D01*
X379388052Y-120593464D02*
X379911861Y-120593464D01*
X379911861Y-120593464D02*
X380007100Y-120545845D01*
X380007100Y-120545845D02*
X380054719Y-120450607D01*
X380054719Y-120450607D02*
X380054719Y-120307750D01*
X380054719Y-120307750D02*
X380007100Y-120212512D01*
X380007100Y-120212512D02*
X379959480Y-120164893D01*
X380054719Y-119688702D02*
X379054719Y-119688702D01*
X379435671Y-119688702D02*
X379388052Y-119593464D01*
X379388052Y-119593464D02*
X379388052Y-119402988D01*
X379388052Y-119402988D02*
X379435671Y-119307750D01*
X379435671Y-119307750D02*
X379483290Y-119260131D01*
X379483290Y-119260131D02*
X379578528Y-119212512D01*
X379578528Y-119212512D02*
X379864242Y-119212512D01*
X379864242Y-119212512D02*
X379959480Y-119260131D01*
X379959480Y-119260131D02*
X380007100Y-119307750D01*
X380007100Y-119307750D02*
X380054719Y-119402988D01*
X380054719Y-119402988D02*
X380054719Y-119593464D01*
X380054719Y-119593464D02*
X380007100Y-119688702D01*
X380054719Y-117593464D02*
X379530909Y-117593464D01*
X379530909Y-117593464D02*
X379435671Y-117641083D01*
X379435671Y-117641083D02*
X379388052Y-117736321D01*
X379388052Y-117736321D02*
X379388052Y-117926797D01*
X379388052Y-117926797D02*
X379435671Y-118022035D01*
X380007100Y-117593464D02*
X380054719Y-117688702D01*
X380054719Y-117688702D02*
X380054719Y-117926797D01*
X380054719Y-117926797D02*
X380007100Y-118022035D01*
X380007100Y-118022035D02*
X379911861Y-118069654D01*
X379911861Y-118069654D02*
X379816623Y-118069654D01*
X379816623Y-118069654D02*
X379721385Y-118022035D01*
X379721385Y-118022035D02*
X379673766Y-117926797D01*
X379673766Y-117926797D02*
X379673766Y-117688702D01*
X379673766Y-117688702D02*
X379626147Y-117593464D01*
X379388052Y-117117273D02*
X380054719Y-117117273D01*
X379483290Y-117117273D02*
X379435671Y-117069654D01*
X379435671Y-117069654D02*
X379388052Y-116974416D01*
X379388052Y-116974416D02*
X379388052Y-116831559D01*
X379388052Y-116831559D02*
X379435671Y-116736321D01*
X379435671Y-116736321D02*
X379530909Y-116688702D01*
X379530909Y-116688702D02*
X380054719Y-116688702D01*
X380054719Y-115783940D02*
X379054719Y-115783940D01*
X380007100Y-115783940D02*
X380054719Y-115879178D01*
X380054719Y-115879178D02*
X380054719Y-116069654D01*
X380054719Y-116069654D02*
X380007100Y-116164892D01*
X380007100Y-116164892D02*
X379959480Y-116212511D01*
X379959480Y-116212511D02*
X379864242Y-116260130D01*
X379864242Y-116260130D02*
X379578528Y-116260130D01*
X379578528Y-116260130D02*
X379483290Y-116212511D01*
X379483290Y-116212511D02*
X379435671Y-116164892D01*
X379435671Y-116164892D02*
X379388052Y-116069654D01*
X379388052Y-116069654D02*
X379388052Y-115879178D01*
X379388052Y-115879178D02*
X379435671Y-115783940D01*
X380054719Y-114545844D02*
X379054719Y-114545844D01*
X380054719Y-113974416D02*
X379483290Y-114402987D01*
X379054719Y-113974416D02*
X379626147Y-114545844D01*
X380007100Y-113164892D02*
X380054719Y-113260130D01*
X380054719Y-113260130D02*
X380054719Y-113450606D01*
X380054719Y-113450606D02*
X380007100Y-113545844D01*
X380007100Y-113545844D02*
X379911861Y-113593463D01*
X379911861Y-113593463D02*
X379530909Y-113593463D01*
X379530909Y-113593463D02*
X379435671Y-113545844D01*
X379435671Y-113545844D02*
X379388052Y-113450606D01*
X379388052Y-113450606D02*
X379388052Y-113260130D01*
X379388052Y-113260130D02*
X379435671Y-113164892D01*
X379435671Y-113164892D02*
X379530909Y-113117273D01*
X379530909Y-113117273D02*
X379626147Y-113117273D01*
X379626147Y-113117273D02*
X379721385Y-113593463D01*
X380007100Y-112307749D02*
X380054719Y-112402987D01*
X380054719Y-112402987D02*
X380054719Y-112593463D01*
X380054719Y-112593463D02*
X380007100Y-112688701D01*
X380007100Y-112688701D02*
X379911861Y-112736320D01*
X379911861Y-112736320D02*
X379530909Y-112736320D01*
X379530909Y-112736320D02*
X379435671Y-112688701D01*
X379435671Y-112688701D02*
X379388052Y-112593463D01*
X379388052Y-112593463D02*
X379388052Y-112402987D01*
X379388052Y-112402987D02*
X379435671Y-112307749D01*
X379435671Y-112307749D02*
X379530909Y-112260130D01*
X379530909Y-112260130D02*
X379626147Y-112260130D01*
X379626147Y-112260130D02*
X379721385Y-112736320D01*
X380054719Y-111831558D02*
X379054719Y-111831558D01*
X379435671Y-111831558D02*
X379388052Y-111736320D01*
X379388052Y-111736320D02*
X379388052Y-111545844D01*
X379388052Y-111545844D02*
X379435671Y-111450606D01*
X379435671Y-111450606D02*
X379483290Y-111402987D01*
X379483290Y-111402987D02*
X379578528Y-111355368D01*
X379578528Y-111355368D02*
X379864242Y-111355368D01*
X379864242Y-111355368D02*
X379959480Y-111402987D01*
X379959480Y-111402987D02*
X380007100Y-111450606D01*
X380007100Y-111450606D02*
X380054719Y-111545844D01*
X380054719Y-111545844D02*
X380054719Y-111736320D01*
X380054719Y-111736320D02*
X380007100Y-111831558D01*
X379388052Y-110307748D02*
X379388052Y-109926796D01*
X380054719Y-110164891D02*
X379197576Y-110164891D01*
X379197576Y-110164891D02*
X379102338Y-110117272D01*
X379102338Y-110117272D02*
X379054719Y-110022034D01*
X379054719Y-110022034D02*
X379054719Y-109926796D01*
X380054719Y-109450605D02*
X380007100Y-109545843D01*
X380007100Y-109545843D02*
X379959480Y-109593462D01*
X379959480Y-109593462D02*
X379864242Y-109641081D01*
X379864242Y-109641081D02*
X379578528Y-109641081D01*
X379578528Y-109641081D02*
X379483290Y-109593462D01*
X379483290Y-109593462D02*
X379435671Y-109545843D01*
X379435671Y-109545843D02*
X379388052Y-109450605D01*
X379388052Y-109450605D02*
X379388052Y-109307748D01*
X379388052Y-109307748D02*
X379435671Y-109212510D01*
X379435671Y-109212510D02*
X379483290Y-109164891D01*
X379483290Y-109164891D02*
X379578528Y-109117272D01*
X379578528Y-109117272D02*
X379864242Y-109117272D01*
X379864242Y-109117272D02*
X379959480Y-109164891D01*
X379959480Y-109164891D02*
X380007100Y-109212510D01*
X380007100Y-109212510D02*
X380054719Y-109307748D01*
X380054719Y-109307748D02*
X380054719Y-109450605D01*
X380054719Y-108688700D02*
X379388052Y-108688700D01*
X379578528Y-108688700D02*
X379483290Y-108641081D01*
X379483290Y-108641081D02*
X379435671Y-108593462D01*
X379435671Y-108593462D02*
X379388052Y-108498224D01*
X379388052Y-108498224D02*
X379388052Y-108402986D01*
X380054719Y-107307747D02*
X379388052Y-107307747D01*
X379483290Y-107307747D02*
X379435671Y-107260128D01*
X379435671Y-107260128D02*
X379388052Y-107164890D01*
X379388052Y-107164890D02*
X379388052Y-107022033D01*
X379388052Y-107022033D02*
X379435671Y-106926795D01*
X379435671Y-106926795D02*
X379530909Y-106879176D01*
X379530909Y-106879176D02*
X380054719Y-106879176D01*
X379530909Y-106879176D02*
X379435671Y-106831557D01*
X379435671Y-106831557D02*
X379388052Y-106736319D01*
X379388052Y-106736319D02*
X379388052Y-106593462D01*
X379388052Y-106593462D02*
X379435671Y-106498223D01*
X379435671Y-106498223D02*
X379530909Y-106450604D01*
X379530909Y-106450604D02*
X380054719Y-106450604D01*
X380054719Y-105545843D02*
X379530909Y-105545843D01*
X379530909Y-105545843D02*
X379435671Y-105593462D01*
X379435671Y-105593462D02*
X379388052Y-105688700D01*
X379388052Y-105688700D02*
X379388052Y-105879176D01*
X379388052Y-105879176D02*
X379435671Y-105974414D01*
X380007100Y-105545843D02*
X380054719Y-105641081D01*
X380054719Y-105641081D02*
X380054719Y-105879176D01*
X380054719Y-105879176D02*
X380007100Y-105974414D01*
X380007100Y-105974414D02*
X379911861Y-106022033D01*
X379911861Y-106022033D02*
X379816623Y-106022033D01*
X379816623Y-106022033D02*
X379721385Y-105974414D01*
X379721385Y-105974414D02*
X379673766Y-105879176D01*
X379673766Y-105879176D02*
X379673766Y-105641081D01*
X379673766Y-105641081D02*
X379626147Y-105545843D01*
X380054719Y-105069652D02*
X379054719Y-105069652D01*
X379673766Y-104974414D02*
X380054719Y-104688700D01*
X379388052Y-104688700D02*
X379769004Y-105069652D01*
X380054719Y-104260128D02*
X379388052Y-104260128D01*
X379054719Y-104260128D02*
X379102338Y-104307747D01*
X379102338Y-104307747D02*
X379149957Y-104260128D01*
X379149957Y-104260128D02*
X379102338Y-104212509D01*
X379102338Y-104212509D02*
X379054719Y-104260128D01*
X379054719Y-104260128D02*
X379149957Y-104260128D01*
X379388052Y-103783938D02*
X380054719Y-103783938D01*
X379483290Y-103783938D02*
X379435671Y-103736319D01*
X379435671Y-103736319D02*
X379388052Y-103641081D01*
X379388052Y-103641081D02*
X379388052Y-103498224D01*
X379388052Y-103498224D02*
X379435671Y-103402986D01*
X379435671Y-103402986D02*
X379530909Y-103355367D01*
X379530909Y-103355367D02*
X380054719Y-103355367D01*
X379388052Y-102450605D02*
X380197576Y-102450605D01*
X380197576Y-102450605D02*
X380292814Y-102498224D01*
X380292814Y-102498224D02*
X380340433Y-102545843D01*
X380340433Y-102545843D02*
X380388052Y-102641081D01*
X380388052Y-102641081D02*
X380388052Y-102783938D01*
X380388052Y-102783938D02*
X380340433Y-102879176D01*
X380007100Y-102450605D02*
X380054719Y-102545843D01*
X380054719Y-102545843D02*
X380054719Y-102736319D01*
X380054719Y-102736319D02*
X380007100Y-102831557D01*
X380007100Y-102831557D02*
X379959480Y-102879176D01*
X379959480Y-102879176D02*
X379864242Y-102926795D01*
X379864242Y-102926795D02*
X379578528Y-102926795D01*
X379578528Y-102926795D02*
X379483290Y-102879176D01*
X379483290Y-102879176D02*
X379435671Y-102831557D01*
X379435671Y-102831557D02*
X379388052Y-102736319D01*
X379388052Y-102736319D02*
X379388052Y-102545843D01*
X379388052Y-102545843D02*
X379435671Y-102450605D01*
X379388052Y-101355366D02*
X379388052Y-100974414D01*
X379054719Y-101212509D02*
X379911861Y-101212509D01*
X379911861Y-101212509D02*
X380007100Y-101164890D01*
X380007100Y-101164890D02*
X380054719Y-101069652D01*
X380054719Y-101069652D02*
X380054719Y-100974414D01*
X380054719Y-100641080D02*
X379054719Y-100641080D01*
X380054719Y-100212509D02*
X379530909Y-100212509D01*
X379530909Y-100212509D02*
X379435671Y-100260128D01*
X379435671Y-100260128D02*
X379388052Y-100355366D01*
X379388052Y-100355366D02*
X379388052Y-100498223D01*
X379388052Y-100498223D02*
X379435671Y-100593461D01*
X379435671Y-100593461D02*
X379483290Y-100641080D01*
X380054719Y-99736318D02*
X379388052Y-99736318D01*
X379054719Y-99736318D02*
X379102338Y-99783937D01*
X379102338Y-99783937D02*
X379149957Y-99736318D01*
X379149957Y-99736318D02*
X379102338Y-99688699D01*
X379102338Y-99688699D02*
X379054719Y-99736318D01*
X379054719Y-99736318D02*
X379149957Y-99736318D01*
X380007100Y-99307747D02*
X380054719Y-99212509D01*
X380054719Y-99212509D02*
X380054719Y-99022033D01*
X380054719Y-99022033D02*
X380007100Y-98926795D01*
X380007100Y-98926795D02*
X379911861Y-98879176D01*
X379911861Y-98879176D02*
X379864242Y-98879176D01*
X379864242Y-98879176D02*
X379769004Y-98926795D01*
X379769004Y-98926795D02*
X379721385Y-99022033D01*
X379721385Y-99022033D02*
X379721385Y-99164890D01*
X379721385Y-99164890D02*
X379673766Y-99260128D01*
X379673766Y-99260128D02*
X379578528Y-99307747D01*
X379578528Y-99307747D02*
X379530909Y-99307747D01*
X379530909Y-99307747D02*
X379435671Y-99260128D01*
X379435671Y-99260128D02*
X379388052Y-99164890D01*
X379388052Y-99164890D02*
X379388052Y-99022033D01*
X379388052Y-99022033D02*
X379435671Y-98926795D01*
X379388052Y-97688699D02*
X380388052Y-97688699D01*
X379435671Y-97688699D02*
X379388052Y-97593461D01*
X379388052Y-97593461D02*
X379388052Y-97402985D01*
X379388052Y-97402985D02*
X379435671Y-97307747D01*
X379435671Y-97307747D02*
X379483290Y-97260128D01*
X379483290Y-97260128D02*
X379578528Y-97212509D01*
X379578528Y-97212509D02*
X379864242Y-97212509D01*
X379864242Y-97212509D02*
X379959480Y-97260128D01*
X379959480Y-97260128D02*
X380007100Y-97307747D01*
X380007100Y-97307747D02*
X380054719Y-97402985D01*
X380054719Y-97402985D02*
X380054719Y-97593461D01*
X380054719Y-97593461D02*
X380007100Y-97688699D01*
X380054719Y-96641080D02*
X380007100Y-96736318D01*
X380007100Y-96736318D02*
X379959480Y-96783937D01*
X379959480Y-96783937D02*
X379864242Y-96831556D01*
X379864242Y-96831556D02*
X379578528Y-96831556D01*
X379578528Y-96831556D02*
X379483290Y-96783937D01*
X379483290Y-96783937D02*
X379435671Y-96736318D01*
X379435671Y-96736318D02*
X379388052Y-96641080D01*
X379388052Y-96641080D02*
X379388052Y-96498223D01*
X379388052Y-96498223D02*
X379435671Y-96402985D01*
X379435671Y-96402985D02*
X379483290Y-96355366D01*
X379483290Y-96355366D02*
X379578528Y-96307747D01*
X379578528Y-96307747D02*
X379864242Y-96307747D01*
X379864242Y-96307747D02*
X379959480Y-96355366D01*
X379959480Y-96355366D02*
X380007100Y-96402985D01*
X380007100Y-96402985D02*
X380054719Y-96498223D01*
X380054719Y-96498223D02*
X380054719Y-96641080D01*
X380007100Y-95926794D02*
X380054719Y-95831556D01*
X380054719Y-95831556D02*
X380054719Y-95641080D01*
X380054719Y-95641080D02*
X380007100Y-95545842D01*
X380007100Y-95545842D02*
X379911861Y-95498223D01*
X379911861Y-95498223D02*
X379864242Y-95498223D01*
X379864242Y-95498223D02*
X379769004Y-95545842D01*
X379769004Y-95545842D02*
X379721385Y-95641080D01*
X379721385Y-95641080D02*
X379721385Y-95783937D01*
X379721385Y-95783937D02*
X379673766Y-95879175D01*
X379673766Y-95879175D02*
X379578528Y-95926794D01*
X379578528Y-95926794D02*
X379530909Y-95926794D01*
X379530909Y-95926794D02*
X379435671Y-95879175D01*
X379435671Y-95879175D02*
X379388052Y-95783937D01*
X379388052Y-95783937D02*
X379388052Y-95641080D01*
X379388052Y-95641080D02*
X379435671Y-95545842D01*
X380007100Y-95117270D02*
X380054719Y-95022032D01*
X380054719Y-95022032D02*
X380054719Y-94831556D01*
X380054719Y-94831556D02*
X380007100Y-94736318D01*
X380007100Y-94736318D02*
X379911861Y-94688699D01*
X379911861Y-94688699D02*
X379864242Y-94688699D01*
X379864242Y-94688699D02*
X379769004Y-94736318D01*
X379769004Y-94736318D02*
X379721385Y-94831556D01*
X379721385Y-94831556D02*
X379721385Y-94974413D01*
X379721385Y-94974413D02*
X379673766Y-95069651D01*
X379673766Y-95069651D02*
X379578528Y-95117270D01*
X379578528Y-95117270D02*
X379530909Y-95117270D01*
X379530909Y-95117270D02*
X379435671Y-95069651D01*
X379435671Y-95069651D02*
X379388052Y-94974413D01*
X379388052Y-94974413D02*
X379388052Y-94831556D01*
X379388052Y-94831556D02*
X379435671Y-94736318D01*
X380054719Y-94260127D02*
X379388052Y-94260127D01*
X379054719Y-94260127D02*
X379102338Y-94307746D01*
X379102338Y-94307746D02*
X379149957Y-94260127D01*
X379149957Y-94260127D02*
X379102338Y-94212508D01*
X379102338Y-94212508D02*
X379054719Y-94260127D01*
X379054719Y-94260127D02*
X379149957Y-94260127D01*
X380054719Y-93783937D02*
X379054719Y-93783937D01*
X379435671Y-93783937D02*
X379388052Y-93688699D01*
X379388052Y-93688699D02*
X379388052Y-93498223D01*
X379388052Y-93498223D02*
X379435671Y-93402985D01*
X379435671Y-93402985D02*
X379483290Y-93355366D01*
X379483290Y-93355366D02*
X379578528Y-93307747D01*
X379578528Y-93307747D02*
X379864242Y-93307747D01*
X379864242Y-93307747D02*
X379959480Y-93355366D01*
X379959480Y-93355366D02*
X380007100Y-93402985D01*
X380007100Y-93402985D02*
X380054719Y-93498223D01*
X380054719Y-93498223D02*
X380054719Y-93688699D01*
X380054719Y-93688699D02*
X380007100Y-93783937D01*
X380054719Y-92736318D02*
X380007100Y-92831556D01*
X380007100Y-92831556D02*
X379911861Y-92879175D01*
X379911861Y-92879175D02*
X379054719Y-92879175D01*
X380007100Y-91974413D02*
X380054719Y-92069651D01*
X380054719Y-92069651D02*
X380054719Y-92260127D01*
X380054719Y-92260127D02*
X380007100Y-92355365D01*
X380007100Y-92355365D02*
X379911861Y-92402984D01*
X379911861Y-92402984D02*
X379530909Y-92402984D01*
X379530909Y-92402984D02*
X379435671Y-92355365D01*
X379435671Y-92355365D02*
X379388052Y-92260127D01*
X379388052Y-92260127D02*
X379388052Y-92069651D01*
X379388052Y-92069651D02*
X379435671Y-91974413D01*
X379435671Y-91974413D02*
X379530909Y-91926794D01*
X379530909Y-91926794D02*
X379626147Y-91926794D01*
X379626147Y-91926794D02*
X379721385Y-92402984D01*
D11*
X86825549Y-66130776D02*
X91587453Y-66130776D01*
X91587453Y-66130776D02*
X93819596Y-67321252D01*
X93819596Y-67321252D02*
X95902930Y-69702204D01*
X95902930Y-69702204D02*
X96498168Y-74464109D01*
X96498168Y-74464109D02*
X95456501Y-82797442D01*
X95456501Y-82797442D02*
X93670787Y-87559347D01*
X93670787Y-87559347D02*
X90992215Y-89940300D01*
X90992215Y-89940300D02*
X88462453Y-91130776D01*
X88462453Y-91130776D02*
X83700549Y-91130776D01*
X83700549Y-91130776D02*
X81468406Y-89940300D01*
X81468406Y-89940300D02*
X79385073Y-87559347D01*
X79385073Y-87559347D02*
X78789834Y-82797442D01*
X78789834Y-82797442D02*
X79831501Y-74464109D01*
X79831501Y-74464109D02*
X81617215Y-69702204D01*
X81617215Y-69702204D02*
X84295787Y-67321252D01*
X84295787Y-67321252D02*
X86825549Y-66130776D01*
X105129120Y-91130776D02*
X107212453Y-74464109D01*
X106617215Y-79226014D02*
X108105310Y-76845061D01*
X108105310Y-76845061D02*
X109444596Y-75654585D01*
X109444596Y-75654585D02*
X111974358Y-74464109D01*
X111974358Y-74464109D02*
X114355310Y-74464109D01*
X119117215Y-74464109D02*
X128641024Y-74464109D01*
X123730310Y-66130776D02*
X121051739Y-87559347D01*
X121051739Y-87559347D02*
X121944596Y-89940300D01*
X121944596Y-89940300D02*
X124176739Y-91130776D01*
X124176739Y-91130776D02*
X126557691Y-91130776D01*
X134891024Y-91130776D02*
X138016024Y-66130776D01*
X145605310Y-91130776D02*
X147242214Y-78035538D01*
X147242214Y-78035538D02*
X146349357Y-75654585D01*
X146349357Y-75654585D02*
X144117214Y-74464109D01*
X144117214Y-74464109D02*
X140545786Y-74464109D01*
X140545786Y-74464109D02*
X138016024Y-75654585D01*
X138016024Y-75654585D02*
X136676738Y-76845061D01*
X161081501Y-91130776D02*
X158849358Y-89940300D01*
X158849358Y-89940300D02*
X157807691Y-88749823D01*
X157807691Y-88749823D02*
X156914834Y-86368871D01*
X156914834Y-86368871D02*
X157807691Y-79226014D01*
X157807691Y-79226014D02*
X159295786Y-76845061D01*
X159295786Y-76845061D02*
X160635072Y-75654585D01*
X160635072Y-75654585D02*
X163164834Y-74464109D01*
X163164834Y-74464109D02*
X166736262Y-74464109D01*
X166736262Y-74464109D02*
X168968405Y-75654585D01*
X168968405Y-75654585D02*
X170010072Y-76845061D01*
X170010072Y-76845061D02*
X170902929Y-79226014D01*
X170902929Y-79226014D02*
X170010072Y-86368871D01*
X170010072Y-86368871D02*
X168521977Y-88749823D01*
X168521977Y-88749823D02*
X167182691Y-89940300D01*
X167182691Y-89940300D02*
X164652929Y-91130776D01*
X164652929Y-91130776D02*
X161081501Y-91130776D01*
X181319596Y-81606966D02*
X200367215Y-81606966D01*
X210635072Y-66130776D02*
X224920787Y-66130776D01*
X214652930Y-91130776D02*
X217777930Y-66130776D01*
X242926739Y-74464109D02*
X240843406Y-91130776D01*
X232212453Y-74464109D02*
X230575549Y-87559347D01*
X230575549Y-87559347D02*
X231468406Y-89940300D01*
X231468406Y-89940300D02*
X233700549Y-91130776D01*
X233700549Y-91130776D02*
X237271977Y-91130776D01*
X237271977Y-91130776D02*
X239801739Y-89940300D01*
X239801739Y-89940300D02*
X241141025Y-88749823D01*
X252748168Y-91130776D02*
X254831501Y-74464109D01*
X254236263Y-79226014D02*
X255724358Y-76845061D01*
X255724358Y-76845061D02*
X257063644Y-75654585D01*
X257063644Y-75654585D02*
X259593406Y-74464109D01*
X259593406Y-74464109D02*
X261974358Y-74464109D01*
X266736263Y-74464109D02*
X276260072Y-74464109D01*
X271349358Y-66130776D02*
X268670787Y-87559347D01*
X268670787Y-87559347D02*
X269563644Y-89940300D01*
X269563644Y-89940300D02*
X271795787Y-91130776D01*
X271795787Y-91130776D02*
X274176739Y-91130776D01*
X286081501Y-91130776D02*
X283849358Y-89940300D01*
X283849358Y-89940300D02*
X282956501Y-87559347D01*
X282956501Y-87559347D02*
X285635072Y-66130776D01*
X305277929Y-89940300D02*
X302748167Y-91130776D01*
X302748167Y-91130776D02*
X297986262Y-91130776D01*
X297986262Y-91130776D02*
X295754119Y-89940300D01*
X295754119Y-89940300D02*
X294861262Y-87559347D01*
X294861262Y-87559347D02*
X296051739Y-78035538D01*
X296051739Y-78035538D02*
X297539834Y-75654585D01*
X297539834Y-75654585D02*
X300069596Y-74464109D01*
X300069596Y-74464109D02*
X304831500Y-74464109D01*
X304831500Y-74464109D02*
X307063643Y-75654585D01*
X307063643Y-75654585D02*
X307956500Y-78035538D01*
X307956500Y-78035538D02*
X307658881Y-80416490D01*
X307658881Y-80416490D02*
X295456500Y-82797442D01*
D12*
X376344960Y-78112004D02*
X376821150Y-78112004D01*
X376249722Y-78397719D02*
X376583055Y-77397719D01*
X376583055Y-77397719D02*
X376916388Y-78397719D01*
X377773531Y-78397719D02*
X377202103Y-78397719D01*
X377487817Y-78397719D02*
X377487817Y-77397719D01*
X377487817Y-77397719D02*
X377392579Y-77540576D01*
X377392579Y-77540576D02*
X377297341Y-77635814D01*
X377297341Y-77635814D02*
X377202103Y-77683433D01*
%TO.C,A1*%
D13*
X353698300Y-30107900D02*
X353218300Y-30107900D01*
X353698300Y-30107900D02*
X353698300Y-30527900D01*
X353698300Y-32647900D02*
X353698300Y-33067900D01*
X353698300Y-35187900D02*
X353698300Y-35607900D01*
X353698300Y-37727900D02*
X353698300Y-38147900D01*
X353698300Y-40267900D02*
X353698300Y-40687900D01*
X353698300Y-42807900D02*
X353698300Y-43227900D01*
X353698300Y-45347900D02*
X353698300Y-45767900D01*
X353698300Y-47887900D02*
X353698300Y-48307900D01*
X353698300Y-50427900D02*
X353698300Y-50847900D01*
X353698300Y-52967900D02*
X353698300Y-53387900D01*
X353698300Y-55507900D02*
X353698300Y-55927900D01*
X353698300Y-58047900D02*
X353698300Y-58467900D01*
X353698300Y-60587900D02*
X353698300Y-61007900D01*
X353698300Y-63127900D02*
X353698300Y-63547900D01*
X353698300Y-65667900D02*
X353698300Y-66087900D01*
X353698300Y-68207900D02*
X353698300Y-68627900D01*
X353698300Y-70747900D02*
X353698300Y-71167900D01*
X353698300Y-73287900D02*
X353698300Y-73707900D01*
X353698300Y-75827900D02*
X353698300Y-76247900D01*
X353728624Y-27987900D02*
X353218300Y-27987900D01*
X354038300Y-27987963D02*
X354038300Y-27630900D01*
X354038300Y-30107900D02*
X354038300Y-30527900D01*
X354038300Y-32647900D02*
X354038300Y-33067900D01*
X354038300Y-35187900D02*
X354038300Y-35607900D01*
X354038300Y-37727900D02*
X354038300Y-38147900D01*
X354038300Y-40267900D02*
X354038300Y-40687900D01*
X354038300Y-42807900D02*
X354038300Y-43227900D01*
X354038300Y-45347900D02*
X354038300Y-45767900D01*
X354038300Y-47887900D02*
X354038300Y-48307900D01*
X354038300Y-50427900D02*
X354038300Y-50847900D01*
X354038300Y-52967900D02*
X354038300Y-53387900D01*
X354038300Y-55507900D02*
X354038300Y-55927900D01*
X354038300Y-58047900D02*
X354038300Y-58467900D01*
X354038300Y-60587900D02*
X354038300Y-61007900D01*
X354038300Y-63127900D02*
X354038300Y-63547900D01*
X354038300Y-65667900D02*
X354038300Y-66087900D01*
X354038300Y-68207900D02*
X354038300Y-68627900D01*
X354038300Y-70747900D02*
X354038300Y-71167900D01*
X354038300Y-73287900D02*
X354038300Y-73707900D01*
X354038300Y-75827900D02*
X354038300Y-76247900D01*
X354038300Y-78367837D02*
X354038300Y-78724900D01*
X354308300Y-27567900D02*
X356798300Y-27567900D01*
X354308300Y-78787900D02*
X358146239Y-78787900D01*
X356798300Y-27567900D02*
X356798300Y-28481420D01*
X356798300Y-27567900D02*
X358146240Y-27567900D01*
X356798300Y-30874380D02*
X356798300Y-75481420D01*
X356798300Y-77874380D02*
X356798300Y-78787900D01*
X359070361Y-27567900D02*
X360073300Y-27567900D01*
X360073300Y-27567900D02*
X368543300Y-27567900D01*
X360408300Y-27567900D02*
X360408300Y-28483900D01*
X360408300Y-30871900D02*
X360408300Y-32087900D01*
X360408300Y-32087900D02*
X360704390Y-32087900D01*
X360708300Y-78787900D02*
X359070361Y-78787900D01*
X363062210Y-32087900D02*
X365554390Y-32087900D01*
X367908300Y-78787900D02*
X360708300Y-78787900D01*
X367912210Y-32087900D02*
X368208300Y-32087900D01*
X368208300Y-27567900D02*
X368208300Y-28483900D01*
X368208300Y-30871900D02*
X368208300Y-32087900D01*
X368543300Y-27567900D02*
X369546239Y-27567900D01*
X369546239Y-78787900D02*
X367908300Y-78787900D01*
X370470361Y-27567900D02*
X371818300Y-27567900D01*
X370470361Y-78787900D02*
X374308300Y-78787900D01*
X371818300Y-27567900D02*
X371818300Y-28481420D01*
X371818300Y-30874380D02*
X371818300Y-75481420D01*
X371818300Y-77874380D02*
X371818300Y-78787900D01*
X374308300Y-27567900D02*
X371818300Y-27567900D01*
X374578300Y-27987963D02*
X374578300Y-27630900D01*
X374578300Y-30107900D02*
X374578300Y-30527900D01*
X374578300Y-32647900D02*
X374578300Y-33067900D01*
X374578300Y-35187900D02*
X374578300Y-35607900D01*
X374578300Y-37727900D02*
X374578300Y-38147900D01*
X374578300Y-40267900D02*
X374578300Y-40687900D01*
X374578300Y-42807900D02*
X374578300Y-43227900D01*
X374578300Y-45347900D02*
X374578300Y-45767900D01*
X374578300Y-47887900D02*
X374578300Y-48307900D01*
X374578300Y-50427900D02*
X374578300Y-50847900D01*
X374578300Y-52967900D02*
X374578300Y-53387900D01*
X374578300Y-55507900D02*
X374578300Y-55927900D01*
X374578300Y-58047900D02*
X374578300Y-58467900D01*
X374578300Y-60587900D02*
X374578300Y-61007900D01*
X374578300Y-63127900D02*
X374578300Y-63547900D01*
X374578300Y-65667900D02*
X374578300Y-66087900D01*
X374578300Y-68207900D02*
X374578300Y-68627900D01*
X374578300Y-70747900D02*
X374578300Y-71167900D01*
X374578300Y-73287900D02*
X374578300Y-73707900D01*
X374578300Y-75827900D02*
X374578300Y-76247900D01*
X374578300Y-78367837D02*
X374578300Y-78724900D01*
X374918300Y-30107900D02*
X374918300Y-30527900D01*
X374918300Y-32647900D02*
X374918300Y-33067900D01*
X374918300Y-35187900D02*
X374918300Y-35607900D01*
X374918300Y-37727900D02*
X374918300Y-38147900D01*
X374918300Y-40267900D02*
X374918300Y-40687900D01*
X374918300Y-42807900D02*
X374918300Y-43227900D01*
X374918300Y-45347900D02*
X374918300Y-45767900D01*
X374918300Y-47887900D02*
X374918300Y-48307900D01*
X374918300Y-50427900D02*
X374918300Y-50847900D01*
X374918300Y-52967900D02*
X374918300Y-53387900D01*
X374918300Y-55507900D02*
X374918300Y-55927900D01*
X374918300Y-58047900D02*
X374918300Y-58467900D01*
X374918300Y-60587900D02*
X374918300Y-61007900D01*
X374918300Y-63127900D02*
X374918300Y-63547900D01*
X374918300Y-65667900D02*
X374918300Y-66087900D01*
X374918300Y-68207900D02*
X374918300Y-68627900D01*
X374918300Y-70747900D02*
X374918300Y-71167900D01*
X374918300Y-73287900D02*
X374918300Y-73707900D01*
X374918300Y-75827900D02*
X374918300Y-76247900D01*
X353728624Y-27987900D02*
G75*
G02*
X354308300Y-27567900I579692J-190051D01*
G01*
X354308300Y-78787900D02*
G75*
G02*
X353728624Y-78367837I1J610002D01*
G01*
X374308300Y-27567900D02*
G75*
G02*
X374887976Y-27987963I0J-610000D01*
G01*
X374887976Y-78367837D02*
G75*
G02*
X374308300Y-78787897I-579716J189997D01*
G01*
%TD*%
M02*
