%TF.GenerationSoftware,KiCad,Pcbnew,10.0.4*%
%TF.CreationDate,2026-08-20T21:29:58-04:00*%
%TF.ProjectId,Keyboard,4b657962-6f61-4726-942e-6b696361645f,rev?*%
%TF.SameCoordinates,Original*%
%TF.FileFunction,Soldermask,Top*%
%TF.FilePolarity,Negative*%
%FSLAX46Y46*%
G04 Gerber Fmt 4.6, Leading zero omitted, Abs format (unit mm)*
G04 Created by KiCad (PCBNEW 10.0.4) date 2026-08-20 21:29:58*
%MOMM*%
%LPD*%
G01*
G04 APERTURE LIST*
G04 Aperture macros list*
%AMRoundRect*
0 Rectangle with rounded corners*
0 $1 Rounding radius*
0 $2 $3 $4 $5 $6 $7 $8 $9 X,Y pos of 4 corners*
0 Add a 4 corners polygon primitive as box body*
4,1,4,$2,$3,$4,$5,$6,$7,$8,$9,$2,$3,0*
0 Add four circle primitives for the rounded corners*
1,1,$1+$1,$2,$3*
1,1,$1+$1,$4,$5*
1,1,$1+$1,$6,$7*
1,1,$1+$1,$8,$9*
0 Add four rect primitives between the rounded corners*
20,1,$1+$1,$2,$3,$4,$5,0*
20,1,$1+$1,$4,$5,$6,$7,0*
20,1,$1+$1,$6,$7,$8,$9,0*
20,1,$1+$1,$8,$9,$2,$3,0*%
%AMFreePoly0*
4,1,37,0.800000,0.796148,0.878414,0.796148,1.032228,0.765552,1.177117,0.705537,1.307515,0.618408,1.418408,0.507515,1.505537,0.377117,1.565552,0.232228,1.596148,0.078414,1.596148,-0.078414,1.565552,-0.232228,1.505537,-0.377117,1.418408,-0.507515,1.307515,-0.618408,1.177117,-0.705537,1.032228,-0.765552,0.878414,-0.796148,0.800000,-0.796148,0.800000,-0.800000,-1.400000,-0.800000,
-1.403843,-0.796157,-1.439018,-0.796157,-1.511114,-0.766294,-1.566294,-0.711114,-1.596157,-0.639018,-1.596157,-0.603843,-1.600000,-0.600000,-1.600000,0.600000,-1.596157,0.603843,-1.596157,0.639018,-1.566294,0.711114,-1.511114,0.766294,-1.439018,0.796157,-1.403843,0.796157,-1.400000,0.800000,0.800000,0.800000,0.800000,0.796148,0.800000,0.796148,$1*%
%AMFreePoly1*
4,1,37,1.403843,0.796157,1.439018,0.796157,1.511114,0.766294,1.566294,0.711114,1.596157,0.639018,1.596157,0.603843,1.600000,0.600000,1.600000,-0.600000,1.596157,-0.603843,1.596157,-0.639018,1.566294,-0.711114,1.511114,-0.766294,1.439018,-0.796157,1.403843,-0.796157,1.400000,-0.800000,-0.800000,-0.800000,-0.800000,-0.796148,-0.878414,-0.796148,-1.032228,-0.765552,-1.177117,-0.705537,
-1.307515,-0.618408,-1.418408,-0.507515,-1.505537,-0.377117,-1.565552,-0.232228,-1.596148,-0.078414,-1.596148,0.078414,-1.565552,0.232228,-1.505537,0.377117,-1.418408,0.507515,-1.307515,0.618408,-1.177117,0.705537,-1.032228,0.765552,-0.878414,0.796148,-0.800000,0.796148,-0.800000,0.800000,1.400000,0.800000,1.403843,0.796157,1.403843,0.796157,$1*%
%AMFreePoly2*
4,1,37,0.603843,0.796157,0.639018,0.796157,0.711114,0.766294,0.766294,0.711114,0.796157,0.639018,0.796157,0.603843,0.800000,0.600000,0.800000,-0.600000,0.796157,-0.603843,0.796157,-0.639018,0.766294,-0.711114,0.711114,-0.766294,0.639018,-0.796157,0.603843,-0.796157,0.600000,-0.800000,0.000000,-0.800000,0.000000,-0.796148,-0.078414,-0.796148,-0.232228,-0.765552,-0.377117,-0.705537,
-0.507515,-0.618408,-0.618408,-0.507515,-0.705537,-0.377117,-0.765552,-0.232228,-0.796148,-0.078414,-0.796148,0.078414,-0.765552,0.232228,-0.705537,0.377117,-0.618408,0.507515,-0.507515,0.618408,-0.377117,0.705537,-0.232228,0.765552,-0.078414,0.796148,0.000000,0.796148,0.000000,0.800000,0.600000,0.800000,0.603843,0.796157,0.603843,0.796157,$1*%
%AMFreePoly3*
4,1,37,0.000000,0.796148,0.078414,0.796148,0.232228,0.765552,0.377117,0.705537,0.507515,0.618408,0.618408,0.507515,0.705537,0.377117,0.765552,0.232228,0.796148,0.078414,0.796148,-0.078414,0.765552,-0.232228,0.705537,-0.377117,0.618408,-0.507515,0.507515,-0.618408,0.377117,-0.705537,0.232228,-0.765552,0.078414,-0.796148,0.000000,-0.796148,0.000000,-0.800000,-0.600000,-0.800000,
-0.603843,-0.796157,-0.639018,-0.796157,-0.711114,-0.766294,-0.766294,-0.711114,-0.796157,-0.639018,-0.796157,-0.603843,-0.800000,-0.600000,-0.800000,0.600000,-0.796157,0.603843,-0.796157,0.639018,-0.766294,0.711114,-0.711114,0.766294,-0.639018,0.796157,-0.603843,0.796157,-0.600000,0.800000,0.000000,0.800000,0.000000,0.796148,0.000000,0.796148,$1*%
G04 Aperture macros list end*
%ADD10C,3.987800*%
%ADD11C,2.200000*%
%ADD12C,1.850000*%
%ADD13FreePoly0,0.000000*%
%ADD14RoundRect,0.200000X-0.600000X-0.600000X0.600000X-0.600000X0.600000X0.600000X-0.600000X0.600000X0*%
%ADD15RoundRect,0.800000X-0.800000X-0.000010X0.800000X-0.000010X0.800000X0.000010X-0.800000X0.000010X0*%
%ADD16C,1.600000*%
%ADD17FreePoly1,0.000000*%
%ADD18FreePoly2,0.000000*%
%ADD19FreePoly3,0.000000*%
%ADD20C,1.750000*%
%ADD21C,3.300000*%
G04 APERTURE END LIST*
D10*
%TO.C,S3*%
X309562500Y-86995000D03*
X285750000Y-86995000D03*
%TD*%
%TO.C,S2*%
X326231250Y-48895000D03*
X302418750Y-48895000D03*
%TD*%
%TO.C,S1*%
X219075000Y-125095000D03*
X119062500Y-125095000D03*
%TD*%
D11*
%TO.C,A1*%
X361583300Y-29177900D03*
D12*
X361883300Y-32207900D03*
X366733300Y-32207900D03*
D11*
X367033300Y-29177900D03*
D13*
X354618300Y-29047900D03*
D14*
X355418300Y-29047900D03*
D15*
X354618300Y-31587900D03*
D16*
X355418300Y-31587900D03*
D17*
X354618300Y-34127900D03*
D18*
X355418300Y-34127900D03*
D15*
X354618300Y-36667900D03*
D16*
X355418300Y-36667900D03*
D15*
X354618300Y-39207900D03*
D16*
X355418300Y-39207900D03*
D15*
X354618300Y-41747900D03*
D16*
X355418300Y-41747900D03*
D15*
X354618300Y-44287900D03*
D16*
X355418300Y-44287900D03*
D17*
X354618300Y-46827900D03*
D18*
X355418300Y-46827900D03*
D15*
X354618300Y-49367900D03*
D16*
X355418300Y-49367900D03*
D15*
X354618300Y-51907900D03*
D16*
X355418300Y-51907900D03*
D15*
X354618300Y-54447900D03*
D16*
X355418300Y-54447900D03*
D15*
X354618300Y-56987900D03*
D16*
X355418300Y-56987900D03*
D17*
X354618300Y-59527900D03*
D18*
X355418300Y-59527900D03*
D15*
X354618300Y-62067900D03*
D16*
X355418300Y-62067900D03*
D15*
X354618300Y-64607900D03*
D16*
X355418300Y-64607900D03*
D15*
X354618300Y-67147900D03*
D16*
X355418300Y-67147900D03*
D15*
X354618300Y-69687900D03*
D16*
X355418300Y-69687900D03*
D17*
X354618300Y-72227900D03*
D18*
X355418300Y-72227900D03*
D15*
X354618300Y-74767900D03*
D16*
X355418300Y-74767900D03*
D15*
X354618300Y-77307900D03*
D16*
X355418300Y-77307900D03*
X373198300Y-77307900D03*
D15*
X373998300Y-77307900D03*
D16*
X373198300Y-74767900D03*
D15*
X373998300Y-74767900D03*
D19*
X373198300Y-72227900D03*
D13*
X373998300Y-72227900D03*
D16*
X373198300Y-69687900D03*
D15*
X373998300Y-69687900D03*
D16*
X373198300Y-67147900D03*
D15*
X373998300Y-67147900D03*
D16*
X373198300Y-64607900D03*
D15*
X373998300Y-64607900D03*
D16*
X373198300Y-62067900D03*
D15*
X373998300Y-62067900D03*
D19*
X373198300Y-59527900D03*
D13*
X373998300Y-59527900D03*
D16*
X373198300Y-56987900D03*
D15*
X373998300Y-56987900D03*
D16*
X373198300Y-54447900D03*
D15*
X373998300Y-54447900D03*
D16*
X373198300Y-51907900D03*
D15*
X373998300Y-51907900D03*
D16*
X373198300Y-49367900D03*
D15*
X373998300Y-49367900D03*
D19*
X373198300Y-46827900D03*
D13*
X373998300Y-46827900D03*
D16*
X373198300Y-44287900D03*
D15*
X373998300Y-44287900D03*
D16*
X373198300Y-41747900D03*
D15*
X373998300Y-41747900D03*
D16*
X373198300Y-39207900D03*
D15*
X373998300Y-39207900D03*
D16*
X373198300Y-36667900D03*
D15*
X373998300Y-36667900D03*
D19*
X373198300Y-34127900D03*
D13*
X373998300Y-34127900D03*
D16*
X373198300Y-31587900D03*
D15*
X373998300Y-31587900D03*
D16*
X373198300Y-29047900D03*
D15*
X373998300Y-29047900D03*
%TD*%
D10*
%TO.C,S4*%
X290494200Y-106196100D03*
X266681700Y-106196100D03*
%TD*%
D20*
%TO.C,MX73*%
X78898750Y-133350000D03*
D10*
X73818750Y-133350000D03*
D20*
X68738750Y-133350000D03*
D21*
X70008750Y-130810000D03*
X76358750Y-128270000D03*
%TD*%
D20*
%TO.C,MX11*%
X252730000Y-38100000D03*
D10*
X247650000Y-38100000D03*
D20*
X242570000Y-38100000D03*
D21*
X243840000Y-35560000D03*
X250190000Y-33020000D03*
%TD*%
D20*
%TO.C,MX51*%
X176530000Y-95250000D03*
D10*
X171450000Y-95250000D03*
D20*
X166370000Y-95250000D03*
D21*
X167640000Y-92710000D03*
X173990000Y-90170000D03*
%TD*%
D20*
%TO.C,MX58*%
X338455000Y-95250000D03*
D10*
X333375000Y-95250000D03*
D20*
X328295000Y-95250000D03*
D21*
X329565000Y-92710000D03*
X335915000Y-90170000D03*
%TD*%
D20*
%TO.C,MX61*%
X100330000Y-114300000D03*
D10*
X95250000Y-114300000D03*
D20*
X90170000Y-114300000D03*
D21*
X91440000Y-111760000D03*
X97790000Y-109220000D03*
%TD*%
D20*
%TO.C,MX77*%
X262255000Y-133350000D03*
D10*
X257175000Y-133350000D03*
D20*
X252095000Y-133350000D03*
D21*
X253365000Y-130810000D03*
X259715000Y-128270000D03*
%TD*%
D20*
%TO.C,MX44*%
X338434000Y-76195200D03*
D10*
X333354000Y-76195200D03*
D20*
X328274000Y-76195200D03*
D21*
X329544000Y-73655200D03*
X335894000Y-71115200D03*
%TD*%
D20*
%TO.C,MX15*%
X328930000Y-38100000D03*
D10*
X323850000Y-38100000D03*
D20*
X318770000Y-38100000D03*
D21*
X320040000Y-35560000D03*
X326390000Y-33020000D03*
%TD*%
D20*
%TO.C,MX60*%
X81280000Y-114300000D03*
D10*
X76200000Y-114300000D03*
D20*
X71120000Y-114300000D03*
D21*
X72390000Y-111760000D03*
X78740000Y-109220000D03*
%TD*%
D20*
%TO.C,MX16*%
X62230000Y-57150000D03*
D10*
X57150000Y-57150000D03*
D20*
X52070000Y-57150000D03*
D21*
X53340000Y-54610000D03*
X59690000Y-52070000D03*
%TD*%
D20*
%TO.C,MX57*%
X302736250Y-95250000D03*
D10*
X297656250Y-95250000D03*
D20*
X292576250Y-95250000D03*
D21*
X293846250Y-92710000D03*
X300196250Y-90170000D03*
%TD*%
D20*
%TO.C,MX81*%
X338455000Y-133350000D03*
D10*
X333375000Y-133350000D03*
D20*
X328295000Y-133350000D03*
D21*
X329565000Y-130810000D03*
X335915000Y-128270000D03*
%TD*%
D20*
%TO.C,MX74*%
X102711250Y-133350000D03*
D10*
X97631250Y-133350000D03*
D20*
X92551250Y-133350000D03*
D21*
X93821250Y-130810000D03*
X100171250Y-128270000D03*
%TD*%
D20*
%TO.C,MX45*%
X55086250Y-95250000D03*
D10*
X50006250Y-95250000D03*
D20*
X44926250Y-95250000D03*
D21*
X46196250Y-92710000D03*
X52546250Y-90170000D03*
%TD*%
D20*
%TO.C,MX13*%
X290830000Y-38100000D03*
D10*
X285750000Y-38100000D03*
D20*
X280670000Y-38100000D03*
D21*
X281940000Y-35560000D03*
X288290000Y-33020000D03*
%TD*%
D20*
%TO.C,MX54*%
X233680000Y-95250000D03*
D10*
X228600000Y-95250000D03*
D20*
X223520000Y-95250000D03*
D21*
X224790000Y-92710000D03*
X231140000Y-90170000D03*
%TD*%
D20*
%TO.C,MX6*%
X157480000Y-38100000D03*
D10*
X152400000Y-38100000D03*
D20*
X147320000Y-38100000D03*
D21*
X148590000Y-35560000D03*
X154940000Y-33020000D03*
%TD*%
D20*
%TO.C,MX48*%
X119380000Y-95250000D03*
D10*
X114300000Y-95250000D03*
D20*
X109220000Y-95250000D03*
D21*
X110490000Y-92710000D03*
X116840000Y-90170000D03*
%TD*%
D20*
%TO.C,MX65*%
X176530000Y-114300000D03*
D10*
X171450000Y-114300000D03*
D20*
X166370000Y-114300000D03*
D21*
X167640000Y-111760000D03*
X173990000Y-109220000D03*
%TD*%
D20*
%TO.C,MX69*%
X252730000Y-114300000D03*
D10*
X247650000Y-114300000D03*
D20*
X242570000Y-114300000D03*
D21*
X243840000Y-111760000D03*
X250190000Y-109220000D03*
%TD*%
D20*
%TO.C,MX66*%
X195580000Y-114300000D03*
D10*
X190500000Y-114300000D03*
D20*
X185420000Y-114300000D03*
D21*
X186690000Y-111760000D03*
X193040000Y-109220000D03*
%TD*%
D20*
%TO.C,MX28*%
X290830000Y-57150000D03*
D10*
X285750000Y-57150000D03*
D20*
X280670000Y-57150000D03*
D21*
X281940000Y-54610000D03*
X288290000Y-52070000D03*
%TD*%
D20*
%TO.C,MX10*%
X233680000Y-38100000D03*
D10*
X228600000Y-38100000D03*
D20*
X223520000Y-38100000D03*
D21*
X224790000Y-35560000D03*
X231140000Y-33020000D03*
%TD*%
D20*
%TO.C,MX22*%
X176530000Y-57150000D03*
D10*
X171450000Y-57150000D03*
D20*
X166370000Y-57150000D03*
D21*
X167640000Y-54610000D03*
X173990000Y-52070000D03*
%TD*%
D20*
%TO.C,MX23*%
X195580000Y-57150000D03*
D10*
X190500000Y-57150000D03*
D20*
X185420000Y-57150000D03*
D21*
X186690000Y-54610000D03*
X193040000Y-52070000D03*
%TD*%
D20*
%TO.C,MX79*%
X300355000Y-133350000D03*
D10*
X295275000Y-133350000D03*
D20*
X290195000Y-133350000D03*
D21*
X291465000Y-130810000D03*
X297815000Y-128270000D03*
%TD*%
D20*
%TO.C,MX41*%
X271780000Y-76200000D03*
D10*
X266700000Y-76200000D03*
D20*
X261620000Y-76200000D03*
D21*
X262890000Y-73660000D03*
X269240000Y-71120000D03*
%TD*%
D20*
%TO.C,MX46*%
X81280000Y-95250000D03*
D10*
X76200000Y-95250000D03*
D20*
X71120000Y-95250000D03*
D21*
X72390000Y-92710000D03*
X78740000Y-90170000D03*
%TD*%
D20*
%TO.C,MX76*%
X243205000Y-133350000D03*
D10*
X238125000Y-133350000D03*
D20*
X233045000Y-133350000D03*
D21*
X234315000Y-130810000D03*
X240665000Y-128270000D03*
%TD*%
D20*
%TO.C,MX18*%
X100330000Y-57150000D03*
D10*
X95250000Y-57150000D03*
D20*
X90170000Y-57150000D03*
D21*
X91440000Y-54610000D03*
X97790000Y-52070000D03*
%TD*%
D20*
%TO.C,MX64*%
X157480000Y-114300000D03*
D10*
X152400000Y-114300000D03*
D20*
X147320000Y-114300000D03*
D21*
X148590000Y-111760000D03*
X154940000Y-109220000D03*
%TD*%
D20*
%TO.C,MX36*%
X176530000Y-76200000D03*
D10*
X171450000Y-76200000D03*
D20*
X166370000Y-76200000D03*
D21*
X167640000Y-73660000D03*
X173990000Y-71120000D03*
%TD*%
D20*
%TO.C,MX75*%
X174148750Y-133350000D03*
D10*
X169068750Y-133350000D03*
D20*
X163988750Y-133350000D03*
D21*
X165258750Y-130810000D03*
X171608750Y-128270000D03*
%TD*%
D20*
%TO.C,MX24*%
X214630000Y-57150000D03*
D10*
X209550000Y-57150000D03*
D20*
X204470000Y-57150000D03*
D21*
X205740000Y-54610000D03*
X212090000Y-52070000D03*
%TD*%
D20*
%TO.C,MX71*%
X319405000Y-114300000D03*
D10*
X314325000Y-114300000D03*
D20*
X309245000Y-114300000D03*
D21*
X310515000Y-111760000D03*
X316865000Y-109220000D03*
%TD*%
D20*
%TO.C,MX27*%
X271780000Y-57150000D03*
D10*
X266700000Y-57150000D03*
D20*
X261620000Y-57150000D03*
D21*
X262890000Y-54610000D03*
X269240000Y-52070000D03*
%TD*%
D20*
%TO.C,MX80*%
X319405000Y-133350000D03*
D10*
X314325000Y-133350000D03*
D20*
X309245000Y-133350000D03*
D21*
X310515000Y-130810000D03*
X316865000Y-128270000D03*
%TD*%
D20*
%TO.C,MX70*%
X283686250Y-114300000D03*
D10*
X278606250Y-114300000D03*
D20*
X273526250Y-114300000D03*
D21*
X274796250Y-111760000D03*
X281146250Y-109220000D03*
%TD*%
D20*
%TO.C,MX5*%
X138430000Y-38100000D03*
D10*
X133350000Y-38100000D03*
D20*
X128270000Y-38100000D03*
D21*
X129540000Y-35560000D03*
X135890000Y-33020000D03*
%TD*%
D20*
%TO.C,MX19*%
X119380000Y-57150000D03*
D10*
X114300000Y-57150000D03*
D20*
X109220000Y-57150000D03*
D21*
X110490000Y-54610000D03*
X116840000Y-52070000D03*
%TD*%
D20*
%TO.C,MX59*%
X55086250Y-114300000D03*
D10*
X50006250Y-114300000D03*
D20*
X44926250Y-114300000D03*
D21*
X46196250Y-111760000D03*
X52546250Y-109220000D03*
%TD*%
D20*
%TO.C,MX7*%
X176530000Y-38100000D03*
D10*
X171450000Y-38100000D03*
D20*
X166370000Y-38100000D03*
D21*
X167640000Y-35560000D03*
X173990000Y-33020000D03*
%TD*%
D20*
%TO.C,MX43*%
X314642500Y-76200000D03*
D10*
X309562500Y-76200000D03*
D20*
X304482500Y-76200000D03*
D21*
X305752500Y-73660000D03*
X312102500Y-71120000D03*
%TD*%
D20*
%TO.C,MX32*%
X100330000Y-76200000D03*
D10*
X95250000Y-76200000D03*
D20*
X90170000Y-76200000D03*
D21*
X91440000Y-73660000D03*
X97790000Y-71120000D03*
%TD*%
D20*
%TO.C,MX78*%
X281305000Y-133350000D03*
D10*
X276225000Y-133350000D03*
D20*
X271145000Y-133350000D03*
D21*
X272415000Y-130810000D03*
X278765000Y-128270000D03*
%TD*%
D20*
%TO.C,MX17*%
X81280000Y-57150000D03*
D10*
X76200000Y-57150000D03*
D20*
X71120000Y-57150000D03*
D21*
X72390000Y-54610000D03*
X78740000Y-52070000D03*
%TD*%
D20*
%TO.C,MX4*%
X119380000Y-38100000D03*
D10*
X114300000Y-38100000D03*
D20*
X109220000Y-38100000D03*
D21*
X110490000Y-35560000D03*
X116840000Y-33020000D03*
%TD*%
D20*
%TO.C,MX39*%
X233680000Y-76200000D03*
D10*
X228600000Y-76200000D03*
D20*
X223520000Y-76200000D03*
D21*
X224790000Y-73660000D03*
X231140000Y-71120000D03*
%TD*%
D20*
%TO.C,MX3*%
X100330000Y-38100000D03*
D10*
X95250000Y-38100000D03*
D20*
X90170000Y-38100000D03*
D21*
X91440000Y-35560000D03*
X97790000Y-33020000D03*
%TD*%
D20*
%TO.C,MX42*%
X290830000Y-76200000D03*
D10*
X285750000Y-76200000D03*
D20*
X280670000Y-76200000D03*
D21*
X281940000Y-73660000D03*
X288290000Y-71120000D03*
%TD*%
D20*
%TO.C,MX63*%
X138430000Y-114300000D03*
D10*
X133350000Y-114300000D03*
D20*
X128270000Y-114300000D03*
D21*
X129540000Y-111760000D03*
X135890000Y-109220000D03*
%TD*%
D20*
%TO.C,MX26*%
X252730000Y-57150000D03*
D10*
X247650000Y-57150000D03*
D20*
X242570000Y-57150000D03*
D21*
X243840000Y-54610000D03*
X250190000Y-52070000D03*
%TD*%
D20*
%TO.C,MX8*%
X195580000Y-38100000D03*
D10*
X190500000Y-38100000D03*
D20*
X185420000Y-38100000D03*
D21*
X186690000Y-35560000D03*
X193040000Y-33020000D03*
%TD*%
D20*
%TO.C,MX33*%
X119380000Y-76200000D03*
D10*
X114300000Y-76200000D03*
D20*
X109220000Y-76200000D03*
D21*
X110490000Y-73660000D03*
X116840000Y-71120000D03*
%TD*%
D20*
%TO.C,MX55*%
X252730000Y-95250000D03*
D10*
X247650000Y-95250000D03*
D20*
X242570000Y-95250000D03*
D21*
X243840000Y-92710000D03*
X250190000Y-90170000D03*
%TD*%
D20*
%TO.C,MX40*%
X252730000Y-76200000D03*
D10*
X247650000Y-76200000D03*
D20*
X242570000Y-76200000D03*
D21*
X243840000Y-73660000D03*
X250190000Y-71120000D03*
%TD*%
D20*
%TO.C,MX72*%
X55086250Y-133350000D03*
D10*
X50006250Y-133350000D03*
D20*
X44926250Y-133350000D03*
D21*
X46196250Y-130810000D03*
X52546250Y-128270000D03*
%TD*%
D20*
%TO.C,MX35*%
X157480000Y-76200000D03*
D10*
X152400000Y-76200000D03*
D20*
X147320000Y-76200000D03*
D21*
X148590000Y-73660000D03*
X154940000Y-71120000D03*
%TD*%
D20*
%TO.C,MX53*%
X214630000Y-95250000D03*
D10*
X209550000Y-95250000D03*
D20*
X204470000Y-95250000D03*
D21*
X205740000Y-92710000D03*
X212090000Y-90170000D03*
%TD*%
D20*
%TO.C,MX20*%
X138430000Y-57150000D03*
D10*
X133350000Y-57150000D03*
D20*
X128270000Y-57150000D03*
D21*
X129540000Y-54610000D03*
X135890000Y-52070000D03*
%TD*%
D20*
%TO.C,MX12*%
X271780000Y-38100000D03*
D10*
X266700000Y-38100000D03*
D20*
X261620000Y-38100000D03*
D21*
X262890000Y-35560000D03*
X269240000Y-33020000D03*
%TD*%
D20*
%TO.C,MX67*%
X214630000Y-114300000D03*
D10*
X209550000Y-114300000D03*
D20*
X204470000Y-114300000D03*
D21*
X205740000Y-111760000D03*
X212090000Y-109220000D03*
%TD*%
D20*
%TO.C,MX29*%
X319405000Y-57150000D03*
D10*
X314325000Y-57150000D03*
D20*
X309245000Y-57150000D03*
D21*
X310515000Y-54610000D03*
X316865000Y-52070000D03*
%TD*%
D20*
%TO.C,MX50*%
X157480000Y-95250000D03*
D10*
X152400000Y-95250000D03*
D20*
X147320000Y-95250000D03*
D21*
X148590000Y-92710000D03*
X154940000Y-90170000D03*
%TD*%
D20*
%TO.C,MX30*%
X57467500Y-76200000D03*
D10*
X52387500Y-76200000D03*
D20*
X47307500Y-76200000D03*
D21*
X48577500Y-73660000D03*
X54927500Y-71120000D03*
%TD*%
D20*
%TO.C,MX34*%
X138430000Y-76200000D03*
D10*
X133350000Y-76200000D03*
D20*
X128270000Y-76200000D03*
D21*
X129540000Y-73660000D03*
X135890000Y-71120000D03*
%TD*%
D20*
%TO.C,MX38*%
X214630000Y-76200000D03*
D10*
X209550000Y-76200000D03*
D20*
X204470000Y-76200000D03*
D21*
X205740000Y-73660000D03*
X212090000Y-71120000D03*
%TD*%
D20*
%TO.C,MX49*%
X138430000Y-95250000D03*
D10*
X133350000Y-95250000D03*
D20*
X128270000Y-95250000D03*
D21*
X129540000Y-92710000D03*
X135890000Y-90170000D03*
%TD*%
D20*
%TO.C,MX62*%
X119380000Y-114300000D03*
D10*
X114300000Y-114300000D03*
D20*
X109220000Y-114300000D03*
D21*
X110490000Y-111760000D03*
X116840000Y-109220000D03*
%TD*%
D20*
%TO.C,MX47*%
X100330000Y-95250000D03*
D10*
X95250000Y-95250000D03*
D20*
X90170000Y-95250000D03*
D21*
X91440000Y-92710000D03*
X97790000Y-90170000D03*
%TD*%
D20*
%TO.C,MX14*%
X309880000Y-38100000D03*
D10*
X304800000Y-38100000D03*
D20*
X299720000Y-38100000D03*
D21*
X300990000Y-35560000D03*
X307340000Y-33020000D03*
%TD*%
D20*
%TO.C,MX56*%
X271780000Y-95250000D03*
D10*
X266700000Y-95250000D03*
D20*
X261620000Y-95250000D03*
D21*
X262890000Y-92710000D03*
X269240000Y-90170000D03*
%TD*%
D20*
%TO.C,MX25*%
X233680000Y-57150000D03*
D10*
X228600000Y-57150000D03*
D20*
X223520000Y-57150000D03*
D21*
X224790000Y-54610000D03*
X231140000Y-52070000D03*
%TD*%
D20*
%TO.C,MX21*%
X157480000Y-57150000D03*
D10*
X152400000Y-57150000D03*
D20*
X147320000Y-57150000D03*
D21*
X148590000Y-54610000D03*
X154940000Y-52070000D03*
%TD*%
D20*
%TO.C,MX31*%
X81280000Y-76200000D03*
D10*
X76200000Y-76200000D03*
D20*
X71120000Y-76200000D03*
D21*
X72390000Y-73660000D03*
X78740000Y-71120000D03*
%TD*%
D20*
%TO.C,MX1*%
X62230000Y-38100000D03*
D10*
X57150000Y-38100000D03*
D20*
X52070000Y-38100000D03*
D21*
X53340000Y-35560000D03*
X59690000Y-33020000D03*
%TD*%
D20*
%TO.C,MX37*%
X195580000Y-76200000D03*
D10*
X190500000Y-76200000D03*
D20*
X185420000Y-76200000D03*
D21*
X186690000Y-73660000D03*
X193040000Y-71120000D03*
%TD*%
D20*
%TO.C,MX52*%
X195580000Y-95250000D03*
D10*
X190500000Y-95250000D03*
D20*
X185420000Y-95250000D03*
D21*
X186690000Y-92710000D03*
X193040000Y-90170000D03*
%TD*%
D20*
%TO.C,MX68*%
X233680000Y-114300000D03*
D10*
X228600000Y-114300000D03*
D20*
X223520000Y-114300000D03*
D21*
X224790000Y-111760000D03*
X231140000Y-109220000D03*
%TD*%
D20*
%TO.C,MX2*%
X81280000Y-38100000D03*
D10*
X76200000Y-38100000D03*
D20*
X71120000Y-38100000D03*
D21*
X72390000Y-35560000D03*
X78740000Y-33020000D03*
%TD*%
D20*
%TO.C,MX9*%
X214630000Y-38100000D03*
D10*
X209550000Y-38100000D03*
D20*
X204470000Y-38100000D03*
D21*
X205740000Y-35560000D03*
X212090000Y-33020000D03*
%TD*%
M02*
